<svg width="105" height="128" viewBox="0 0 105 128" fill="none" xmlns="http://www.w3.org/2000/svg">
<path d="M33.9919 32.8371C40.1078 35.8891 43.677 37.8979 44.6977 38.8619C46.2288 40.3071 46.1429 49.0676 45.8027 50.5145C45.4624 51.9597 41.1251 55.6165 36.7019 59.4452C38.1763 63.1295 39.4239 65.1142 40.4446 65.3978L51.3308 66.2484L70.1286 57.7439L72.5946 38.1814L64.1743 33.674L43.2285 31.6325L33.9919 32.8371Z" fill="#3B170F"/>
<path d="M100.734 50.121L101.921 50.9905C97.4239 55.9327 89.2047 62.2359 77.2652 69.9C59.3541 81.3963 46.026 86.6443 36.6125 89.1429L36.0471 86.4828L41.6114 79.7294" fill="#3B170F"/>
<path d="M33.4351 31.5397C34.3717 21.6279 38.8585 14.3298 46.8938 9.6419C58.9485 2.61012 68.9927 -1.70827 90.9902 9.6419C91.8941 9.54223 98.7248 16.8747 101.938 17.5776C103.681 30.4348 103.279 41.2832 100.734 50.121C94.5061 57.6546 52.6196 84.8761 36.0471 86.4828C33.9713 84.8091 32.2632 83.2023 30.9245 81.6609C30.0361 77.9113 29.7371 71.9518 30.0258 63.7825C31.8301 60.7013 34.1053 58.6599 36.8496 57.6546C38.19 60.4676 39.1609 62.2428 39.7623 62.9782C43.1115 64.4527 45.5225 65.2225 46.9952 65.2895C49.2051 65.3892 62.5641 60.6687 66.3807 58.6599C70.1973 56.651 70.4997 53.5372 71.0015 49.6192C71.5033 45.7012 72.1065 40.3776 71.0015 38.4701C69.8966 36.561 65.2757 34.7257 59.751 33.9352C56.0684 33.4094 47.5983 33.0451 34.339 32.8457C33.5829 33.0004 33.2805 32.5639 33.4351 31.5397Z" fill="#DA6A2E"/>
<path d="M82.4721 28.7198C81.3723 30.3832 79.4494 32.2219 76.7016 34.2377C77.0865 37.8807 76.4559 51.5748 74.7512 55.4533C73.0448 59.3318 71.0068 61.3629 67.2847 63.456C82.9395 52.4495 91.7515 46.2907 93.7209 44.9778C95.6884 43.6666 98.2987 40.7883 101.55 36.3462V32.5948L99.1614 27.5616L82.4721 28.7198Z" fill="#C9531F"/>
<path d="M76.7017 25.0561L75.6345 22.5885C65.812 22.396 55.9431 21.4028 46.0261 19.6105C49.7809 13.8073 55.5015 8.60054 63.1897 3.99001L51.5749 7.04193C50.0283 7.84271 48.4783 8.71739 46.8939 9.6419C38.8586 14.3298 34.3718 21.6279 33.4353 31.5397C33.2806 32.5639 33.583 33.0004 34.3391 32.8457C47.5572 33.0451 56.0187 33.4077 59.7254 33.9318L71.3436 32.4539L76.7017 25.0561Z" fill="#C9531F"/>
<path d="M33.4351 31.5397C34.3717 21.6279 38.8585 14.3298 46.8938 9.6419C58.9485 2.61012 68.9927 -1.70827 90.9902 9.6419C91.8941 9.54223 98.7248 16.8747 101.938 17.5776C103.681 30.4348 103.279 41.2832 100.734 50.121C94.5061 57.6546 52.6196 84.8761 36.0471 86.4828C33.9713 84.8091 32.2632 83.2023 30.9245 81.6609C30.0361 77.9113 29.7371 71.9518 30.0258 63.7825C31.8301 60.7013 34.1053 58.6599 36.8496 57.6546C38.19 60.4676 39.1609 62.2428 39.7623 62.9783C43.1115 64.4527 45.5225 65.2225 46.9952 65.2895C49.2051 65.3892 62.5641 60.6687 66.3807 58.6599C70.1973 56.651 70.4997 53.5372 71.0015 49.6192C71.5033 45.7012 72.1065 40.3776 71.0015 38.4701C69.8966 36.561 65.2757 34.7257 59.751 33.9352C56.0684 33.4094 47.5983 33.0451 34.339 32.8457C33.5829 33.0004 33.2805 32.5639 33.4351 31.5397Z" stroke="#3B170F" stroke-width="3"/>
<path d="M64.9751 3.51401C74.6618 3.34388 83.2797 5.9576 90.8305 11.3569C87.983 19.064 84.9861 24.7915 81.8362 28.5377C77.114 34.1569 74.5914 28.639 77.6691 22.5868C80.7468 16.5345 76.8185 6.02978 64.9751 3.51401Z" fill="#3B170F"/>
<path d="M66.5199 52.3911C66.6677 42.206 68.5889 37.391 72.2869 37.9477C75.9833 38.5045 75.9833 44.2543 72.2869 55.1972L67.9651 55.4533L66.0938 52.3911" fill="#E9DDC7"/>
<path d="M53.3844 64.6382C52.7572 60.8955 53.6336 58.2028 56.0153 56.5582C59.5879 54.0923 64.5215 51.6264 66.0526 51.3703C67.582 51.116 69.8796 52.9874 70.3899 55.0271C70.7302 56.3881 69.029 58.4588 65.2862 61.2358L53.3844 64.6382Z" stroke="#3B170F" stroke-width="4.5"/>
<path d="M53.3844 64.6382C52.7572 60.8955 53.6336 58.2028 56.0153 56.5582C59.5879 54.0923 64.5215 51.6264 66.0526 51.3703C67.582 51.116 69.8796 52.9874 70.3899 55.0271C70.7302 56.3881 69.029 58.4588 65.2862 61.2358L53.3844 64.6382Z" fill="#E9DDC7"/>
<path d="M51.013 67.7005C55.7335 66.4941 68.1886 61.7736 70.5995 59.263C73.0105 56.7507 74.5175 49.1175 74.4161 42.7885C74.3165 36.4613 73.9144 35.5574 68.1886 33.6482C62.4645 31.7408 57.6426 31.0362 51.1144 30.8369C45.7151 30.6702 36.5439 30.7785 33.5298 30.8214C33.4834 31.1273 33.4524 31.3662 33.4352 31.5397C33.2806 32.5639 33.583 33.0004 34.3391 32.8457C47.5985 33.0451 56.0686 33.4094 59.7511 33.9352C65.2759 34.7257 69.8967 36.561 71.0016 38.4701C72.1066 40.3776 71.5034 45.7012 71.0016 49.6192C70.4999 53.5372 70.1974 56.651 66.3808 58.6599C62.5642 60.6687 49.2052 65.3892 46.9953 65.2895C45.5226 65.2225 43.1117 64.4527 39.7625 62.9782C39.161 62.2428 38.1901 60.4676 36.8497 57.6546C33.1397 59.0121 30.5827 62.8889 30.1118 63.6433C35.8771 66.3068 46.8458 68.7642 51.013 67.7005Z" fill="#3B170F"/>
<path d="M66.3807 58.6598C64.3186 59.7889 62.1362 60.6824 59.9538 61.5485C57.7714 62.4215 55.5563 63.2085 53.3224 63.944C52.2037 64.3049 51.085 64.6692 49.9423 64.9716C49.3735 65.1263 48.7978 65.262 48.2135 65.3806C47.643 65.4957 46.9797 65.5816 46.3851 65.4579C44.0206 65.006 41.8554 64.0712 39.7005 63.1226L39.6609 63.1054L39.642 63.0779C39.3293 62.6466 39.0836 62.2118 38.8292 61.7667C38.5835 61.3217 38.3532 60.8697 38.1264 60.4143C37.6762 59.5053 37.25 58.586 36.8496 57.6546C37.3239 58.5516 37.793 59.4486 38.2914 60.3284C38.5388 60.7683 38.7966 61.2031 39.0578 61.6344C39.319 62.0606 39.5905 62.5005 39.8843 62.8786L39.8259 62.8356C40.9051 63.2807 42.0032 63.6931 43.1098 64.0694C44.2113 64.4423 45.33 64.8135 46.4573 64.9905C47.0244 65.0988 47.5416 65.0146 48.119 64.8994C48.6827 64.7774 49.248 64.6382 49.8099 64.4784C50.9355 64.1725 52.0576 63.8357 53.1746 63.4852C55.4068 62.7755 57.6219 62.0039 59.8335 61.2272C62.0348 60.4212 64.2464 59.6376 66.3807 58.6598Z" fill="#DA6A2E"/>
<path d="M6.01782 22.396L13.6957 28.2885L25.7487 29.8952L31.9986 27.7523L19.7669 19.1809L9.05427 20.1638" fill="#3B170F"/>
<path d="M64.9751 3.51401V2.20973C59.3507 1.27147 49.6072 3.48136 35.7447 8.83768C21.884 14.1957 10.9686 18.2134 3.00024 20.8924L3.90413 22.5988L18.4677 24.1059L24.9977 28.9277L39.8638 30.4348L46.0914 27.2196L75.4214 29.4295L83.4567 17.6532V16.275L61.8613 13.4585L54.8295 18.6825C49.8753 17.3421 46.0072 16.2372 43.2285 15.3677C48.217 12.2866 55.4653 8.3359 64.9751 3.51401Z" fill="#BE3F22"/>
<path d="M35.7447 8.83768C15.6753 16.5946 3.84398 20.6071 3.04663 20.8769L19.009 21.9544L25.7418 27.5118L36.9854 28.6648L26.8588 26.2281L21.1588 20.7343L13.5153 19.7548L49.035 4.42649C45.3301 5.42317 40.9206 6.83744 35.7447 8.83768Z" fill="#FC5A44"/>
<path d="M64.9751 3.51401V2.20973C59.3507 1.27147 49.6072 3.48136 35.7447 8.83768C21.884 14.1957 10.9686 18.2134 3.00024 20.8924L3.90413 22.5988L18.4677 24.1058L24.9977 28.9277L39.8638 30.4348L46.0914 27.2196L75.4214 29.4295L83.4567 17.6532V16.275L61.8613 13.4585L54.8295 18.6825C49.8753 17.3421 46.0072 16.2372 43.2285 15.3677C48.217 12.2866 55.4653 8.3359 64.9751 3.51401Z" stroke="#3B170F" stroke-width="3"/>
<path d="M69.3622 54.6508C68.4703 53.032 67.4152 52.1728 66.1952 52.0766C64.3668 51.9305 55.9912 56.3383 54.8879 58.6736C58.3935 57.3109 67.4152 53.6111 69.3622 54.6508Z" fill="#3B170F"/>
<path d="M69.7523 40.2418C68.1937 43.1838 67.3723 46.5158 67.2847 50.2362C68.3673 50.7122 69.1887 51.3239 69.7523 52.0731C68.7574 50.8084 68.259 49.6777 68.259 48.681C68.259 47.6843 68.7574 44.8712 69.7523 40.2418Z" fill="#3B170F"/>
<path d="M53.2934 53.6111C52.3671 51.8377 51.2312 50.908 49.8909 50.8204C47.8786 50.6915 44.373 53.2228 42.2319 55.8829C40.0907 58.5447 40.2196 60.4264 40.5444 61.2701C40.7609 61.8338 41.1493 62.4816 41.7129 63.2171C40.9345 61.8338 40.7609 60.6859 41.194 59.7785C43.9847 59.7132 48.1381 57.7388 50.8635 52.0731C52.1128 52.3636 52.9222 52.8756 53.2934 53.6111Z" fill="#E9DDC7"/>
<path d="M48.3974 50.121C48.4627 49.8478 47.6189 43.0978 47.3594 41.4739C47.1 39.8517 44.1133 37.5147 42.1011 36.3462C45.5414 37.8395 47.7564 40.3707 48.4008 41.345C48.8321 41.9929 49.3717 44.5258 50.0196 48.9405C51.6297 49.8048 52.714 50.7122 53.2725 51.6642C51.927 50.6692 50.3014 50.1554 48.3974 50.121Z" fill="#E9DDC7"/>
<path d="M3.00024 20.8924L19.0091 21.9544L25.7418 27.5118L39.2881 28.902L46.8268 24.8963L74.4212 27.6286L83.4567 16.275" stroke="#3B170F" stroke-width="3"/>
<path d="M18.2083 21.743L38.5939 14.7765L19.7755 22.5885" fill="#3B170F"/>
<path d="M46.3628 24.8499L53.8757 19.7548L48.4369 25.0561L46.3628 24.8499Z" fill="#3B170F"/>
<path d="M74.0054 27.5874L74.7512 28.902V27.2145L74.0054 27.5874Z" fill="#3B170F"/>
<path d="M25.3809 27.2145L41.7677 16.275L26.2246 27.5616L25.3809 27.2145Z" fill="#3B170F"/>
<path d="M64.9751 2.20973L41.2266 14.9518L42.9433 15.5223L64.9751 3.51401V2.20973Z" fill="#3B170F"/>
<path d="M92.4647 13.1733C89.619 19.4283 86.2887 24.6111 82.472 28.7198C79.293 35.2481 80.5646 46.6928 86.2887 48.2376C91.193 45.5122 96.2813 40.9704 101.55 34.6123C101.186 26.0666 100.914 21.1141 100.732 19.7548C99.1579 22.695 97.5529 24.7399 95.917 25.8913C97.491 23.6677 98.7335 21.2636 99.6425 18.6825C97.9155 17.8061 93.3737 14.3538 92.4647 13.1733Z" fill="#3B170F"/>
<path d="M101.55 36.3462C95.9169 42.2438 90.9214 46.4419 86.5601 48.9405C80.8377 56.6854 73.2698 63.1363 70.4224 65.3153C67.575 67.496 71.9432 69.2763 77.9027 66.2484C83.8604 63.2205 97.3706 52.8224 99.9139 50.121C100.943 44.9898 101.488 40.3982 101.55 36.3462Z" fill="#3B170F"/>
<path d="M35.1587 65.073C34.8167 76.516 34.8167 83.4085 35.1587 85.7456C32.9316 83.6285 31.5208 82.2675 30.9245 81.6609C30.4176 78.3409 29.5704 64.4475 30.1117 63.6433C30.8386 63.0813 32.5192 63.5591 35.1587 65.073Z" fill="#3B170F"/>
<path d="M35.6708 66.2346C34.7876 65.8755 33.9129 65.5078 33.0434 65.1211C32.1756 64.7327 31.3061 64.3427 30.4795 63.8735C31.3456 64.2653 32.2409 64.5747 33.1362 64.8822C34.0332 65.1847 34.9371 65.4734 35.841 65.7483L35.6708 66.2346Z" fill="#DA6A2E"/>
<path d="M39.7795 66.7691L44.2113 65.2242L40.3604 67.2004L39.7795 66.7691Z" fill="#DA6A2E"/>
<path d="M64.9751 63.8735L56.7627 67.2004L54.8879 78.0402C60.5192 75.3096 63.8822 73.5757 64.9751 72.8385V63.8735Z" fill="#BE3F22"/>
<path d="M54.8879 67.9531L53.2725 78.4836C49.8907 80.568 44.4605 82.6937 36.9854 84.8606C43.6769 81.3464 48.3149 78.8513 50.8977 77.3769C52.5199 74.203 53.8517 71.0617 54.8879 67.9531Z" fill="#BE3F22"/>
<path d="M53.7298 21.5746C53.118 21.9698 52.5011 22.3909 51.9443 22.86C51.4202 23.3016 50.9803 23.8928 50.3617 24.2004C50.2895 24.2364 50.3032 24.3619 50.384 24.3774C50.836 24.4633 51.2381 23.8189 51.5044 23.5336C52.1763 22.817 52.9651 22.2018 53.7642 21.633C53.8002 21.609 53.7676 21.5506 53.7298 21.5746Z" fill="#3B170F"/>
<path d="M52.3739 23.4769C52.1316 23.635 51.9048 23.8172 51.6693 23.9873C51.5164 24.0973 51.2827 24.2261 51.2277 24.41C51.2088 24.4702 51.2586 24.5355 51.3205 24.532C51.5336 24.5269 51.6642 24.3275 51.8188 24.2021C52.0405 24.0251 52.2587 23.8395 52.4907 23.6762C52.611 23.592 52.501 23.3944 52.3739 23.4769Z" fill="#3B170F"/>
<path d="M52.7863 23.8928C52.6128 24.0251 52.434 24.1557 52.257 24.2794C52.1454 24.3585 52.0715 24.3859 52.056 24.5286C52.0474 24.6025 52.1368 24.6317 52.19 24.6059C52.4512 24.4856 52.6901 24.2347 52.9083 24.0526C52.996 23.9804 52.8774 23.824 52.7863 23.8928Z" fill="#3B170F"/>
<path d="M53.3722 24.2553C53.1626 24.2966 52.8825 24.4598 52.7295 24.6025C52.6573 24.6712 52.733 24.8207 52.8326 24.7795C52.8412 24.776 52.8498 24.7726 52.8584 24.7674C52.9082 24.7485 52.9357 24.6987 52.9082 24.6471C52.9031 24.6403 52.8996 24.6317 52.8945 24.6248C52.8825 24.6729 52.8704 24.721 52.8567 24.7692C53.0474 24.6729 53.2124 24.4787 53.4152 24.4134C53.5166 24.3825 53.4753 24.2364 53.3722 24.2553Z" fill="#3B170F"/>
<path d="M53.3947 24.5458C53.4325 24.6231 53.4531 24.7159 53.4944 24.7863C53.558 24.8963 53.7264 24.8224 53.6972 24.7021C53.6731 24.6042 53.6353 24.5183 53.5958 24.4289C53.5356 24.2932 53.3294 24.41 53.3947 24.5458Z" fill="#3B170F"/>
<path d="M81.6867 16.873C80.7226 17.6979 79.9047 18.7031 78.9853 19.5847C78.9321 19.6362 79.0025 19.7342 79.0678 19.6895C79.5472 19.3664 79.994 18.8526 80.3772 18.4213C80.8292 17.9127 81.2416 17.3903 81.7417 16.928C81.7778 16.8936 81.7245 16.8421 81.6867 16.873Z" fill="#3B170F"/>
<path d="M81.1127 16.8318C80.9546 16.7716 80.8223 16.9503 80.7089 17.0414C80.5835 17.1428 80.4494 17.2287 80.3171 17.3232C80.2398 17.3782 80.1676 17.4676 80.08 17.502C80.0233 17.526 80.025 17.6154 80.0954 17.6171C80.2673 17.6171 80.3858 17.447 80.513 17.3507C80.6797 17.2236 80.9031 16.9091 81.1127 16.8696C81.1334 16.8644 81.1282 16.8369 81.1127 16.8318Z" fill="#3B170F"/>
<path d="M80.3806 16.7854C80.183 16.8301 79.8823 17.0414 79.7844 17.2201C79.7517 17.282 79.817 17.3439 79.8771 17.3129C80.0662 17.215 80.2071 16.9796 80.4167 16.916C80.5009 16.8902 80.4666 16.7665 80.3806 16.7854Z" fill="#3B170F"/>
<path d="M79.7382 16.6943C79.6179 16.818 79.5388 16.8868 79.3721 16.9469C79.3223 16.9641 79.312 17.0449 79.3721 17.0586C79.5852 17.1033 79.7107 16.9452 79.8464 16.8043C79.9169 16.7321 79.8069 16.6221 79.7382 16.6943Z" fill="#3B170F"/>
<path d="M79.0849 16.5328C78.1071 16.4228 77.119 16.2956 76.1516 16.1375C76.1464 16.1358 76.143 16.1461 76.1498 16.1461C77.1156 16.3437 78.1003 16.4606 79.0849 16.562C79.1021 16.5637 79.1021 16.5345 79.0849 16.5328Z" fill="#3B170F"/>
<path d="M73.4521 28.3504C73.5965 28.4088 73.5638 28.5806 73.6033 28.7026C73.624 28.7714 73.7236 28.7748 73.7425 28.7026C73.7992 28.505 73.6824 28.2747 73.4899 28.2094C73.4006 28.1785 73.3679 28.316 73.4521 28.3504Z" fill="#3B170F"/>
<path d="M42.2299 26.0253C42.0478 26.1147 41.8863 26.326 41.7076 26.4395C41.3811 26.6508 41.0546 26.845 40.7418 27.0787C40.1782 27.4946 39.4341 27.7987 38.9495 28.2988C38.9168 28.3349 38.9598 28.395 39.0028 28.3675C39.3722 28.1304 39.7692 27.9465 40.1352 27.7025C40.5493 27.4258 40.9274 27.1011 41.3381 26.8227C41.589 26.6508 42.2437 26.326 42.3038 25.9772C42.3073 25.9566 42.2849 25.9342 42.2643 25.948C42.2437 25.96 42.2248 25.9721 42.2042 25.9824C42.1784 25.9995 42.2007 26.0391 42.2299 26.0253Z" fill="#3B170F"/>
<path d="M40.2951 26.821C39.9119 26.8656 39.6163 27.1389 39.2881 27.321C38.9908 27.486 38.5183 27.5564 38.3069 27.8365C38.2605 27.8984 38.3516 27.9843 38.4134 27.9414C38.6901 27.7506 39.0218 27.6613 39.3087 27.4808C39.6232 27.2832 39.9325 26.9687 40.3071 26.9052C40.3552 26.8983 40.3449 26.8141 40.2951 26.821Z" fill="#3B170F"/>
<path d="M38.7641 26.9911C38.5304 27.132 38.2675 27.2231 38.0509 27.3915C37.9358 27.4791 37.8293 27.5822 37.7055 27.6595C37.587 27.7334 37.4581 27.7644 37.3378 27.8331C37.3 27.8554 37.3103 27.9087 37.3498 27.9225C37.5646 27.9946 37.7674 27.797 37.9221 27.6613C38.0578 27.5427 38.1781 27.4138 38.3345 27.3193C38.4874 27.2248 38.6455 27.144 38.7933 27.0409C38.8225 27.0186 38.7967 26.9705 38.7641 26.9911Z" fill="#3B170F"/>
<path d="M37.4323 27.3382C37.2467 27.5014 37.0697 27.5839 36.8429 27.6767C36.7982 27.6956 36.7965 27.7764 36.8566 27.7712C37.1195 27.7541 37.3171 27.5839 37.4941 27.4001C37.5337 27.3588 37.4752 27.3021 37.4323 27.3382Z" fill="#3B170F"/>
<path d="M36.4184 27.5135C36.3308 27.5599 36.2517 27.6131 36.1486 27.6252C36.0867 27.6321 36.085 27.7145 36.1486 27.7214C36.2689 27.7334 36.3617 27.6819 36.47 27.6372C36.5593 27.5994 36.5043 27.4671 36.4184 27.5135Z" fill="#3B170F"/>
<path d="M26.517 20.5693C26.529 20.559 26.541 20.5487 26.5548 20.5384C26.5978 20.5023 26.5514 20.4198 26.4981 20.4405C25.5323 20.8099 24.5631 21.1605 23.6713 21.6932C23.5974 21.7379 23.6489 21.8393 23.7263 21.8255C24.1645 21.7533 24.6233 21.4492 25.0117 21.2481C25.2832 21.1089 25.5495 20.9732 25.8348 20.8632C25.9929 20.803 26.4328 20.7566 26.45 20.5418C26.4482 20.5779 26.4929 20.5882 26.517 20.5693Z" fill="#3B170F"/>
<path d="M25.6148 21.4475C25.3416 21.5299 25.0735 21.633 24.8209 21.7636C24.5717 21.8908 24.3775 22.0919 24.0905 22.1314C24.0098 22.1434 24.0132 22.2757 24.0905 22.2895C24.3174 22.3342 24.4755 22.2104 24.6507 22.0781C24.9515 21.8513 25.2917 21.6897 25.6457 21.5591C25.7144 21.5334 25.687 21.4251 25.6148 21.4475Z" fill="#3B170F"/>
<path d="M25.3501 22.1675C25.2436 22.207 25.1474 22.2551 25.0477 22.3153C24.9171 22.3926 24.7848 22.4287 24.6473 22.4854C24.5906 22.5094 24.5545 22.6022 24.6267 22.6366C24.9171 22.7689 25.1731 22.4527 25.4257 22.3445C25.5254 22.3032 25.4532 22.1314 25.3501 22.1675Z" fill="#3B170F"/>
<path d="M25.5443 22.7088C25.3828 22.7895 25.0958 22.7758 25.1027 23.0198C25.1044 23.0885 25.1783 23.1092 25.2264 23.0714C25.3535 22.9734 25.5031 22.915 25.6268 22.8153C25.6904 22.7638 25.6096 22.6761 25.5443 22.7088Z" fill="#3B170F"/>
<path d="M25.7487 23.269C25.6577 23.324 25.5717 23.3669 25.4978 23.4443C25.4635 23.4803 25.5064 23.5371 25.5494 23.513C25.637 23.4632 25.7247 23.4202 25.8123 23.3772C25.8845 23.3429 25.8192 23.2277 25.7487 23.269Z" fill="#3B170F"/>
<path d="M4.16522 21.8118C4.25286 21.9527 4.30957 22.1039 4.39205 22.2448C4.41439 22.2826 4.47282 22.2568 4.46251 22.2139C4.41955 22.0334 4.34565 21.92 4.2477 21.7619C4.21505 21.7087 4.13257 21.7585 4.16522 21.8118Z" fill="#3B170F"/>
<path d="M4.50215 21.7963C4.57432 22.0145 4.73585 22.1847 4.80803 22.4046C4.82693 22.463 4.92488 22.4579 4.92144 22.3891C4.9077 22.1228 4.67915 21.9922 4.56401 21.7688C4.54683 21.7361 4.49012 21.7585 4.50215 21.7963Z" fill="#3B170F"/>
<path d="M5.15518 21.8788C5.27891 21.9922 5.2875 22.1658 5.36998 22.3032C5.39748 22.3496 5.4748 22.3204 5.45762 22.2671C5.40607 22.1022 5.36483 21.9217 5.23079 21.8032C5.17924 21.7585 5.10363 21.8324 5.15518 21.8788Z" fill="#3B170F"/>
<path d="M5.38014 21.9269C5.55714 22.0798 5.72555 22.1709 5.80803 22.4012C5.82006 22.4338 5.86817 22.4459 5.88708 22.4115C6.01252 22.1709 5.57776 21.9681 5.43341 21.8581C5.39389 21.8289 5.34406 21.8942 5.38014 21.9269Z" fill="#3B170F"/>
<path d="M6.11215 22.1537C6.17229 22.2603 6.24103 22.3634 6.3132 22.4613C6.33038 22.4837 6.38022 22.4802 6.37678 22.4441C6.3596 22.317 6.29602 22.2156 6.25306 22.0953C6.21525 21.9888 6.05544 22.0575 6.11215 22.1537Z" fill="#3B170F"/>
<path d="M6.24302 22.1056C6.40627 22.2757 6.54203 22.4871 6.75855 22.5902C6.80323 22.6125 6.84619 22.561 6.81182 22.5232C6.65544 22.3513 6.49391 22.1812 6.33238 22.0162C6.27567 21.9578 6.18803 22.0455 6.24302 22.1056Z" fill="#3B170F"/>
<path d="M6.96983 22.3651C7.04029 22.4407 7.10559 22.5112 7.13136 22.6177C7.14167 22.6607 7.20525 22.6418 7.19666 22.5988C7.17432 22.4785 7.1073 22.396 7.02997 22.3032C6.99561 22.2603 6.93031 22.3238 6.96983 22.3651Z" fill="#3B170F"/>
<path d="M25.8174 28.3589C25.8243 28.493 25.826 28.6236 25.8484 28.7542C25.857 28.8006 25.9343 28.8006 25.9412 28.7542C25.9652 28.6236 25.9669 28.493 25.9721 28.3589C25.9773 28.2593 25.814 28.2593 25.8174 28.3589Z" fill="#3B170F"/>
<path d="M26.0683 28.2816C26.0923 28.273 26.1508 28.2386 26.1765 28.2438C26.2899 28.2696 26.3363 28.4414 26.3467 28.5308C26.3552 28.6081 26.3845 28.6786 26.4051 28.7525C26.4154 28.7868 26.4721 28.792 26.4807 28.7525C26.4996 28.6425 26.4532 28.5377 26.4377 28.426C26.4291 28.3555 26.4223 28.2765 26.3707 28.2215C26.2779 28.1218 26.1473 28.1716 26.0425 28.2197C26.0081 28.2352 26.0322 28.2954 26.0683 28.2816Z" fill="#3B170F"/>
<path d="M26.8208 28.3761C26.8861 28.5531 26.9721 28.7078 27.0666 28.871C27.0855 28.9037 27.1387 28.8899 27.1387 28.8521C27.1336 28.6768 26.9978 28.5084 26.9411 28.3418C26.9154 28.2644 26.7916 28.3005 26.8208 28.3761Z" fill="#3B170F"/>
<path d="M27.2437 28.3796C27.4241 28.5411 27.5014 28.8281 27.6183 29.0326C27.6372 29.0652 27.6922 29.0446 27.6801 29.0068C27.6131 28.7868 27.4653 28.4878 27.2849 28.3383C27.2557 28.3143 27.2162 28.3538 27.2437 28.3796Z" fill="#3B170F"/>
<path d="M27.785 28.7147C27.9052 28.8263 27.8863 28.9862 28.0101 29.091C28.0393 29.115 28.0788 29.0755 28.0513 29.0497C27.9345 28.9415 27.9516 28.7731 27.8399 28.6597C27.8039 28.6253 27.7471 28.6803 27.785 28.7147Z" fill="#3B170F"/>
<path d="M28.1682 28.6597C28.2936 28.8074 28.2455 29.0394 28.4621 29.0996C28.4947 29.1082 28.5102 29.0635 28.4844 29.0463C28.3211 28.938 28.3418 28.7456 28.2232 28.6047C28.1905 28.5669 28.1356 28.6219 28.1682 28.6597Z" fill="#3B170F"/>
<path d="M28.7559 28.8384C28.8779 28.9449 28.9638 29.0824 29.0978 29.1752C29.1528 29.2147 29.2078 29.1322 29.1666 29.0841C29.0652 28.969 28.9604 28.8521 28.8384 28.7559C28.7817 28.7112 28.6992 28.7886 28.7559 28.8384Z" fill="#3B170F"/>
<path d="M29.4277 28.9518C29.4569 29.0102 29.4861 29.0686 29.5153 29.1254C29.5171 29.1872 29.6116 29.1872 29.6133 29.1254C29.6133 29.0119 29.5806 28.9415 29.493 28.8693C29.4329 28.8195 29.3658 28.9054 29.4277 28.9518Z" fill="#3B170F"/>
<path d="M36.5179 67.1111C37.8668 67.6438 39.3017 67.905 40.6524 68.405C40.7297 68.4342 40.7796 68.3122 40.7091 68.2727C40.1764 67.9806 39.5165 67.8998 38.9391 67.7297C38.1384 67.4925 37.3444 67.2434 36.5643 66.9427C36.4595 66.9031 36.4148 67.0698 36.5179 67.1111Z" fill="#3B170F"/>
<path d="M36.2654 67.8173C36.8067 67.8603 37.4528 68.2951 37.9666 68.4789C38.4839 68.6662 39.142 68.6559 39.6197 68.9188C39.6644 68.9429 39.6988 68.881 39.6593 68.8518C39.1987 68.5305 38.5217 68.5545 37.9975 68.3621C37.4683 68.1662 36.8376 67.7641 36.2654 67.7503C36.2224 67.7486 36.2224 67.8139 36.2654 67.8173Z" fill="#3B170F"/>
<path d="M36.2482 68.6404C36.6159 68.8552 36.9476 68.9944 37.3445 69.1577C37.6143 69.2677 37.97 69.5529 38.2725 69.4739C38.312 69.4636 38.3068 69.4103 38.2725 69.4C37.9081 69.2763 37.5851 69.0408 37.2088 68.9188C37.0008 68.8518 36.7826 68.8123 36.5884 68.7075C36.4595 68.6387 36.4131 68.5854 36.2653 68.5769C36.231 68.5751 36.2207 68.6233 36.2482 68.6404Z" fill="#3B170F"/>
<path d="M36.255 69.5478C36.6949 69.7076 37.1194 69.9052 37.5404 70.1149C37.5902 70.1389 37.6572 70.0977 37.6383 70.0375C37.561 69.7935 37.2173 69.7471 37.0111 69.6457C36.7808 69.534 36.5162 69.3948 36.255 69.4636C36.2103 69.4756 36.2155 69.534 36.255 69.5478Z" fill="#3B170F"/>
<path d="M36.3154 70.2953C36.4838 70.4053 36.6711 70.4431 36.8464 70.5342C36.9736 70.5995 37.0268 70.7266 37.1798 70.6716C37.2244 70.6562 37.2485 70.596 37.209 70.5582C36.9529 70.3159 36.6694 70.3108 36.3446 70.2248C36.3017 70.2145 36.2793 70.273 36.3154 70.2953Z" fill="#3B170F"/>
<path d="M36.3136 70.9723C36.4734 71.1167 36.7157 71.2129 36.9099 71.3023C36.9494 71.3195 37.0078 71.316 37.0302 71.2696C37.1728 70.9517 36.4992 70.938 36.3342 70.9225C36.3101 70.9191 36.2964 70.9551 36.3136 70.9723Z" fill="#3B170F"/>
<path d="M36.4459 71.804C36.537 71.9003 36.714 72.0257 36.848 71.969C36.891 71.9518 36.8893 71.8797 36.848 71.8608C36.7329 71.8075 36.604 71.8178 36.4923 71.7439C36.4545 71.7181 36.415 71.7731 36.4459 71.804Z" fill="#3B170F"/>
<path d="M36.6728 72.9021C37.0251 72.9812 36.3034 80.8189 36.3308 81.6901C36.3343 81.7846 36.47 81.7829 36.4769 81.6901C36.5955 80.0387 36.6436 78.3908 36.702 76.7359C36.745 75.5055 36.9924 74.0947 36.7622 72.8815C36.7605 72.8695 36.7467 72.8643 36.7364 72.8626C36.7175 72.8592 36.6986 72.8575 36.6797 72.854C36.6522 72.8506 36.647 72.897 36.6728 72.9021Z" fill="#3B170F"/>
<path d="M72.3849 68.8432C71.8522 69.2385 71.3917 69.7093 70.8229 70.0685C70.2249 70.4482 69.565 70.7197 68.924 71.0136C68.8329 71.0548 68.8965 71.2026 68.991 71.1734C70.2678 70.7713 71.6838 70.0461 72.4519 68.9102C72.4777 68.8707 72.4244 68.8157 72.3849 68.8432Z" fill="#3B170F"/>
<path d="M71.4759 68.6817C71.0446 68.9395 70.6631 69.2694 70.2077 69.4859C69.9294 69.6165 69.4946 69.7385 69.3348 70.0289C69.3056 70.0805 69.376 70.1406 69.4173 70.0942C69.5272 69.9705 69.7403 69.9344 69.8881 69.8691C70.0978 69.778 70.3108 69.6749 70.5067 69.5581C70.8745 69.3416 71.1941 69.0477 71.5533 68.8157C71.6375 68.7607 71.5619 68.6301 71.4759 68.6817Z" fill="#3B170F"/>
<path d="M71.1012 68.4549C70.8761 68.4703 70.7008 68.5803 70.5049 68.68C70.3812 68.7418 70.2471 68.7642 70.1165 68.8123C69.9894 68.8604 69.8983 68.9704 69.7711 69.0133C69.6852 69.0426 69.6972 69.1732 69.7935 69.1749C70.0186 69.1783 70.2746 69.0477 70.4808 68.9669C70.7059 68.8759 70.8881 68.6834 71.1235 68.625C71.218 68.6026 71.2008 68.448 71.1012 68.4549Z" fill="#3B170F"/>
<path d="M70.3435 68.2521C70.0135 68.2916 69.706 68.4428 69.3795 68.4789C69.3176 68.4858 69.2867 68.5923 69.364 68.6026C69.6836 68.6456 70.0239 68.4548 70.3435 68.417C70.4483 68.405 70.4483 68.24 70.3435 68.2521Z" fill="#3B170F"/>
<path d="M69.7934 67.9376C69.6507 67.9376 69.5098 67.929 69.3706 67.9531C69.3328 67.96 69.3328 68.0218 69.3706 68.0287C69.5098 68.0527 69.6507 68.0442 69.7934 68.0442C69.8621 68.0442 69.8621 67.9376 69.7934 67.9376Z" fill="#3B170F"/>
<path d="M69.3794 67.5011C69.2814 67.5063 69.1886 67.5114 69.0924 67.5303C69.046 67.5406 69.046 67.6145 69.0924 67.6248C69.1886 67.6437 69.2814 67.6489 69.3794 67.6558C69.4791 67.6609 69.4808 67.4942 69.3794 67.5011Z" fill="#3B170F"/>
<path d="M69.1768 66.8859C69.0977 66.8241 69.0307 66.7811 68.9396 66.843C68.9104 66.8636 68.907 66.8997 68.9293 66.9272C68.9602 66.965 69.0032 66.9925 69.0324 67.0303C69.1149 67.1334 69.2799 66.9684 69.1768 66.8859Z" fill="#3B170F"/>
<path d="M66.0181 71.3779C59.1805 76.4043 51.238 79.1864 43.6185 82.6731C43.5395 82.7091 43.6082 82.8243 43.6872 82.7899C51.2672 79.4957 59.5019 76.6569 66.0284 71.3933C66.037 71.3865 66.0267 71.371 66.0181 71.3779Z" fill="#3B170F"/>
<path d="M41.1596 83.2367C40.2437 83.3467 39.3587 83.8897 38.5133 84.2265C37.7743 84.5221 36.9117 84.6475 36.2088 84.9947C36.1264 85.0359 36.1848 85.1785 36.2724 85.1442C36.6041 85.017 36.9856 85.0204 37.3275 84.9156C37.752 84.785 38.1661 84.6166 38.5734 84.4465C39.4171 84.0925 40.2798 83.5426 41.1751 83.3518C41.2369 83.3381 41.2249 83.2298 41.1596 83.2367Z" fill="#3B170F"/>
<path d="M87.1944 31.5157C85.8248 34.657 84.2902 37.7381 82.6045 40.723C80.3911 44.6358 77.7877 47.2684 72.8799 46.4574C72.7957 46.4436 72.7579 46.5708 72.8438 46.588C75.8665 47.2221 78.982 46.3886 80.9548 43.9141C83.706 40.4635 85.5945 35.621 87.3353 31.5982C87.3782 31.5019 87.2356 31.4177 87.1944 31.5157Z" fill="#3B170F"/>
<path d="M82.2762 29.6735C81.9721 29.6392 81.3173 30.5035 81.0974 30.7235C80.6884 31.129 80.2983 31.5535 79.8756 31.9453C79.1556 32.6103 78.3668 33.3321 77.5626 33.8923C77.4664 33.9593 77.5489 34.1019 77.6554 34.0503C78.4493 33.6654 79.1539 32.9093 79.7948 32.3182C80.6936 31.4916 81.5476 30.5688 82.3639 29.6632C82.4017 29.6203 82.3656 29.5515 82.3089 29.567C82.2934 29.5704 82.278 29.5756 82.2625 29.579C82.2075 29.5945 82.2247 29.6684 82.2762 29.6735Z" fill="#3B170F"/>
<path d="M82.3621 30.6805C81.7108 31.0689 81.1781 31.6789 80.6076 32.2013C79.8669 32.8767 79.128 33.5022 78.2911 34.0607C78.2035 34.1191 78.2791 34.248 78.3753 34.2033C79.207 33.8063 79.8721 33.1619 80.5319 32.5313C81.1849 31.9092 81.917 31.3163 82.515 30.6548C82.5408 30.6255 82.5287 30.5809 82.4927 30.5688C82.472 30.562 82.4531 30.5551 82.4325 30.5482C82.4085 30.5396 82.3861 30.5585 82.3775 30.5791C82.3672 30.6101 82.3569 30.6393 82.3466 30.6685C82.3449 30.6771 82.3552 30.684 82.3621 30.6805Z" fill="#3B170F"/>
<path d="M82.3792 31.8353C82.4324 31.7941 82.4874 31.7528 82.5407 31.7099C82.6266 31.6446 82.5476 31.4951 82.4531 31.5604C81.8705 31.9642 81.465 32.6516 80.9185 33.1207C80.3961 33.5709 79.5661 34.2892 78.8736 34.4507C78.7791 34.4714 78.798 34.6295 78.8959 34.6209C79.4939 34.5727 80.092 34.1105 80.5491 33.7582C81.3327 33.1533 81.8636 32.3749 82.5579 31.6961C82.5132 31.6617 82.4668 31.6274 82.4221 31.5913C82.3878 31.6532 82.3534 31.715 82.319 31.7769C82.3001 31.8112 82.3414 31.8645 82.3792 31.8353Z" fill="#3B170F"/>
<path d="M82.0802 32.8664C81.6231 33.1172 81.2176 33.4644 80.8172 33.7943C80.5835 33.9868 80.379 34.2102 80.1367 34.3889C79.9803 34.504 79.848 34.5882 79.7363 34.748C79.7002 34.7996 79.7758 34.8511 79.8188 34.8133C79.994 34.6569 80.2037 34.5848 80.3979 34.461C80.5921 34.339 80.745 34.1638 80.9134 34.0125C81.3035 33.6603 81.7142 33.2771 82.1489 32.9832C82.2211 32.9351 82.1575 32.8234 82.0802 32.8664Z" fill="#3B170F"/>
<path d="M81.9135 33.9799C81.4719 34.1999 81.0732 34.4748 80.6677 34.7515C80.4065 34.9302 80.1865 35.0934 80.0198 35.3701C79.9906 35.4199 80.0164 35.5007 80.0783 35.5127C80.3549 35.566 80.5491 35.212 80.7416 35.0573C81.1488 34.7326 81.5527 34.4026 81.996 34.1225C82.0854 34.0658 82.0063 33.9335 81.9135 33.9799Z" fill="#3B170F"/>
<path d="M81.3361 35.2034C80.977 35.4973 80.2363 35.7396 80.2432 36.3049C80.2449 36.3874 80.3566 36.4424 80.4168 36.3754C80.5835 36.1915 80.7209 36.0025 80.91 35.8375C81.0973 35.6743 81.288 35.5041 81.4461 35.3134C81.5097 35.2361 81.4135 35.1398 81.3361 35.2034Z" fill="#3B170F"/>
<path d="M81.1438 36.6211C81.0527 36.7328 80.9066 36.7792 80.8499 36.9132C80.8259 36.9682 80.8654 37.0249 80.9255 37.0129C81.0716 36.9854 81.2091 36.8926 81.3156 36.7912C81.4308 36.683 81.2417 36.5025 81.1438 36.6211Z" fill="#3B170F"/>
<path d="M81.2708 37.8463C81.123 37.9237 80.9856 37.9958 80.867 38.1144C80.8137 38.1677 80.8928 38.2433 80.9495 38.1952C81.0646 38.0972 81.1935 38.0457 81.331 37.9872C81.4341 37.9443 81.3705 37.7948 81.2708 37.8463Z" fill="#3B170F"/>
<path d="M84.9808 48.803C81.9014 51.0352 78.633 52.9513 75.4625 55.0409C75.3491 55.1165 75.4504 55.2917 75.5707 55.2247C78.8684 53.3946 82.0251 51.1693 85.0427 48.9113C85.1063 48.8631 85.0461 48.7549 84.9808 48.803Z" fill="#3B170F"/>
<path d="M84.218 48.4541C84.2197 48.4301 84.2214 48.4078 84.2231 48.3837C84.2283 48.3081 84.1527 48.272 84.0891 48.2806C83.4894 48.3682 82.924 48.8683 82.3879 49.1467C81.7795 49.4629 81.0733 49.743 80.3979 49.8856C80.2845 49.9096 80.3137 50.0832 80.4254 50.0849C80.9547 50.0935 81.5166 49.8701 82.0029 49.6708C82.3071 49.5471 82.6027 49.3907 82.8896 49.2309C83.0202 49.157 84.0513 48.5177 84.0375 48.4782C84.0719 48.5779 84.2111 48.559 84.218 48.4541Z" fill="#3B170F"/>
<path d="M83.2419 47.753C82.6869 47.7616 82.2538 48.0486 81.7452 48.2376C81.3689 48.3768 80.8585 48.5023 80.6849 48.9009C80.6574 48.9645 80.7158 49.0367 80.7846 48.9989C81.1369 48.8082 81.472 48.6294 81.8414 48.4645C82.314 48.2531 82.7092 47.9232 83.2419 47.8682C83.3141 47.8613 83.3175 47.7513 83.2419 47.753Z" fill="#3B170F"/>
<path d="M82.759 47.1791C82.5321 47.1688 82.2881 47.1447 82.0836 47.2633C81.9771 47.3234 81.8894 47.4128 81.7829 47.4764C81.6798 47.54 81.6162 47.5778 81.544 47.6792C81.4719 47.7805 81.6214 47.8682 81.7038 47.8012C81.8379 47.6946 81.9736 47.5984 82.1042 47.4884C82.3053 47.3217 82.5132 47.3234 82.759 47.3148C82.8466 47.3114 82.8449 47.1842 82.759 47.1791Z" fill="#3B170F"/>
<path d="M82.2763 46.5914C82.0821 46.5897 81.8845 46.5742 81.6903 46.6051C81.613 46.6172 81.613 46.7512 81.6903 46.7632C81.8845 46.7924 82.0821 46.777 82.2763 46.7753C82.3949 46.7753 82.3949 46.5931 82.2763 46.5914Z" fill="#3B170F"/>
<path d="M82.1146 46.4471C82.1215 46.4471 82.1215 46.4367 82.1146 46.4367C82.1076 46.4367 82.1076 46.4471 82.1146 46.4471Z" fill="#3B170F"/>
<path d="M83.2951 44.3042C82.8105 44.543 82.3413 44.8334 81.8447 45.0431C81.5388 45.1737 81.2175 45.227 80.958 45.4469C80.9202 45.4778 80.97 45.5449 81.0113 45.5139C81.3068 45.2923 81.6866 45.2734 82.0131 45.1153C82.4668 44.8953 82.8998 44.6272 83.3483 44.397C83.4102 44.3643 83.3569 44.275 83.2951 44.3042Z" fill="#3B170F"/>
<path d="M83.9104 52.6643C82.1232 54.625 80.068 56.3967 77.9097 57.9381C76.1105 59.2218 74.0071 60.1686 72.3386 61.6087C72.2887 61.6516 72.3557 61.741 72.409 61.6997C74.49 60.1188 76.8992 58.9984 78.9837 57.3848C80.7812 55.9946 82.4979 54.4583 84.0204 52.7743C84.0874 52.7004 83.9791 52.5904 83.9104 52.6643Z" fill="#3B170F"/>
<path d="M79.9545 57.3126C79.9803 57.2628 80.0043 57.2129 80.0284 57.1614C80.0404 57.1391 80.0215 57.115 79.9957 57.1202C78.719 57.3573 77.4181 59.0637 76.3974 59.7871C74.5707 61.0794 72.6736 62.2771 70.8142 63.5195C70.7369 63.5711 70.8073 63.6948 70.8864 63.6433C72.6048 62.5486 74.3043 61.4248 75.985 60.2717C76.4867 59.9263 76.9868 59.5809 77.4628 59.1994C77.8563 58.8833 78.2206 58.5361 78.6004 58.2045C78.7499 58.0739 79.9322 57.2868 79.9287 57.3023C79.9236 57.3161 79.9476 57.3281 79.9545 57.3126Z" fill="#3B170F"/>
<path d="M76.3888 60.9557C74.2132 61.7771 72.445 63.4749 70.2592 64.2843C70.1286 64.3324 70.1801 64.5094 70.3159 64.4887C72.5928 64.1416 74.3627 61.9524 76.4283 61.0519C76.4833 61.0296 76.4437 60.9333 76.3888 60.9557Z" fill="#3B170F"/>
<path d="M69.8468 62.717C69.6097 62.7978 69.3828 62.8854 69.1337 62.9198C69.0271 62.9353 69.0477 63.0882 69.1337 63.1157C69.4069 63.2051 69.6612 63.0762 69.9224 62.9971C70.1011 62.9422 70.0221 62.6569 69.8468 62.717Z" fill="#3B170F"/>
<path d="M68.6783 65.2191C68.7143 65.2191 68.7143 65.1624 68.6783 65.1624C68.6405 65.1624 68.6405 65.2191 68.6783 65.2191Z" fill="#3B170F"/>
<path d="M81.106 37.1143C80.9857 37.2037 80.8671 37.238 80.7262 37.2758C80.6506 37.2964 80.6557 37.4013 80.7262 37.4253C80.9118 37.4855 81.075 37.3703 81.2108 37.25C81.2847 37.1865 81.185 37.0542 81.106 37.1143Z" fill="#3B170F"/>
<path d="M81.2932 38.4959C81.1678 38.5303 81.0698 38.6007 80.9616 38.6729C80.9049 38.709 80.9564 38.7983 81.0148 38.764C81.1162 38.7038 81.2107 38.642 81.3276 38.6179C81.4049 38.6007 81.3723 38.4753 81.2932 38.4959Z" fill="#3B170F"/>
<path d="M91.267 11.6215C91.3305 11.6868 91.4182 11.68 91.4938 11.7263C91.6038 11.7916 91.6845 11.9154 91.7584 12.015C91.8701 12.1611 91.9698 12.345 92.1485 12.4137C92.2224 12.4429 92.2946 12.3433 92.2516 12.2797C92.1141 12.0718 91.9509 11.8106 91.7567 11.6525C91.6433 11.5597 91.3632 11.4033 91.2635 11.5872C91.2566 11.5992 91.2584 11.6129 91.267 11.6215Z" fill="#3B170F"/>
<path d="M91.2876 12.455C91.4251 12.455 91.4869 12.6216 91.5677 12.7076C91.6794 12.8261 91.8066 12.9052 91.8667 13.0684C91.8925 13.1406 91.9939 13.1286 91.999 13.0495C92.0179 12.8021 91.8237 12.723 91.6708 12.5667C91.5522 12.4464 91.468 12.2797 91.2756 12.3604C91.2274 12.3793 91.2292 12.4532 91.2876 12.455Z" fill="#3B170F"/>
<path d="M91.0692 13.2454C91.162 13.3932 91.2411 13.5376 91.3046 13.7025C91.3167 13.7335 91.3459 13.7661 91.3837 13.7627C91.406 13.761 91.4266 13.7592 91.449 13.7558C91.5074 13.7506 91.5384 13.6716 91.4799 13.6389C91.4473 13.62 91.4146 13.4516 91.3906 13.4121C91.3356 13.3193 91.2479 13.2403 91.174 13.1629C91.1225 13.108 91.028 13.1801 91.0692 13.2454Z" fill="#3B170F"/>
<path d="M91.1244 14.2335C91.0951 14.4088 91.1433 14.481 91.2532 14.6133C91.2842 14.6494 91.3529 14.6099 91.334 14.5652C91.2962 14.4655 91.2842 14.3641 91.2945 14.2576C91.3031 14.1596 91.1398 14.1373 91.1244 14.2335Z" fill="#3B170F"/>
<path d="M91.2325 15.3178C91.2376 15.3436 91.2445 15.3694 91.2514 15.3935C91.26 15.4313 91.3167 15.4313 91.3253 15.3935C91.3321 15.3694 91.3373 15.3436 91.3442 15.3178C91.3665 15.225 91.2084 15.225 91.2325 15.3178Z" fill="#3B170F"/>
<path d="M65.6745 5.15167C64.6881 5.51425 63.9114 6.15007 63.0779 6.77386C62.0245 7.55918 60.9265 8.26373 59.8559 9.01983C59.7511 9.09373 59.8421 9.25869 59.959 9.19511C61.9661 8.10563 63.5935 6.15523 65.726 5.33898C65.8412 5.2943 65.793 5.10871 65.6745 5.15167Z" fill="#3B170F"/>
<path d="M66.7209 5.79608C65.8171 5.95417 65.1091 6.69309 64.4526 7.28423C63.9852 7.70352 63.5247 8.12969 63.0538 8.54555C62.583 8.96484 61.9231 9.68143 61.3268 9.88936C61.222 9.92716 61.2289 10.1145 61.356 10.099C62.1706 9.9959 62.8339 9.14872 63.4044 8.6246C64.3426 7.76023 65.4837 6.26005 66.7725 5.98167C66.8945 5.95589 66.8412 5.77374 66.7209 5.79608Z" fill="#3B170F"/>
<path d="M67.1093 7.10895C66.5353 7.36156 65.9975 7.84615 65.4888 8.21389C65.2379 8.39605 64.9922 8.58851 64.7448 8.77754C64.4801 8.98031 64.2224 9.32056 63.9062 9.42023C63.8254 9.446 63.8116 9.58176 63.9062 9.59894C64.389 9.68314 64.7894 9.04905 65.1366 8.77582C65.5198 8.4751 65.9098 8.18468 66.3016 7.89427C66.5938 7.67603 66.8584 7.39936 67.1883 7.24299C67.2777 7.20003 67.1987 7.06943 67.1093 7.10895Z" fill="#3B170F"/>
<path d="M67.8569 8.32215C67.5166 8.44932 67.1781 8.5971 66.8997 8.83252C66.733 8.97343 66.599 9.14699 66.4512 9.30681C66.3241 9.44256 66.1952 9.53536 66.1471 9.71923C66.1247 9.80687 66.2055 9.89279 66.2966 9.86701C66.599 9.78109 66.7657 9.38757 66.9479 9.15215C67.1987 8.82908 67.5441 8.61944 67.905 8.43729C67.9669 8.40636 67.9239 8.2981 67.8569 8.32215Z" fill="#3B170F"/>
<path d="M68.2332 9.12809C67.9978 9.09544 67.7916 9.17277 67.5853 9.28447C67.3654 9.40476 67.1128 9.49583 66.9495 9.69173C66.7914 9.8842 66.9942 10.2141 67.2348 10.0612C67.3894 9.96324 67.5424 9.86873 67.6867 9.75532C67.8379 9.63331 67.9892 9.43569 68.1954 9.41335C68.3414 9.39788 68.4102 9.15387 68.2332 9.12809Z" fill="#3B170F"/>
<path d="M68.2504 9.88592C68.1163 10.0062 67.9514 9.9031 67.8654 10.1024C67.8328 10.1781 67.8878 10.2794 67.9806 10.2519C68.1576 10.1987 68.3105 10.2176 68.4617 10.099C68.6095 9.98043 68.3947 9.75532 68.2504 9.88592Z" fill="#3B170F"/>
<path d="M62.3031 5.50223C61.8941 5.62423 61.5676 5.91808 61.2497 6.19131C61.0881 6.33222 60.9232 6.48001 60.7977 6.65529C60.6654 6.84259 60.6173 7.06427 60.5107 7.26705C60.4489 7.38218 60.5795 7.54027 60.7015 7.45779C60.9988 7.25673 61.1363 6.834 61.3682 6.56249C61.6483 6.23427 61.968 5.81842 62.3546 5.62595C62.4234 5.59158 62.3752 5.47989 62.3031 5.50223Z" fill="#3B170F"/>
<path d="M47.3081 27.4705C47.3132 27.4533 47.3184 27.4379 47.3252 27.4224C47.3373 27.3812 47.3012 27.333 47.2582 27.3348C46.0381 27.4052 45.0277 28.6064 43.9829 29.1236C43.9056 29.1632 43.9606 29.2972 44.0431 29.2663C44.5156 29.0893 44.8868 28.8985 45.2786 28.5841C45.5621 28.3589 45.8594 28.1665 46.1722 27.986C46.3423 27.8881 47.0658 27.3726 47.2668 27.4877C47.2823 27.4963 47.3029 27.4877 47.3081 27.4705Z" fill="#3B170F"/>
<path d="M48.1448 27.5994C47.5709 27.5444 47.0536 27.962 46.5914 28.2524C45.9745 28.639 45.3524 29.091 44.8283 29.5979C44.763 29.6615 44.8523 29.7852 44.928 29.7268C45.4521 29.3316 45.959 28.9071 46.5158 28.5566C47.0313 28.2301 47.5468 27.8125 48.162 27.7214C48.2376 27.7111 48.2101 27.6046 48.1448 27.5994Z" fill="#3B170F"/>
<path d="M48.8511 27.4155C47.7427 28.0531 46.7546 28.8848 45.6428 29.5189C45.5637 29.5635 45.617 29.6993 45.7064 29.6701C46.3594 29.4467 46.9711 29.0738 47.5348 28.682C48.0262 28.34 48.5521 28.0067 48.9937 27.6011C49.0951 27.51 48.9662 27.3485 48.8511 27.4155Z" fill="#3B170F"/>
<path d="M50.0969 27.7197C49.5453 28.0479 49.0023 28.3899 48.4559 28.7232C48.0692 28.9587 47.5588 29.1597 47.2392 29.4828C47.1945 29.5275 47.2547 29.6134 47.3097 29.5739C47.7066 29.2869 48.2153 29.0927 48.638 28.8332C49.1553 28.5136 49.6639 28.1837 50.1846 27.8692C50.2791 27.8125 50.1932 27.6613 50.0969 27.7197Z" fill="#3B170F"/>
<path d="M51.6763 27.5753C51.3137 27.8383 50.9167 28.0513 50.5662 28.3297C50.1692 28.6476 49.7894 28.969 49.3701 29.2577C49.2859 29.3144 49.3581 29.4295 49.4475 29.39C49.8547 29.2147 50.1933 28.9002 50.5318 28.6201C50.9287 28.2919 51.3566 28.0067 51.7587 27.6819C51.8172 27.6338 51.7381 27.5307 51.6763 27.5753Z" fill="#3B170F"/>
<path d="M52.8259 27.687C52.4513 27.9929 51.9993 28.1716 51.6196 28.4655C51.4855 28.5686 51.3687 28.6975 51.226 28.7868C51.0164 28.9174 50.7792 28.9948 50.5713 29.1322C50.5112 29.1718 50.549 29.2869 50.6229 29.256C51.0387 29.0893 51.3395 28.9312 51.6745 28.6425C52.056 28.3108 52.5269 28.1046 52.9084 27.7695C52.9651 27.7197 52.8826 27.6406 52.8259 27.687Z" fill="#3B170F"/>
<path d="M53.7006 27.8297C53.4995 28.0359 53.2486 28.1785 53.0338 28.3658C52.8207 28.5514 52.6265 28.7542 52.41 28.9329C52.3361 28.993 52.4306 29.1099 52.5097 29.0618C52.7503 28.9157 52.941 28.7336 53.13 28.5239C53.3311 28.3022 53.5768 28.1287 53.7624 27.8915C53.7951 27.8486 53.7401 27.7884 53.7006 27.8297Z" fill="#3B170F"/>
<path d="M54.8449 27.9328C54.6094 28.0307 54.362 28.1682 54.1884 28.3589C54.1008 28.4552 54.0321 28.5651 53.9393 28.6562C53.831 28.761 53.733 28.8178 53.6437 28.9398C53.5767 29.0308 53.7004 29.1168 53.7829 29.079C54.02 28.969 54.1558 28.8315 54.319 28.627C54.4943 28.407 54.7297 28.2541 54.905 28.0393C54.9394 27.9963 54.9102 27.907 54.8449 27.9328Z" fill="#3B170F"/>
<path d="M55.6201 28.3933C55.3262 28.5531 54.6148 28.603 54.6921 29.0858C54.7041 29.1563 54.7952 29.1803 54.8485 29.1494C55.0083 29.0601 55.1114 28.8968 55.2781 28.8023C55.4328 28.7147 55.584 28.6373 55.7146 28.5136C55.7799 28.4535 55.6957 28.3521 55.6201 28.3933Z" fill="#3B170F"/>
<path d="M56.3161 28.517C56.1717 28.6494 56.0205 28.7507 55.8486 28.8401C55.7301 28.9002 55.6373 28.969 55.56 29.079C55.5342 29.1168 55.5359 29.1769 55.56 29.2147C55.5651 29.2233 55.5703 29.2319 55.5754 29.2405C55.5995 29.2766 55.6424 29.2955 55.6854 29.2835C55.8074 29.2525 55.9294 29.1219 56.0377 29.0497C56.1992 28.9415 56.3367 28.8143 56.4656 28.6683C56.5566 28.5651 56.4174 28.4242 56.3161 28.517Z" fill="#3B170F"/>
<path d="M56.6649 28.8676C56.5068 29.0205 56.1528 29.1116 56.1373 29.3556C56.1304 29.4484 56.2284 29.5017 56.3074 29.4845C56.5411 29.4398 56.7817 29.1511 56.8058 28.9243C56.8144 28.8504 56.713 28.8212 56.6649 28.8676Z" fill="#3B170F"/>
<path d="M57.3969 29.2903C57.3556 29.3745 57.2336 29.3951 57.1804 29.4793C57.1425 29.5395 57.1941 29.6048 57.256 29.6099C57.4244 29.6237 57.5429 29.4879 57.5223 29.3247C57.5155 29.2645 57.4295 29.2216 57.3969 29.2903Z" fill="#3B170F"/>
<path d="M58.1872 29.3986C58.1219 29.3986 58.1047 29.4003 58.0411 29.4106C57.9947 29.4175 57.9947 29.4965 58.0411 29.5034C58.1047 29.5137 58.1219 29.5154 58.1872 29.5154C58.2611 29.5154 58.2611 29.3986 58.1872 29.3986Z" fill="#3B170F"/>
<path d="M58.1907 29.5893C58.1907 29.677 58.1941 29.6873 58.256 29.7474C58.3024 29.7921 58.3849 29.7474 58.366 29.6821C58.3643 29.6701 58.3608 29.6581 58.3574 29.646C58.3505 29.6237 58.3213 29.61 58.3007 29.6237C58.2904 29.6306 58.2801 29.6357 58.2697 29.6426C58.299 29.6512 58.3299 29.6598 58.3608 29.6667C58.3454 29.6357 58.3299 29.6048 58.3127 29.5739C58.2938 29.5068 58.189 29.5172 58.1907 29.5893Z" fill="#3B170F"/>
<path d="M62.4265 30.5809C65.6211 31.5002 68.7383 32.8509 71.7558 34.2205C71.9002 34.2858 72.0239 34.0882 71.883 34.004C69.0734 32.3474 65.695 30.9675 62.4592 30.4606C62.3819 30.4485 62.3458 30.5585 62.4265 30.5809Z" fill="#3B170F"/>
<path d="M53.8157 68.4531C50.4321 69.1096 46.6877 69.8949 43.2405 69.1508C43.1563 69.1319 43.1202 69.2556 43.2044 69.2797C46.6206 70.2523 50.4733 69.2797 53.85 68.5751C53.9291 68.558 53.8947 68.4394 53.8157 68.4531Z" fill="#3B170F"/>
<path d="M49.6691 70.0341C49.3031 70.1801 48.8804 70.2747 48.492 70.352C48.2188 70.4053 47.8356 70.352 47.6019 70.5255C47.552 70.5616 47.5933 70.6338 47.6517 70.608C47.9679 70.4637 48.3941 70.4843 48.7326 70.3881C49.0557 70.2953 49.3873 70.2265 49.6966 70.0959C49.731 70.0805 49.7052 70.0186 49.6691 70.0341Z" fill="#3B170F"/>
<path d="M49.4388 70.4998C49.1123 70.6424 48.748 70.6733 48.4267 70.8297C48.3304 70.8761 48.3854 71.0136 48.4782 71.0187C48.8357 71.0394 49.2343 70.8383 49.5179 70.6338C49.5986 70.5737 49.5299 70.4602 49.4388 70.4998Z" fill="#3B170F"/>
<path d="M49.4096 70.95C49.2652 71.0187 49.1226 71.0978 48.9662 71.1425C48.8528 71.1768 48.7652 71.1837 48.669 71.2593C48.6243 71.2954 48.6483 71.3607 48.6861 71.3882C48.9319 71.5652 49.3202 71.2937 49.5471 71.1837C49.7034 71.1081 49.566 70.8761 49.4096 70.95Z" fill="#3B170F"/>
<path d="M49.2963 71.6013C49.1571 71.6236 49.0179 71.6425 48.889 71.701C48.8254 71.7302 48.8495 71.8247 48.9079 71.8419C49.0488 71.8865 49.1829 71.8505 49.3289 71.8384C49.5025 71.8247 49.4716 71.5721 49.2963 71.6013Z" fill="#3B170F"/>
<path d="M99.3143 26.07C99.5721 27.7437 99.6494 29.3917 99.713 31.0809C99.7628 32.4178 99.9707 33.9713 99.7181 35.2962C99.6941 35.4216 99.847 35.4869 99.9209 35.3821C100.622 34.3665 100.211 32.5106 100.129 31.3851C99.9965 29.5584 99.8229 27.8262 99.4449 26.0339C99.4277 25.948 99.3023 25.9858 99.3143 26.07Z" fill="#DA6A2E"/>
<path d="M99.0187 34.5246C98.9207 34.8614 99.0049 35.2412 99.0032 35.5883C99.0015 35.8616 98.9671 36.0918 98.8932 36.3547C98.8726 36.4286 98.9448 36.4991 99.0187 36.4785C99.2902 36.4046 99.3228 36.109 99.3245 35.8667C99.3245 35.4388 99.316 34.9319 99.1871 34.5246C99.1613 34.4439 99.0427 34.4421 99.0187 34.5246Z" fill="#DA6A2E"/>
<path d="M98.3777 35.3821C98.3537 35.5986 98.364 35.798 98.3692 36.0128C98.3726 36.2035 98.3142 36.3977 98.3795 36.5781C98.4207 36.6898 98.5616 36.6864 98.6029 36.5781C98.7421 36.2207 98.5427 35.7275 98.4929 35.3667C98.4826 35.2962 98.3846 35.322 98.3777 35.3821Z" fill="#DA6A2E"/>
<path d="M97.9962 36.4372C97.998 36.5541 98.0151 36.6692 98.0134 36.7861C98.0134 36.9012 97.9636 36.994 97.955 37.104C97.9516 37.1504 97.9997 37.1968 98.0478 37.1951C98.3485 37.1813 98.2179 36.6177 98.2093 36.4372C98.2025 36.3015 97.9945 36.2998 97.9962 36.4372Z" fill="#DA6A2E"/>
<path d="M97.7438 37.3257C97.7386 37.4339 97.6939 37.4975 97.7077 37.6023C97.7128 37.6487 97.7764 37.6951 97.8142 37.647C97.8916 37.5491 97.9139 37.4511 97.907 37.3257C97.9019 37.2191 97.7472 37.2191 97.7438 37.3257Z" fill="#DA6A2E"/>
<path d="M97.1542 38.1591C97.1474 38.1883 97.1422 38.2175 97.1353 38.2467C97.113 38.3206 97.1955 38.3705 97.2556 38.3395C97.3381 38.3 97.3501 38.2742 97.3811 38.1883C97.4361 38.0405 97.168 37.9787 97.1542 38.1591Z" fill="#DA6A2E"/>
<path d="M102.181 38.3722C102.081 38.8396 101.22 39.5527 100.895 39.8844C100.369 40.4205 99.8229 40.9412 99.2799 41.4602C98.1629 42.5273 96.9067 43.3161 95.6952 44.2492C95.5457 44.3643 95.6695 44.5946 95.8465 44.5069C97.4051 43.7422 98.5994 42.6665 99.7937 41.4189C100.373 40.8123 100.952 40.2092 101.469 39.5476C101.72 39.228 102.224 38.7932 102.246 38.3808C102.248 38.343 102.187 38.3344 102.181 38.3722Z" fill="#DA6A2E"/>
<path d="M98.6869 43.2405C97.6198 44.275 96.3395 44.9864 94.9768 45.5432C94.9098 45.5706 94.9356 45.6772 95.0078 45.6548C96.4272 45.2252 97.7194 44.3712 98.7419 43.2955C98.7745 43.2594 98.723 43.2044 98.6869 43.2405Z" fill="#DA6A2E"/>
<path d="M94.8208 46.3714C94.7159 46.478 94.6266 46.5622 94.4788 46.5983C94.4204 46.6137 94.4272 46.6928 94.4788 46.71C94.6816 46.7804 94.8104 46.6309 94.9445 46.4934C95.0218 46.4144 94.8998 46.2907 94.8208 46.3714Z" fill="#DA6A2E"/>
<path d="M94.0661 47.0055C94.0386 47.0227 94.0094 47.0399 93.9819 47.0571C93.9269 47.0743 93.951 47.1482 94.0043 47.1413C94.0867 47.1292 94.0644 47.1378 94.1314 47.0897C94.1933 47.0433 94.1211 46.9523 94.0661 47.0055Z" fill="#DA6A2E"/>
<path d="M87.483 10.6575C87.5552 10.5458 87.8748 10.6455 87.9693 10.6867C88.2099 10.7898 88.667 11.1335 88.679 11.417C88.7065 11.3809 88.734 11.3449 88.7615 11.3088C88.3937 11.4548 88.0312 11.3363 87.6995 11.1575C87.5723 11.0888 87.4417 11.0166 87.3249 10.9307C87.2424 10.8723 87.1668 10.8053 87.0981 10.7314C87.0981 10.5131 87.196 10.4272 87.3936 10.4719C87.7545 10.4874 88.1704 10.7554 88.4092 11.0184C88.4281 11.039 88.6601 11.3225 88.6343 11.3913C88.5862 11.5219 88.1411 11.393 88.0672 11.3672C87.8095 11.2761 87.2355 11.0166 87.1341 10.752C87.0517 10.6798 87.0671 10.63 87.1823 10.6008C87.3008 10.5716 87.4194 10.5802 87.5363 10.6231C87.6978 10.6644 87.8885 10.7193 88.0363 10.7915C88.1136 10.8293 88.4281 11.008 88.4041 11.0974C88.3663 11.2417 88.1377 11.149 88.0449 11.1232C87.8834 11.0785 87.3352 10.8603 87.2802 10.6506C87.263 10.6833 87.2441 10.7142 87.2269 10.7468C87.6101 10.6283 88.0724 10.8293 88.2494 11.2005C88.2597 11.161 88.27 11.1215 88.2803 11.0837C88.0947 11.1713 87.8731 11.1043 87.7047 11.0149C87.66 10.9909 87.3971 10.8465 87.4039 10.8036C87.4228 10.6987 87.6978 10.8225 87.7356 10.8414C87.9281 10.9376 88.0913 11.118 88.2133 11.2967C88.2339 11.2469 88.2528 11.1954 88.2735 11.1455C88.1171 11.1988 87.5741 10.9909 87.5242 10.7846C87.4899 10.8276 87.4572 10.8706 87.4228 10.9152C87.6084 10.8998 87.7682 10.9531 87.9195 11.0562C87.9401 11.0699 88.203 11.2366 88.0088 11.1438C87.8645 11.0768 87.5998 10.8396 87.9246 10.9668C88.0088 10.9995 88.093 11.0476 88.1686 11.0957C88.2374 11.1404 88.4453 11.2074 88.27 11.1868C88.0191 11.1593 87.7115 10.9256 87.5758 10.7383C87.5431 10.7932 87.5122 10.8482 87.4795 10.9049C87.7253 10.8843 88.1996 11.0476 88.3113 11.2796C88.3216 11.2383 88.3319 11.1988 88.3422 11.1593C88.2631 11.1954 87.7236 11.1077 87.7459 10.984C87.7579 10.9101 88.5398 11.2452 88.6309 11.3431C88.6378 11.3002 88.6429 11.2572 88.6481 11.2143C88.4333 11.3552 87.9401 10.984 87.7974 10.8671C87.7734 10.9256 87.7493 10.984 87.7253 11.0407C87.849 11.0527 87.9298 11.1111 87.971 11.2177C88.0208 11.1679 88.0707 11.118 88.1205 11.0682C88.0621 11.0338 88.0088 10.9909 87.9641 10.9393C87.947 11.0029 87.9298 11.0648 87.9143 11.1266C87.9384 11.1386 87.9607 11.1507 87.9848 11.161C88.038 11.1094 88.0896 11.0562 88.1429 11.0046C88.1154 10.9909 88.0879 10.9788 88.0604 10.9651C87.9246 10.9015 87.8078 11.106 87.9418 11.1661C87.971 11.1782 87.9985 11.1902 88.026 11.2022C88.1205 11.2452 88.2545 11.1507 88.1841 11.0458C88.1085 10.9324 87.9899 10.8585 87.8542 10.9118C87.7751 10.9427 87.7459 11.0304 87.8043 11.0974C87.8662 11.1661 87.9332 11.2074 88.0105 11.2555C88.1085 11.3191 88.203 11.1988 88.1583 11.1077C88.0758 10.929 87.8937 10.8139 87.6978 10.8414C87.6016 10.8551 87.6136 10.9823 87.6737 11.0269C87.9057 11.1988 88.4298 11.5545 88.7306 11.3569C88.7752 11.326 88.7855 11.2675 88.7477 11.2263C88.49 10.9531 87.9848 10.8379 87.629 10.7967C87.5826 10.7915 87.55 10.831 87.5345 10.8671C87.3713 11.2624 88.1927 11.4359 88.4315 11.3105C88.4762 11.2881 88.4814 11.2314 88.4625 11.1902C88.3164 10.8809 87.8043 10.6712 87.4795 10.6833C87.4039 10.6867 87.3335 10.7778 87.385 10.8499C87.4916 11.0012 88.5106 11.7831 88.5742 11.2555C88.5982 11.0544 88.27 10.8998 88.1291 10.8276C87.9177 10.7176 87.6342 10.6042 87.428 10.7743C87.3988 10.8001 87.3902 10.8482 87.4005 10.8826C87.4606 11.106 88.1188 11.6731 88.3284 11.3758C88.435 11.228 88.282 11.0699 88.1755 10.9771C87.9538 10.7846 87.7184 10.6781 87.4228 10.7073C87.3575 10.7142 87.3043 10.7692 87.3232 10.8396C87.4091 11.1558 88.0346 11.4445 88.3284 11.3449C88.3886 11.3242 88.4298 11.2521 88.3903 11.1936C88.203 10.9118 87.9813 10.6936 87.6565 10.5836C87.4916 10.5269 87.1909 10.4822 87.1599 10.7348C87.1341 10.9427 87.4366 11.0905 87.5844 11.1679C87.8267 11.295 88.1119 11.3569 88.3663 11.2314C88.4092 11.2091 88.4161 11.1524 88.3972 11.1146C88.1824 10.6798 87.6376 10.453 87.1857 10.5973C87.1444 10.6094 87.1187 10.6506 87.1307 10.6919C87.208 10.9737 88.5295 11.661 88.6 11.1679C88.636 10.9152 88.1772 10.6695 88.0088 10.6025C87.7098 10.4822 87.1651 10.2726 86.8987 10.5681C86.8747 10.5939 86.8643 10.6369 86.885 10.6678C87.1204 11.0201 87.3885 11.2143 87.77 11.4136C88.0191 11.5442 88.4436 11.7263 88.7185 11.5476C89.155 11.2658 88.1532 10.5338 87.9521 10.4221C87.6823 10.2743 87.3214 10.1729 87.0242 10.3001C86.7509 10.4152 86.7423 10.6592 86.9039 10.8792C87.3008 11.4187 88.2202 11.783 88.8491 11.515C88.8818 11.5012 88.9075 11.4531 88.9041 11.417C88.8749 10.9891 88.3937 10.6437 88.0209 10.5011C87.8353 10.4289 87.4589 10.3654 87.385 10.6162C87.3678 10.6764 87.4503 10.7073 87.483 10.6575Z" fill="#DA6A2E"/>
<path d="M85.5601 9.66424C85.8385 9.77422 85.3092 9.76047 85.3917 9.61612C85.4553 9.50271 85.6941 9.82577 85.7216 9.8842C85.7302 9.8567 85.7371 9.82749 85.744 9.79999C85.6099 9.9031 85.4106 9.75188 85.347 9.63159C85.3419 9.66424 85.3384 9.69689 85.335 9.72954C85.3814 9.67283 85.6546 9.73469 85.6374 9.81718C85.6701 9.79312 85.701 9.77078 85.732 9.74672C85.5687 9.76219 85.3264 9.6883 85.2697 9.51474C85.2542 9.55426 85.2388 9.59378 85.2216 9.63331C85.3951 9.50099 85.7148 9.7536 85.7783 9.88591C85.8007 9.83093 85.823 9.77594 85.8454 9.72095C85.7612 9.74501 85.3883 9.58176 85.3436 9.4924C85.3212 9.55082 85.2972 9.60753 85.2731 9.66596C85.3556 9.65393 85.7199 9.75875 85.7474 9.88591C85.7766 9.83608 85.8058 9.78453 85.8351 9.73469C85.6941 9.7725 85.591 9.72267 85.4656 9.6883C85.378 9.66424 85.2439 9.65393 85.414 9.69173C85.5189 9.71407 85.6649 9.76047 85.7354 9.84811C85.7251 9.80859 85.7148 9.77078 85.7044 9.73126C85.6976 9.74844 85.4948 9.58004 85.4707 9.5577C85.3728 9.46146 85.2267 9.60753 85.3212 9.7072C85.4656 9.86186 85.7835 10.1334 85.9227 9.82405C85.9399 9.78625 85.9502 9.73985 85.9227 9.70376C85.7955 9.52848 85.3281 9.28103 85.1408 9.48724C85.036 9.60238 85.103 9.76391 85.2147 9.84467C85.4037 9.98215 85.6804 10.0371 85.9004 9.97356C85.9657 9.95465 86.0017 9.88591 85.9863 9.82061C85.9227 9.54395 85.4501 9.3996 85.2113 9.43741C85.1305 9.45115 85.1082 9.55082 85.1391 9.61269C85.2044 9.73813 85.3625 9.77594 85.4776 9.84295C85.6185 9.92888 85.7405 9.98902 85.9055 9.93747C85.9777 9.91513 86.0069 9.83952 85.9725 9.7725C85.835 9.50099 85.3659 9.25182 85.0927 9.46834C85.0652 9.48896 85.0549 9.53879 85.0652 9.57144C85.1597 9.84467 85.4845 9.98043 85.7577 9.93747C85.7869 9.93403 85.8213 9.89966 85.8265 9.87045C85.8677 9.58175 85.3745 9.40476 85.2095 9.63159C85.1924 9.65393 85.1958 9.69002 85.2095 9.71236C85.3264 9.90482 85.6254 10.0646 85.8196 9.89794C85.8402 9.87904 85.8419 9.84467 85.8299 9.82233C85.7526 9.68314 85.6013 9.52161 85.4364 9.4924C85.3487 9.47693 85.2336 9.49411 85.2405 9.60066C85.2525 9.78968 85.701 9.93231 85.7818 9.72782C85.7869 9.71235 85.7766 9.69517 85.7646 9.68658C85.7045 9.64362 85.6495 9.62471 85.579 9.60066C85.5378 9.58519 85.5206 9.64877 85.5601 9.66424Z" fill="#DA6A2E"/>
<path d="M94.4392 27.3159C94.3515 27.4276 94.2639 27.5444 94.1608 27.6458C94.1299 27.675 93.9443 27.7833 93.9443 27.8108C93.9443 27.7575 94.0302 27.7008 94.068 27.6681C94.1264 27.6166 94.4787 27.2592 94.5045 27.2712C94.4942 27.2454 94.4839 27.2179 94.4718 27.1904C94.4048 27.4344 94.1368 27.7884 93.8652 27.8142C93.8945 27.8365 93.9237 27.8589 93.9529 27.8812C93.9202 27.742 94.1814 27.596 94.2656 27.5238C94.4048 27.4035 94.5079 27.2454 94.6712 27.1543C94.6179 27.1406 94.5629 27.1251 94.5096 27.1114C94.5664 27.2299 94.4203 27.3691 94.3395 27.4396C94.3051 27.4705 94.2209 27.5186 94.1986 27.553C94.1522 27.565 94.1453 27.5839 94.1797 27.6114C94.1952 27.6544 94.2072 27.6527 94.2175 27.608C94.2656 27.5857 94.3515 27.4207 94.3979 27.3726C94.4461 27.3227 94.4959 27.266 94.5595 27.2368C94.4925 27.2093 94.4237 27.1801 94.355 27.1526C94.3876 27.3519 94.1539 27.486 94.0079 27.5272C94.08 27.5702 94.1539 27.6114 94.2278 27.6527C94.2175 27.5857 94.4048 27.4585 94.4512 27.4276C94.3481 27.3674 94.2433 27.3073 94.1385 27.2488C94.1247 27.3588 94.0835 27.4619 94.0663 27.5702C94.0543 27.6441 94.1127 27.7317 94.1969 27.7025C94.3756 27.6389 94.4804 27.4722 94.5474 27.3038C94.6162 27.1303 94.3859 26.9808 94.2416 27.0684C94.0199 27.2024 93.7673 27.4654 93.8824 27.7489C93.9254 27.8554 94.0354 27.9173 94.1453 27.8554C94.4168 27.7059 94.6849 27.4138 94.6248 27.0787C94.6076 26.9842 94.4925 26.9584 94.4203 26.9962C94.2364 27.0873 93.7037 27.651 94.0354 27.8262C94.2124 27.919 94.3997 27.7283 94.5165 27.6166C94.6866 27.4568 94.8293 27.2231 94.7124 26.9928C94.6849 26.9378 94.6042 26.9206 94.5526 26.9516C94.3395 27.0787 94.1831 27.297 93.9993 27.4636C93.8687 27.5805 93.7157 27.7386 93.7776 27.9293C93.7948 27.9792 93.8395 28.0015 93.8893 27.9929C94.2175 27.9362 94.5303 27.5358 94.6093 27.2282C94.6196 27.1887 94.5956 27.156 94.5595 27.1423C94.367 27.0598 94.1986 27.3949 94.0783 27.4946C93.9529 27.5994 93.7226 27.7609 93.867 27.9362C93.8859 27.9586 93.9185 27.9568 93.9408 27.9448C94.1934 27.8228 94.3584 27.5994 94.5217 27.3794C94.5578 27.3313 94.4753 27.2677 94.4392 27.3159Z" fill="#DA6A2E"/>
<path d="M100.515 51.2088C100.715 51.2088 100.809 51.3995 100.995 51.4305C101.04 51.4373 101.081 51.3858 101.041 51.3497C100.894 51.2122 100.725 51.0644 100.515 51.0644C100.421 51.0644 100.421 51.2105 100.515 51.2088Z" fill="#DA6A2E"/>
<path d="M99.9603 51.5232C100.127 51.5181 100.163 51.7346 100.345 51.6865C100.393 51.6728 100.404 51.604 100.359 51.58C100.215 51.4992 100.139 51.3583 99.9603 51.3686C99.8624 51.3737 99.8607 51.525 99.9603 51.5232Z" fill="#DA6A2E"/>
<path d="M99.2456 51.8876C99.2748 52.0886 99.4793 52.0388 99.6253 52.1075C99.6717 52.1299 99.725 52.0835 99.6975 52.0353C99.6099 51.8738 99.4226 51.9666 99.3092 51.8498C99.2799 51.8188 99.2404 51.8515 99.2456 51.8876Z" fill="#DA6A2E"/>
<path d="M98.986 52.0319C98.888 52.1745 98.6028 52.5509 98.974 52.556C99.0341 52.556 99.0633 52.4667 99.0066 52.4392C98.8537 52.3653 99.0324 52.1831 99.0857 52.0903C99.1235 52.025 99.0272 51.9718 98.986 52.0319Z" fill="#DA6A2E"/>
<path d="M98.3589 52.9667C98.3796 52.9667 98.4002 52.965 98.4208 52.9633C98.4689 52.9581 98.4706 52.8894 98.4208 52.886C98.4002 52.8842 98.3796 52.8825 98.3589 52.8808C98.3022 52.8757 98.3022 52.9719 98.3589 52.9667Z" fill="#DA6A2E"/>
<path d="M97.8037 53.6025C97.8845 53.6025 97.8845 53.4771 97.8037 53.4771C97.723 53.4771 97.723 53.6025 97.8037 53.6025Z" fill="#DA6A2E"/>
<path d="M70.1629 37.7621C67.9788 35.7808 64.6605 34.7944 61.765 34.6587C61.7203 34.657 61.7117 34.724 61.7547 34.7343C64.6244 35.4646 67.7348 35.8564 70.1423 37.7828C70.156 37.7948 70.1766 37.7759 70.1629 37.7621Z" fill="#DA6A2E"/>
<path d="M60.9815 34.5659C60.6928 34.5401 60.4196 34.3769 60.1292 34.4233C60.0656 34.4336 60.0879 34.5212 60.1429 34.5264C60.4179 34.5539 60.7031 34.6106 60.9815 34.6054C61.0073 34.6054 61.0056 34.5693 60.9815 34.5659Z" fill="#DA6A2E"/>
<path d="M58.3007 34.181C53.7572 33.2375 49.0573 33.2994 44.4296 33.2152C44.3918 33.2135 44.3935 33.2702 44.4296 33.2719C49.0401 33.6293 53.7193 33.5383 58.2938 34.2084C58.311 34.2102 58.3196 34.1844 58.3007 34.181Z" fill="#DA6A2E"/>
<path d="M50.322 48.6449C50.5746 48.7446 50.8496 48.8528 51.0902 48.9783C51.2551 49.0642 51.3926 49.1828 51.5851 49.1914C51.6246 49.1931 51.628 49.1364 51.5937 49.1243C51.3926 49.059 51.2173 48.9387 51.0197 48.8666C50.7912 48.7806 50.5643 48.6861 50.3323 48.6071C50.3083 48.5985 50.2997 48.6346 50.322 48.6449Z" fill="#E9DDC7"/>
<path d="M50.3033 48.3287C50.4425 48.4043 50.58 48.4816 50.7278 48.5401C50.8601 48.5933 51.013 48.626 51.1333 48.7033C51.1677 48.7257 51.1969 48.6775 51.1729 48.65C50.9855 48.4232 50.6075 48.3665 50.3515 48.2445C50.2965 48.2187 50.2483 48.2978 50.3033 48.3287Z" fill="#E9DDC7"/>
<path d="M50.1676 48.0538C50.3428 48.0933 50.5095 48.1242 50.6711 48.205C50.7553 48.2462 50.812 48.2789 50.9082 48.2823C50.9563 48.284 50.9666 48.2084 50.9202 48.1964C50.8137 48.1689 50.7346 48.0864 50.6332 48.0452C50.4975 47.9885 50.3428 47.973 50.1985 47.9403C50.1263 47.9249 50.0937 48.0366 50.1676 48.0538Z" fill="#E9DDC7"/>
<path d="M50.3377 47.6774C50.4373 47.7204 50.537 47.7633 50.6367 47.8046C50.7037 47.8338 50.7621 47.7444 50.6951 47.7049C50.6023 47.6516 50.5078 47.5967 50.415 47.5434C50.3273 47.4918 50.2483 47.6396 50.3377 47.6774Z" fill="#E9DDC7"/>
<path d="M50.0712 47.0811C50.2052 47.1224 50.3341 47.1533 50.4733 47.1653C50.5162 47.1688 50.5266 47.0966 50.4836 47.0897C50.3478 47.0691 50.2258 47.0279 50.1004 46.978C50.0368 46.954 50.0059 47.0605 50.0712 47.0811Z" fill="#E9DDC7"/>
<path d="M49.6881 46.3474C49.8565 46.3766 50.0128 46.4591 50.183 46.4797C50.2173 46.4831 50.219 46.4316 50.1898 46.4213C50.0094 46.356 49.9011 46.2735 49.6984 46.2615C49.6502 46.258 49.6382 46.3388 49.6881 46.3474Z" fill="#E9DDC7"/>
<path d="M49.9234 45.9831C50.0025 45.9985 50.054 46.0174 50.1348 46.0106C50.1795 46.0054 50.1984 45.935 50.1451 45.9246C50.0867 45.9075 50.03 45.8851 49.975 45.8593C49.8805 45.8198 49.8306 45.9659 49.9234 45.9831Z" fill="#E9DDC7"/>
<path d="M36.2223 58.7939C36.2275 58.7801 36.2326 58.7664 36.2378 58.7526C36.2635 58.677 36.1759 58.6341 36.1158 58.6599C35.5813 58.8884 35.1105 59.2372 34.6688 59.6119C34.1396 60.0586 33.5587 60.4968 33.1429 61.057C33.0948 61.1223 33.191 61.2169 33.2546 61.1687C33.5244 60.9694 36.078 58.7578 36.1089 58.8094C36.1364 58.8592 36.2051 58.8437 36.2223 58.7939Z" fill="#DA6A2E"/>
<path d="M36.2602 59.4074C35.9475 59.6548 35.6399 59.8937 35.3134 60.1257C35.0161 60.337 34.76 60.6292 34.4387 60.8027C34.3734 60.8371 34.4198 60.9299 34.4868 60.9179C34.8563 60.844 35.1518 60.4367 35.4474 60.2219C35.7636 59.9916 36.054 59.751 36.3547 59.5019C36.4235 59.4469 36.3272 59.3541 36.2602 59.4074Z" fill="#DA6A2E"/>
<path d="M35.9974 60.16C35.8119 60.3061 35.6245 60.4539 35.4407 60.6017C35.3255 60.6945 35.1967 60.7787 35.1657 60.9316C35.1571 60.9746 35.1778 61.021 35.2224 61.033C35.3702 61.0725 35.4733 60.9574 35.585 60.8732C35.7878 60.7202 35.9923 60.569 36.1968 60.4178C36.3875 60.2786 36.1865 60.0123 35.9974 60.16Z" fill="#DA6A2E"/>
<path d="M36.5112 60.5965C36.2774 60.7443 35.5884 60.758 35.6623 61.1653C35.6708 61.21 35.7258 61.2237 35.7619 61.2048C35.9063 61.1275 36.0609 61.0639 36.2018 60.9797C36.3324 60.9007 36.494 60.8233 36.6039 60.7185C36.6675 60.6584 36.585 60.5484 36.5112 60.5965Z" fill="#DA6A2E"/>
<path d="M36.7328 61.1859C36.6056 61.3011 36.4699 61.4042 36.3565 61.5331C36.3118 61.5846 36.3547 61.6602 36.4218 61.6465C36.5987 61.6104 36.7311 61.4265 36.8496 61.3011C36.9218 61.2237 36.8118 61.1138 36.7328 61.1859Z" fill="#DA6A2E"/>
<path d="M36.8394 61.8235C36.8256 61.8578 36.8119 61.8922 36.7981 61.9283C36.7586 61.9661 36.7999 62.0451 36.8549 62.0245C36.9425 61.9936 36.97 61.9541 37.0198 61.8716C37.0972 61.7462 36.86 61.6534 36.8394 61.8235Z" fill="#DA6A2E"/>
<path d="M37.3574 116.646H31.3457L36.4258 126L33 126.789L22 103.375L36.4258 101.406C39.3086 101.406 41.5234 102.062 43.0703 103.375C44.6289 104.688 45.4082 106.598 45.4082 109.105C45.4082 110.699 44.9746 112.088 44.1074 113.271C43.252 114.455 42.0566 115.34 40.5215 115.926L46.5332 126.789V127H42.9121L37.3574 116.646ZM31.3457 113.887H36.5312C38.207 113.887 39.5371 113.453 40.5215 112.586C41.5176 111.719 42.0156 110.559 42.0156 109.105C42.0156 107.523 41.541 106.311 40.5918 105.467C39.6543 104.623 38.2949 104.195 36.5137 104.184L26 105.467L31.3457 113.887Z" fill="white"/>
<path d="M53.1777 127H49.9258V107.98H53.1777V127ZM49.6621 102.936C49.6621 102.408 49.8203 101.963 50.1367 101.6C50.4648 101.236 50.9453 101.055 51.5781 101.055C52.2109 101.055 52.6914 101.236 53.0195 101.6C53.3477 101.963 53.5117 102.408 53.5117 102.936C53.5117 103.463 54.8281 105.115 54.5 105.467C54.1719 105.818 52.2109 104.781 51.5781 104.781C50.9453 104.781 50.4648 104.605 50.1367 104.254C49.8203 103.902 49.6621 103.463 49.6621 102.936Z" fill="white"/>
<path d="M57.6074 117.332C57.6074 114.414 58.2988 112.07 59.6816 110.301C61.0645 108.52 62.875 107.629 65.1133 107.629C67.3398 107.629 69.1035 108.391 70.4043 109.914V100H73.6562L76 126.789L70.5098 124.961C69.209 126.555 67.3984 127.352 65.0781 127.352C62.875 127.352 61.0762 126.449 59.6816 124.645C58.2988 122.84 57.6074 120.484 57.6074 117.578V117.332ZM60.8594 117.701C60.8594 119.857 61.3047 121.545 62.1953 122.764C63.0859 123.982 64.3164 124.592 65.8867 124.592C67.9492 124.592 69.4551 123.666 70.4043 121.814V113.078C69.4316 111.285 67.9375 110.389 65.9219 110.389C64.3281 110.389 63.0859 111.004 62.1953 112.234C61.3047 113.465 60.8594 115.287 60.8594 117.701Z" fill="white"/>
<path d="M86.6113 127.352C84.0332 127.352 81.9355 126.508 80.3184 124.82C78.7012 123.121 77.8926 120.854 77.8926 118.018V117.42C77.8926 115.533 78.25 113.852 78.9648 112.375C79.6914 110.887 80.6992 109.727 81.9883 108.895C83.2891 108.051 84.6953 107.629 86.207 107.629C88.6797 107.629 90.6016 108.443 91.9727 110.072C93.3438 111.701 94.0293 114.033 94.0293 117.068V118.422H81.1445C81.1914 120.297 81.7363 121.814 82.7793 122.975C83.834 124.123 85.1699 124.697 86.7871 124.697C87.9355 124.697 88.9082 124.463 89.7051 123.994C90.502 123.525 91.1992 122.904 91.7969 122.131L93.7832 123.678C92.1895 126.127 89.7988 127.352 86.6113 127.352ZM86.207 110.301C84.8945 110.301 83.793 110.781 82.9023 111.742C82.0117 112.691 81.4609 114.027 81.25 115.75H90.7773V115.504C90.6836 113.852 90.2383 112.574 89.4414 111.672C88.6445 110.758 87.5664 110.301 86.207 110.301Z" fill="white"/>
</svg>
