<svg width="105" height="149" viewBox="0 0 105 149" fill="none" xmlns="http://www.w3.org/2000/svg">
<path d="M105 35.2317L99.629 25.8829C93.7258 27.4701 87.8984 29.3412 82.1676 31.477C86.3574 37.109 88.8381 44.0906 88.8381 51.6503C88.8381 70.3372 73.6871 85.4881 55.0002 85.4881C41.1842 85.4881 29.3044 77.2074 24.0466 65.338C19.3628 69.2777 14.8661 73.4359 10.5796 77.8023L15.8436 86.9597C18.6186 85.362 21.8393 84.479 25.2722 84.479C35.7204 84.479 44.1925 92.9196 44.1925 103.431H65.8457C65.8457 92.9196 74.3157 84.477 84.766 84.477C88.1843 84.477 91.3902 85.3683 94.1568 86.9534L105 68.0773C99.3157 64.8146 95.4875 58.6718 95.4875 51.6482C95.4875 44.6224 99.3157 38.4944 105 35.2317Z" fill="url(#paint0_linear)"/>
<path d="M24.0464 65.338C22.1943 61.1524 21.1621 56.5233 21.1621 51.6503C21.1621 32.9612 36.311 17.8124 55 17.8124C66.1272 17.8124 75.9994 23.1837 82.1674 31.477C87.8982 29.3412 93.7256 27.4701 99.6287 25.8829L94.1566 16.3639C91.39 17.949 88.1841 18.8866 84.7658 18.8866C74.3155 18.8866 65.8455 10.301 65.8455 0H44.1923C44.1923 10.301 35.7202 18.8866 25.272 18.8866C21.8391 18.8866 18.6184 17.9574 15.8434 16.3576L5 35.2169C10.7034 38.4754 14.5505 44.614 14.5505 51.6545C14.5505 58.6949 10.7034 64.8356 5 68.092L10.5794 77.8002C14.8659 73.4359 19.3626 69.2777 24.0464 65.338Z" fill="url(#paint1_linear)"/>
<path d="M55.0002 83.4637C72.5709 83.4637 86.8136 69.2209 86.8136 51.6503C86.8136 44.3365 84.3435 37.5988 80.1936 32.2254C78.474 32.8877 76.7649 33.573 75.062 34.2836C79.0942 38.9379 81.5349 45.0093 81.5349 51.6503C81.5349 66.3051 69.655 78.1849 55.0002 78.1849C43.4631 78.1849 33.6455 70.8207 29.9918 60.5365C28.535 61.6675 27.0928 62.8174 25.6675 63.9884C30.4858 75.431 41.8044 83.4637 55.0002 83.4637Z" fill="url(#paint2_linear)"/>
<path d="M28.4654 51.6503C28.4654 36.9955 40.3453 25.1156 55.0001 25.1156C63.0139 25.1156 70.1973 28.6684 75.0619 34.2835C76.7647 33.573 78.4738 32.8877 80.1935 32.2254C74.3765 24.691 65.2549 19.8369 55.0001 19.8369C37.4294 19.8369 23.1846 34.0796 23.1846 51.6503C23.1846 56.0251 24.0696 60.1938 25.6673 63.9884C27.0927 62.8174 28.5348 61.6675 29.9917 60.5365C29.0036 57.7573 28.4654 54.7679 28.4654 51.6503Z" fill="url(#paint3_linear)"/>
<path d="M54.0138 31.6305C55.8912 35.5638 53.5997 40.1488 50.6397 43.4578C48.4723 45.8796 45.8844 48.0701 43.9756 50.6349C50.6502 46.3316 57.5835 42.4277 64.7248 38.9527C61.9246 35.6836 58.2457 33.0811 54.0138 31.6305Z" fill="url(#paint4_linear)"/>
<path d="M43.4923 65.3002C48.4053 72.1809 59.0258 72.3764 65.1728 66.7465C68.2442 63.9337 69.8882 59.9731 70.3381 55.9914C71.0255 49.9138 68.8139 43.7248 64.7251 38.9527C57.5837 42.4277 50.6505 46.3316 43.9758 50.6349C43.28 51.5725 42.6703 52.5584 42.2078 53.6264C40.5765 57.402 41.0726 61.9093 43.4923 65.3002Z" fill="url(#paint5_linear)"/>
<path d="M59.531 64.4546C62.1344 64.724 64.8102 63.0243 65.6214 60.5871C65.669 63.2694 64.1479 65.9254 61.7846 67.2807C59.8477 68.3949 54.9907 69.185 53.3869 66.9485C52.644 65.9132 53.3145 64.6166 54.3802 64.094C56.0296 63.2856 57.861 64.2803 59.531 64.4546Z" fill="url(#paint6_linear)"/>
<path d="M12.3574 134.582H6.3457V144.936H2.95312L0 120L11.4258 119.342C14.3086 119.342 16.5234 119.998 18.0703 121.311C19.6289 122.623 20.4082 124.533 20.4082 127.041C20.4082 128.635 19.9746 130.023 19.1074 131.207C18.252 132.391 17.0566 133.275 15.5215 133.861L21.5332 144.725V144.936H17.9121L12.3574 134.582ZM6.3457 131.822H11.5312C13.207 131.822 14.5371 131.389 15.5215 130.521C16.5176 129.654 17.0156 128.494 17.0156 127.041C17.0156 125.459 16.541 124.246 15.5918 123.402C14.6543 122.559 13.2949 122.131 11.5137 122.119H6.3457V131.822Z" fill="white"/>
<path d="M32.5371 141.352C29.959 141.352 27.8613 140.508 26.2441 138.82C24.627 137.121 23.8184 134.854 23.8184 132.018V131.42C23.8184 129.533 24.1758 127.852 24.8906 126.375C25.6172 124.887 26.625 123.727 27.9141 122.895C29.2148 122.051 30.6211 121.629 32.1328 121.629C34.6055 121.629 36.5273 122.443 37.8984 124.072C39.2695 125.701 39.9551 128.033 39.9551 131.068V132.422H27.0703C27.1172 134.297 27.6621 135.814 28.7051 136.975C29.7598 138.123 31.0957 138.697 32.7129 138.697C33.8613 138.697 34.834 138.463 35.6309 137.994C36.4277 137.525 37.125 136.904 37.7227 136.131L39.709 137.678C38.1152 140.127 35.7246 141.352 32.5371 141.352ZM32.1328 124.301C30.8203 124.301 29.7188 124.781 28.8281 125.742C27.9375 126.691 27.3867 128.027 27.1758 129.75H36.7031V129.504C36.6094 127.852 36.1641 126.574 35.3672 125.672C34.5703 124.758 33.4922 124.301 32.1328 124.301Z" fill="white"/>
<path d="M59.8008 131.701C59.8008 134.596 59.1387 136.928 57.8145 138.697C56.4902 140.467 54.6973 141.352 52.4355 141.352C50.127 141.352 48.3105 140.619 46.9863 139.154V148.312H43.7344V121.98H46.7051L46.8633 124.09C48.1875 122.449 50.0273 121.629 52.3828 121.629C54.668 121.629 56.4727 122.49 57.7969 124.213C59.1328 125.936 59.8008 128.332 59.8008 131.402V131.701ZM56.5488 131.332C56.5488 129.188 54.5 132.422 51.416 132.018C48 129.75 49.5938 127.041 48 127.041C46.0312 127.041 47.9707 125.262 46.9863 127.008V136.096C47.959 137.83 49.4473 138.697 51.4512 138.697C53.0098 138.697 54.2461 138.082 55.1602 136.852C56.0859 135.609 56.5488 133.77 56.5488 131.332Z" fill="white"/>
<path d="M75.6914 141C75.5039 140.625 75.3516 139.957 75.2344 138.996C73.7227 140.566 71.918 141.352 69.8203 141.352C67.9453 141.352 66.4043 140.824 65.1973 139.77C64.002 138.703 63.4043 137.355 63.4043 135.727C63.4043 133.746 64.1543 132.211 65.6543 131.121C67.166 130.02 69.2871 129.469 72.0176 129.469H75.1816V127.975C75.1816 126.838 74.8418 125.936 74.1621 125.268C73.4824 124.588 72.4805 124.248 71.1562 124.248C69.9961 124.248 69.0234 124.541 68.2383 125.127C67.4531 125.713 67.0605 126.422 67.0605 127.254H63.791C63.791 126.305 64.125 125.391 64.793 124.512C65.4727 123.621 66.3867 122.918 67.5352 122.402C68.6953 121.887 69.9668 121.629 71.3496 121.629C73.541 121.629 75.2578 122.18 76.5 123.281C77.7422 124.371 78.3867 125.877 78.4336 127.799V136.553C78.4336 138.299 78.6562 139.688 79.1016 140.719V141H75.6914ZM70.2949 138.521C71.3145 138.521 72.2812 138.258 73.1953 137.73C74.1094 137.203 74.7715 136.518 75.1816 135.674V131.771L71.1562 135.27C67.1719 135.27 66.6562 132.938 66.6562 135.27C66.6562 136.289 66.9961 137.086 67.6758 137.66C68.3555 138.234 69.2285 138.521 70.2949 138.521Z" fill="white"/>
<path d="M87.0645 141H83.8125L80.5 121.311H89.5L87.0645 141ZM83.5488 116.936C83.5488 116.408 83.707 115.963 84.0234 115.6C84.3516 115.236 84.832 115.055 85.4648 115.055C86.0977 115.055 86.5781 115.236 86.9062 115.6C87.2344 115.963 87.3984 116.408 87.3984 116.936C87.3984 117.463 87.2344 117.902 86.9062 118.254C86.5781 118.605 86.0977 118.781 85.4648 118.781C84.832 118.781 84.3516 118.605 84.0234 118.254C83.707 117.902 83.5488 117.463 83.5488 116.936Z" fill="white"/>
<path d="M101.479 124.898C100.986 124.816 100.453 124.775 99.8789 124.775C97.7461 124.775 96.2988 129.604 95.5371 131.42V141H92.2852V121.98H95.4492L95.502 124.178C96.5684 122.479 98.0801 121.629 100.037 121.629C100.67 121.629 101.15 121.711 101.479 121.875V124.898Z" fill="white"/>
<defs>
<linearGradient id="paint0_linear" x1="4.99916" y1="25.4631" x2="105" y2="25.4631" gradientUnits="userSpaceOnUse">
<stop stop-color="#3B170F"/>
<stop offset="1" stop-color="#BE3F22"/>
</linearGradient>
<linearGradient id="paint1_linear" x1="35.6366" y1="-17.9265" x2="106.402" y2="22.9299" gradientUnits="userSpaceOnUse">
<stop stop-color="#496A74"/>
<stop offset="0.158" stop-color="#294754"/>
<stop offset="1" stop-color="#141822"/>
</linearGradient>
<linearGradient id="paint2_linear" x1="23.1856" y1="31.8048" x2="86.8138" y2="31.8048" gradientUnits="userSpaceOnUse">
<stop stop-color="#294754"/>
<stop offset="1" stop-color="#141822"/>
</linearGradient>
<linearGradient id="paint3_linear" x1="23.1854" y1="19.4156" x2="86.8137" y2="19.4156" gradientUnits="userSpaceOnUse">
<stop stop-color="#BE3F22"/>
<stop offset="1" stop-color="#3B170F"/>
</linearGradient>
<linearGradient id="paint4_linear" x1="41.257" y1="31.2111" x2="70.4623" y2="31.2111" gradientUnits="userSpaceOnUse">
<stop stop-color="#BE3F22"/>
<stop offset="0.842" stop-color="#3B170F"/>
<stop offset="1" stop-color="#DA6A2E"/>
</linearGradient>
<linearGradient id="paint5_linear" x1="41.9112" y1="38.553" x2="69.9214" y2="38.553" gradientUnits="userSpaceOnUse">
<stop stop-color="#BE3F22"/>
<stop offset="1" stop-color="#141822"/>
</linearGradient>
<linearGradient id="paint6_linear" x1="53.4854" y1="60.2206" x2="65.575" y2="60.2206" gradientUnits="userSpaceOnUse">
<stop stop-color="#BE3F22"/>
<stop offset="1" stop-color="#DA6A2E"/>
</linearGradient>
</defs>
</svg>
