<svg width="102" height="121" viewBox="0 0 102 121" fill="none" xmlns="http://www.w3.org/2000/svg">
<path d="M45.1816 4.03247C45.306 4.03247 45.4305 4.01302 45.551 3.97608C46.7681 3.59695 48.0241 3.2878 49.2763 3.05449C51.1564 2.70451 53.0832 2.51592 55.0061 2.49259C55.6847 2.48481 56.2388 1.9268 56.2388 1.24824V1.23074C56.231 0.554124 55.673 0 54.9944 0H54.9828H54.9789C54.9633 0 54.9517 -6.526e-07 54.94 0.00388794C52.8849 0.0272195 50.8259 0.229427 48.8213 0.602731C47.47 0.855489 46.1207 1.18991 44.8102 1.59627C44.2853 1.75959 43.9314 2.23594 43.9314 2.78423C43.9314 2.91255 43.9528 3.03699 43.9897 3.15559C44.1511 3.68249 44.6294 4.03247 45.1816 4.03247Z" fill="#3B170F"/>
<path d="M58.8459 2.66756C58.8868 2.67145 58.9296 2.67534 58.9743 2.67534C59.612 2.67534 60.1467 2.19315 60.2109 1.55542C60.2828 0.872974 59.785 0.26052 59.1026 0.190525C58.4163 0.116642 57.8038 0.620216 57.7338 1.30072C57.6988 1.63125 57.796 1.95789 58.006 2.21454C58.214 2.47313 58.5135 2.63451 58.8459 2.66756Z" fill="#3B170F"/>
<path d="M39.6558 6.29367C39.8542 6.29367 40.0466 6.24895 40.2255 6.15757C40.836 5.84065 41.0752 5.08821 40.7622 4.4777C40.5483 4.06162 40.1205 3.80109 39.652 3.80109C39.4556 3.80109 39.2592 3.84969 39.0842 3.94107C38.7887 4.09273 38.569 4.35327 38.4659 4.66824C38.3668 4.98516 38.394 5.32347 38.5457 5.62095C38.7595 6.03702 39.1873 6.29367 39.6558 6.29367Z" fill="#3B170F"/>
<path d="M64.4966 3.75638C65.7274 4.1083 66.9464 4.53215 68.1227 5.02212C69.8901 5.759 71.6069 6.65532 73.2246 7.68969C73.4268 7.81996 73.6581 7.88606 73.8953 7.88606C74.3211 7.88606 74.7158 7.67219 74.9472 7.31055C75.0755 7.11223 75.1416 6.87697 75.1416 6.63977C75.1416 6.21202 74.9278 5.82122 74.5681 5.5879C72.8357 4.48355 71.0022 3.52306 69.1143 2.73562C69.1027 2.72979 69.093 2.72396 69.0793 2.72201C67.8117 2.19317 66.4973 1.73431 65.1791 1.35906C65.0663 1.32601 64.9516 1.3124 64.8369 1.3124C64.2847 1.3124 63.7908 1.68376 63.6392 2.2165C63.6061 2.32927 63.5925 2.44398 63.5925 2.55869C63.5925 3.11087 63.9639 3.60472 64.4966 3.75638Z" fill="#3B170F"/>
<path d="M28.07 14.7067C28.2916 14.8914 28.5735 14.9925 28.8632 14.9925H28.8652C29.2365 14.9925 29.5885 14.8292 29.8257 14.5414C29.8257 14.5395 29.8257 14.5395 29.8276 14.5395C30.6325 13.5634 31.5055 12.6224 32.4174 11.7455L32.4252 11.7377C32.4271 11.7358 32.431 11.7299 32.4368 11.7261C32.4388 11.7261 32.4388 11.7241 32.4388 11.7222C33.8192 10.3962 35.328 9.18292 36.9204 8.11161C37.2645 7.8783 37.4687 7.49333 37.4726 7.07919C37.4726 6.83032 37.3987 6.58729 37.2606 6.38119C37.0273 6.03705 36.6385 5.83096 36.2224 5.83096C35.9755 5.83096 35.7363 5.9029 35.5302 6.04288C33.827 7.18613 32.2152 8.48492 30.7375 9.90231C30.7278 9.91009 30.72 9.91787 30.7123 9.92564C29.7207 10.8783 28.7757 11.8972 27.9028 12.9549C27.7181 13.1765 27.6169 13.4584 27.6169 13.7462C27.6169 14.1175 27.7842 14.4695 28.07 14.7067Z" fill="#3B170F"/>
<path d="M82.7959 16.9776C82.7978 16.9854 82.8037 16.9912 82.8076 16.999C82.8095 16.999 82.8114 17.0009 82.8114 17.0029C83.8905 18.5875 84.8374 20.2751 85.6248 22.0172C85.8251 22.4624 86.2703 22.7521 86.7622 22.7521C86.9392 22.7521 87.1103 22.7152 87.2736 22.6394C87.7188 22.441 88.0066 21.9939 88.0066 21.5058C88.0085 21.3289 87.9696 21.1539 87.8958 20.9925C87.0539 19.1241 86.039 17.3139 84.8802 15.6107C84.8782 15.6069 84.8724 15.601 84.8705 15.5952C84.0947 14.4617 83.2489 13.3612 82.3526 12.3229C82.1154 12.0488 81.7712 11.8932 81.4077 11.8932C81.1082 11.8932 80.8205 12.0021 80.593 12.1966C80.3189 12.4338 80.1614 12.7779 80.1614 13.1395C80.1614 13.437 80.2722 13.7287 80.4666 13.9561C81.2949 14.9127 82.0784 15.9296 82.7959 16.9776Z" fill="#3B170F"/>
<path d="M86.9954 25.6044C87.1626 26.1216 87.639 26.4735 88.1853 26.4735H88.1873C88.3117 26.4735 88.4401 26.4541 88.5606 26.4133C89.2158 26.2052 89.5813 25.5033 89.3733 24.8481C89.2061 24.3309 88.7317 23.979 88.1853 23.979C88.057 23.979 87.9306 23.9984 87.8082 24.0393C87.1529 24.2454 86.7893 24.9492 86.9954 25.6044Z" fill="#3B170F"/>
<path d="M76.3371 9.94311C76.5607 10.1259 76.8387 10.2231 77.1226 10.2231C77.4998 10.2231 77.8537 10.0559 78.0909 9.76618C78.5244 9.23345 78.4447 8.44601 77.91 8.01048C77.6884 7.82966 77.4103 7.73051 77.1265 7.73051C76.7493 7.73051 76.3954 7.89772 76.1582 8.18742C75.7246 8.7221 75.8044 9.50759 76.3352 9.94311H76.3371Z" fill="#3B170F"/>
<path d="M24.8538 19.7482C25.0405 19.8532 25.2563 19.9115 25.4702 19.9115C25.9154 19.9115 26.3296 19.6724 26.5512 19.2855C26.5512 19.2835 26.5551 19.2835 26.5551 19.2796C26.8934 18.6827 26.6834 17.9225 26.0865 17.5803C25.8979 17.4753 25.686 17.4189 25.4721 17.4189C25.023 17.4189 24.6069 17.66 24.3853 18.0489C24.2219 18.3386 24.1811 18.675 24.2686 18.9958C24.3561 19.3146 24.5641 19.5849 24.8538 19.7482Z" fill="#3B170F"/>
<path d="M94.8875 31.9137C94.2906 31.5676 93.5285 31.7737 93.1843 32.3686L91.0281 36.1056C91.03 35.95 91.0359 35.7964 91.0359 35.6409C91.0359 35.4212 91.0339 35.2073 91.032 35.0051C91.0067 33.6324 90.9037 32.2481 90.7228 30.891C90.6334 30.2202 89.9996 29.7322 89.321 29.8197C88.7008 29.9013 88.238 30.436 88.24 31.0601C88.2419 31.1126 88.2458 31.1671 88.2517 31.2195C88.4189 32.4775 88.5161 33.7666 88.5394 35.0479C88.5414 35.2442 88.5433 35.4445 88.5433 35.6409C88.5433 37.3713 88.4091 39.1037 88.1447 40.7952C88.135 40.8613 88.1311 40.9255 88.1311 40.9857C88.1292 41.0266 88.1369 41.0655 88.1408 41.1043L87.752 41.779L87.3417 41.0693C87.6431 39.2864 87.7967 37.4627 87.7967 35.6428C87.7967 17.7747 73.2611 3.2392 55.3931 3.2392C42.2321 3.2392 30.475 11.0961 25.4412 23.2577C25.1787 23.8934 25.4801 24.6226 26.1159 24.885C26.7517 25.1495 27.4808 24.8461 27.7452 24.2104C32.3901 12.9859 43.2432 5.73178 55.3931 5.73178C71.8865 5.73178 85.3041 19.1494 85.3041 35.6428C85.3041 36.2436 85.2846 36.8444 85.2477 37.4432L82.3177 32.3686C81.9755 31.7737 81.2114 31.5676 80.6164 31.9137C80.0195 32.2578 79.8154 33.02 80.1595 33.6149L86.6729 44.8957C86.8945 45.2807 87.3067 45.5179 87.752 45.5179C88.1972 45.5179 88.6075 45.2807 88.8311 44.8957L95.3425 33.6149C95.6866 33.02 95.4825 32.2578 94.8875 31.9137Z" fill="#3B170F"/>
<path d="M82.9204 55.7721C82.6987 55.5874 82.4168 55.4843 82.1291 55.4843C81.7538 55.4843 81.4058 55.6496 81.1666 55.9354C80.352 56.9192 79.4712 57.8641 78.5496 58.7469C77.1633 60.0748 75.6526 61.29 74.0622 62.3574C73.718 62.5888 73.5119 62.9718 73.5081 63.3879C73.5081 63.6368 73.582 63.8759 73.72 64.0859C73.9533 64.43 74.3422 64.6361 74.7582 64.6361C75.0052 64.6361 75.2443 64.5642 75.4504 64.4281C77.1614 63.281 78.7829 61.9744 80.2742 60.5492C80.282 60.5414 80.2878 60.5337 80.2956 60.5239C81.2736 59.5887 82.2049 58.5874 83.0682 57.5492C83.0721 57.5433 83.0779 57.5356 83.0837 57.5317L83.0876 57.5258V57.5239C83.2723 57.3022 83.3715 57.0223 83.3715 56.7326C83.3715 56.3593 83.2101 56.0073 82.9204 55.7721Z" fill="#3B170F"/>
<path d="M52.1307 67.7703C51.4482 67.6945 50.8319 68.1981 50.7619 68.8786C50.7269 69.2111 50.8241 69.5358 51.0341 69.7944C51.2441 70.051 51.5396 70.2124 51.8721 70.2474C51.9129 70.2532 51.9576 70.2552 52.0043 70.2552C52.642 70.2552 53.1748 69.7749 53.2389 69.1391C53.2739 68.8067 53.1767 68.4839 52.9687 68.2234C52.7587 67.9648 52.4612 67.8053 52.1307 67.7703Z" fill="#3B170F"/>
<path d="M65.7972 66.421C65.6727 66.421 65.5483 66.4424 65.4278 66.4793C64.2067 66.8546 62.9527 67.1637 61.6986 67.397C59.8204 67.7431 57.8917 67.9298 55.9688 67.9492C55.2883 67.957 54.7361 68.513 54.7361 69.1936C54.7361 69.1994 54.7361 69.2033 54.7361 69.2091C54.7419 69.8896 55.3019 70.4418 55.9824 70.4418C55.9863 70.4418 55.9921 70.4418 55.994 70.4418C58.0628 70.4204 60.1334 70.2201 62.1535 69.8468C63.5048 69.598 64.8522 69.2655 66.1646 68.8591C66.6876 68.6978 67.0415 68.2214 67.0415 67.6731C67.0434 67.5467 67.024 67.4204 66.9871 67.3018C66.8238 66.7749 66.3455 66.421 65.7972 66.421Z" fill="#3B170F"/>
<path d="M71.3229 64.1676C71.1245 64.1676 70.9321 64.2142 70.7551 64.3056C70.7532 64.3056 70.7532 64.3056 70.7532 64.3076C70.4577 64.4592 70.2399 64.7159 70.1368 65.0328C70.0377 65.3497 70.0649 65.69 70.2166 65.9835C70.4304 66.4016 70.8543 66.6602 71.3267 66.6602C71.5231 66.6602 71.7137 66.6135 71.8906 66.5241H71.8945C72.505 66.2071 72.7461 65.4566 72.4331 64.8442C72.2192 64.4281 71.7914 64.1676 71.3229 64.1676Z" fill="#3B170F"/>
<path d="M86.1439 50.7344C85.9534 50.6255 85.7415 50.5711 85.5276 50.5711C85.0785 50.5711 84.6663 50.8103 84.4446 51.1991C84.4427 51.1991 84.4407 51.2011 84.4407 51.203C84.2793 51.4888 84.2366 51.8252 84.3241 52.1479C84.4116 52.4668 84.6177 52.7351 84.9073 52.9004C85.0959 53.0073 85.3079 53.0637 85.5237 53.0637C85.9709 53.0637 86.385 52.8226 86.6066 52.4337C86.9488 51.8388 86.7389 51.0747 86.1439 50.7344Z" fill="#3B170F"/>
<path d="M22.7737 39.337C22.7717 39.2845 22.7678 39.232 22.7601 39.1775C22.5967 37.9196 22.5015 36.6305 22.4781 35.3492C22.4762 35.1878 22.4742 35.0148 22.4742 34.8009C22.4742 33.0569 22.6104 31.307 22.8806 29.6019C22.8903 29.5397 22.8962 29.4774 22.8962 29.4133C22.8962 29.3822 22.8903 29.353 22.8884 29.3219L23.2675 28.6628L23.6778 29.3725C23.3764 31.1573 23.2228 32.9791 23.2228 34.8009C23.2228 52.6671 37.7583 67.2026 55.6264 67.2026C68.7679 67.2026 80.5173 59.3632 85.5608 47.2289C85.8252 46.5931 85.5238 45.864 84.8881 45.5995C84.2523 45.3351 83.5232 45.6365 83.2587 46.2723C78.6021 57.4734 67.7569 64.712 55.6264 64.712C39.133 64.712 25.7154 51.2924 25.7154 34.8009C25.7154 34.2001 25.7348 33.5974 25.7718 32.9986L28.7018 38.0732C28.9313 38.4737 29.3512 38.6973 29.7809 38.6973C29.9928 38.6973 30.2067 38.6429 30.4031 38.5301C31 38.1859 31.2041 37.4238 30.86 36.8269L24.3466 25.548C24.125 25.1611 23.7128 24.9239 23.2675 24.9239C22.8223 24.9239 22.412 25.1611 22.1884 25.548L15.677 36.8269C15.3329 37.4238 15.537 38.1859 16.132 38.5301C16.7289 38.8742 17.491 38.6701 17.8352 38.0732L19.9933 34.3343C19.9914 34.4898 19.9836 34.6454 19.9836 34.8009C19.9836 35.0187 19.9836 35.2092 19.9856 35.3901C20.0089 36.7627 20.1119 38.149 20.2908 39.5042C20.3725 40.1225 20.9013 40.5891 21.5254 40.5891C21.5799 40.5891 21.6363 40.5833 21.6888 40.5774C22.309 40.4938 22.7756 39.9611 22.7737 39.337Z" fill="#3B170F"/>
<path d="M24.01 44.7965C23.8428 44.2755 23.3664 43.9255 22.8201 43.9255C22.6937 43.9255 22.5654 43.9449 22.4449 43.9838C22.1279 44.083 21.8674 44.3027 21.7138 44.5963C21.5621 44.8938 21.531 45.2301 21.6321 45.547C21.7955 46.0681 22.2738 46.4181 22.8201 46.4181C22.9484 46.4181 23.0728 46.3986 23.1934 46.3617C23.8506 46.1517 24.2161 45.4518 24.01 44.7965Z" fill="#3B170F"/>
<path d="M30.5217 56.4546C29.6876 55.4844 28.9002 54.4597 28.1847 53.4059C27.1075 51.8213 26.1626 50.1298 25.3771 48.3838C25.1768 47.9366 24.7297 47.6488 24.2397 47.6488C24.0628 47.6488 23.8897 47.6858 23.7283 47.7577C23.2812 47.9599 22.9954 48.4052 22.9934 48.8951C22.9934 49.0721 23.0303 49.2432 23.1042 49.4084C23.948 51.2827 24.9649 53.0987 26.1237 54.8097C26.8917 55.9374 27.7394 57.0398 28.6357 58.0819C28.8729 58.3561 29.2171 58.5155 29.5807 58.5155C29.8801 58.5155 30.1678 58.4086 30.3953 58.2122C30.6695 57.975 30.827 57.6309 30.827 57.2692C30.827 56.9717 30.72 56.684 30.5256 56.4565C30.5256 56.4546 30.5256 56.4546 30.5217 56.4546Z" fill="#3B170F"/>
<path d="M34.6473 60.4715C34.4256 60.2907 34.1456 60.1896 33.8598 60.1896C33.4826 60.1896 33.1327 60.3548 32.8955 60.6465C32.6835 60.9031 32.5863 61.2298 32.6194 61.5583C32.6544 61.8908 32.8138 62.1902 33.0704 62.4022C33.2921 62.581 33.574 62.6821 33.8598 62.6821C34.2331 62.6821 34.585 62.5149 34.8242 62.2233C35.2578 61.6925 35.1819 60.9051 34.6473 60.4715Z" fill="#3B170F"/>
<path d="M46.4827 66.6757C46.4827 66.6738 46.4827 66.6738 46.4807 66.6738C45.2539 66.3218 44.0348 65.896 42.8566 65.4022C41.0892 64.6653 39.3743 63.7651 37.7586 62.7288C37.5564 62.5985 37.325 62.5305 37.0859 62.5305C36.6601 62.5305 36.2654 62.7443 36.036 63.104C35.9057 63.3062 35.8396 63.5376 35.8396 63.7768C35.8396 64.2026 36.0535 64.5973 36.4132 64.8267C38.1494 65.9408 39.9946 66.9071 41.8961 67.7023C43.1579 68.2292 44.4645 68.6881 45.775 69.0633C45.7827 69.0672 45.7866 69.0691 45.7944 69.0711H45.7963C45.9091 69.1041 46.0238 69.1197 46.1385 69.1197C46.6927 69.1197 47.1826 68.7464 47.3343 68.2156C47.3673 68.1048 47.3848 67.9901 47.3848 67.8753C47.3848 67.3212 47.0154 66.8274 46.4827 66.6757Z" fill="#3B170F"/>
<path d="M9.4043 94.4492H3.39258V104.803H0V79.209H8.47266C11.3555 79.209 13.5703 79.8652 15.1172 81.1777C16.6758 82.4902 17.4551 84.4004 17.4551 86.9082C17.4551 88.502 17.0215 89.8906 16.1543 91.0742C15.2988 92.2578 14.1035 93.1426 12.5684 93.7285L18.5801 104.592V104.803H14.959L9.4043 94.4492ZM3.39258 91.6895H8.57812C10.2539 91.6895 11.584 91.2559 12.5684 90.3887C13.5645 89.5215 14.0625 88.3613 14.0625 86.9082C14.0625 85.3262 13.5879 84.1133 12.6387 83.2695C11.7012 82.4258 10.3418 81.9981 8.56055 81.9863H3.39258V91.6895Z" fill="white"/>
<path d="M29.4785 109.092C26.9004 109.092 24.8027 108.248 23.1855 106.561C21.5684 104.861 20.7598 102.594 20.7598 99.7578V99.1602C20.7598 97.2735 21.1172 95.5918 21.832 94.1152C22.5586 92.627 23.5664 91.4668 24.8555 90.6348C26.1562 89.791 27.5625 89.3692 29.0742 89.3692C31.5469 89.3692 33.4688 90.1836 34.8398 91.8125C36.2109 93.4414 36.8965 95.7735 36.8965 98.8086V100.162H24.0117C24.0586 102.037 24.6035 103.555 25.6465 104.715C26.7012 105.863 28.0371 106.438 29.6543 106.438C30.8027 106.438 31.7754 106.203 32.5723 105.734C33.3691 105.266 34.0664 104.645 34.6641 103.871L36.6504 105.418C35.0566 107.867 32.666 109.092 29.4785 109.092ZM29.0742 92.041C27.7617 92.041 26.6602 92.5215 25.7695 93.4824C24.8789 94.4317 24.3281 95.7676 24.1172 97.4902H33.6445V97.2442C33.5508 95.5918 33.1055 94.3145 32.3086 93.4121C31.5117 92.4981 30.4336 92.041 29.0742 92.041Z" fill="white"/>
<path d="M56.1444 103.941C56.1444 106.836 55.4823 109.168 54.158 110.938C52.8338 112.707 51.0409 113.592 48.7791 113.592C46.4705 113.592 44.6541 112.859 43.3299 111.395V120.553H40.078V94.2207H43.0487L43.2069 96.3301C44.5311 94.6895 46.3709 93.8692 48.7264 93.8692C51.0116 93.8692 52.8162 94.7305 54.1405 96.4531C55.4764 98.1758 56.1444 100.572 56.1444 103.643V103.941ZM52.8924 103.572C52.8924 101.428 52.4354 99.7344 51.5213 98.4922C50.6073 97.25 49.3534 96.6289 47.7596 96.6289C45.7909 96.6289 44.3143 97.502 43.3299 99.2481V108.336C44.3026 110.07 45.7909 110.938 47.7948 110.938C49.3534 110.938 50.5897 110.322 51.5037 109.092C52.4295 107.85 52.8924 106.01 52.8924 103.572Z" fill="white"/>
<path d="M67.2713 113.486C64.6932 113.486 62.5955 112.643 60.9784 110.955C59.3612 109.256 58.5526 106.988 58.5526 104.152V103.555C58.5526 101.668 58.91 99.9863 59.6248 98.5098C60.3514 97.0215 61.3592 95.8613 62.6483 95.0293C63.9491 94.1856 65.3553 93.7637 66.867 93.7637C69.3397 93.7637 71.2616 94.5781 72.6327 96.207C74.0037 97.836 74.6893 100.168 74.6893 103.203V104.557H61.8045C61.8514 106.432 62.3963 107.949 63.4393 109.109C64.494 110.258 65.8299 110.832 67.4471 110.832C68.5955 110.832 69.5682 110.598 70.3651 110.129C71.1619 109.66 71.8592 109.039 72.4569 108.266L74.4432 109.813C72.8494 112.262 70.4588 113.486 67.2713 113.486ZM66.867 96.4356C65.5545 96.4356 64.453 96.916 63.5623 97.877C62.6717 98.8262 62.1209 100.162 61.91 101.885H71.4373V101.639C71.3436 99.9863 70.8983 98.709 70.1014 97.8067C69.3045 96.8926 68.2264 96.4356 66.867 96.4356Z" fill="white"/>
<path d="M88.8988 106.279C88.7113 105.904 88.559 105.236 88.4418 104.275C86.9301 105.846 85.1254 106.631 83.0277 106.631C81.1527 106.631 79.6117 106.104 78.4047 105.049C77.2094 103.982 76.6117 102.635 76.6117 101.006C76.6117 99.0254 77.3617 97.4903 78.8617 96.4004C80.3735 95.2988 82.4945 94.7481 85.225 94.7481H88.3891V93.2539C88.3891 92.1172 88.0492 91.2149 87.3695 90.5469C86.6899 89.8672 85.6879 89.5274 84.3637 89.5274C83.2035 89.5274 82.2309 89.8203 81.4457 90.4063C80.6606 90.9922 80.268 91.7012 80.268 92.5332H76.9985C76.9985 91.584 77.3324 90.6699 78.0004 89.791C78.6801 88.9004 79.5942 88.1973 80.7426 87.6817C81.9027 87.166 83.1742 86.9082 84.557 86.9082C86.7485 86.9082 88.4652 87.459 89.7074 88.5606C90.9496 89.6504 91.5942 91.1563 91.641 93.0781V101.832C91.641 103.578 91.8637 104.967 92.309 105.998V106.279H88.8988ZM83.5024 103.801C84.5219 103.801 85.4887 103.537 86.4027 103.01C87.3168 102.482 87.9789 101.797 88.3891 100.953V97.0508H85.8402C81.8559 97.0508 79.8637 98.2168 79.8637 100.549C79.8637 101.568 80.2035 102.365 80.8832 102.939C81.5629 103.514 82.436 103.801 83.5024 103.801Z" fill="white"/>
<path d="M98.3559 77.9082V82.5137H101.907V85.0273H98.3559V96.8223C98.3559 97.584 98.5141 98.1582 98.8306 98.5449C99.147 98.9199 99.686 99.1074 100.448 99.1074C100.823 99.1074 101.338 99.0371 101.995 98.8965V101.533C101.139 101.768 100.307 101.885 99.4985 101.885C98.0454 101.885 96.9497 101.445 96.2114 100.566C95.4731 99.6875 95.104 98.4395 95.104 96.8223V85.0273H91.6411V82.5137H95.104V77.9082H98.3559Z" fill="white"/>
</svg>
