<svg width="50" height="50" viewBox="0 0 50 50" fill="none" xmlns="http://www.w3.org/2000/svg">
<path d="M38.158 22.3684H16.4475V12.5C16.4475 7.78408 20.2842 3.94737 25.0001 3.94737C29.716 3.94737 33.5527 7.78408 33.5527 12.5V16.4474C33.5527 17.5374 34.4364 18.4211 35.5264 18.4211C36.6164 18.4211 37.5001 17.5374 37.5001 16.4474V12.5C37.5001 5.6075 31.8926 0 25.0001 0C18.1076 0 12.5001 5.6075 12.5001 12.5V22.3684H11.8422C10.0255 22.3684 8.55273 23.8412 8.55273 25.6579V46.7105C8.55273 48.5272 10.0255 50 11.8422 50H38.158C39.9747 50 41.4475 48.5272 41.4475 46.7105V25.6579C41.4475 23.8412 39.9747 22.3684 38.158 22.3684ZM21.0527 33.5526C21.0527 31.3725 22.82 29.6053 25.0001 29.6053C27.1801 29.6053 28.9475 31.3725 28.9475 33.5526C28.9475 35.0136 28.1534 36.288 26.9738 36.9707V42.7632H23.0264V36.9707C21.8468 36.288 21.0527 35.0136 21.0527 33.5526Z" fill="white"/>
</svg>
