<svg width="1920" height="1080" viewBox="0 0 1920 1080" fill="none" xmlns="http://www.w3.org/2000/svg">
<rect width="1920" height="1080" fill="url(#paint0_radial)"/>
<path d="M154.264 481.024C155.885 481.28 157.357 481.941 158.68 483.008C160.045 484.075 161.112 485.397 161.88 486.976C162.691 488.555 163.096 490.24 163.096 492.032C163.096 494.293 162.52 496.341 161.368 498.176C160.216 499.968 158.531 501.397 156.312 502.464C154.136 503.488 151.555 504 148.568 504H131.928V459.392H147.928C150.957 459.392 153.539 459.904 155.672 460.928C157.805 461.909 159.405 463.253 160.472 464.96C161.539 466.667 162.072 468.587 162.072 470.72C162.072 473.365 161.347 475.563 159.896 477.312C158.488 479.019 156.611 480.256 154.264 481.024ZM137.752 478.656H147.544C150.275 478.656 152.387 478.016 153.88 476.736C155.373 475.456 156.12 473.685 156.12 471.424C156.12 469.163 155.373 467.392 153.88 466.112C152.387 464.832 150.232 464.192 147.416 464.192H137.752V478.656ZM148.056 499.2C150.957 499.2 153.219 498.517 154.84 497.152C156.461 495.787 157.272 493.888 157.272 491.456C157.272 488.981 156.419 487.04 154.712 485.632C153.005 484.181 150.723 483.456 147.864 483.456H137.752V499.2H148.056ZM174.186 463.232C173.077 463.232 172.138 462.848 171.37 462.08C170.602 461.312 170.218 460.373 170.218 459.264C170.218 458.155 170.602 457.216 171.37 456.448C172.138 455.68 173.077 455.296 174.186 455.296C175.253 455.296 176.149 455.68 176.874 456.448C177.642 457.216 178.026 458.155 178.026 459.264C178.026 460.373 177.642 461.312 176.874 462.08C176.149 462.848 175.253 463.232 174.186 463.232ZM177.002 468.928V504H171.178V468.928H177.002ZM206.512 504L192.752 488.512V504H186.928V456.64H192.752V484.48L206.256 468.928H214.384L197.872 486.4L214.448 504H206.512ZM251.866 485.12C251.866 486.229 251.802 487.403 251.674 488.64H223.642C223.855 492.096 225.028 494.805 227.162 496.768C229.338 498.688 231.962 499.648 235.034 499.648C237.551 499.648 239.642 499.072 241.306 497.92C243.012 496.725 244.207 495.147 244.89 493.184H251.162C250.223 496.555 248.346 499.307 245.53 501.44C242.714 503.531 239.215 504.576 235.034 504.576C231.706 504.576 228.719 503.829 226.074 502.336C223.471 500.843 221.423 498.731 219.93 496C218.436 493.227 217.69 490.027 217.69 486.4C217.69 482.773 218.415 479.595 219.866 476.864C221.316 474.133 223.343 472.043 225.946 470.592C228.591 469.099 231.62 468.352 235.034 468.352C238.362 468.352 241.306 469.077 243.866 470.528C246.426 471.979 248.388 473.984 249.754 476.544C251.162 479.061 251.866 481.92 251.866 485.12ZM245.85 483.904C245.85 481.685 245.359 479.787 244.378 478.208C243.396 476.587 242.052 475.371 240.346 474.56C238.682 473.707 236.826 473.28 234.778 473.28C231.834 473.28 229.316 474.219 227.226 476.096C225.178 477.973 224.004 480.576 223.706 483.904H245.85Z" fill="black"/>
<path d="M282.44 499.264H298.056V504H276.616V459.392H282.44V499.264ZM319.537 504.576C316.251 504.576 313.265 503.829 310.577 502.336C307.931 500.843 305.841 498.731 304.305 496C302.811 493.227 302.065 490.027 302.065 486.4C302.065 482.816 302.833 479.659 304.369 476.928C305.947 474.155 308.081 472.043 310.769 470.592C313.457 469.099 316.465 468.352 319.793 468.352C323.121 468.352 326.129 469.099 328.817 470.592C331.505 472.043 333.617 474.133 335.153 476.864C336.731 479.595 337.521 482.773 337.521 486.4C337.521 490.027 336.71 493.227 335.089 496C333.51 498.731 331.355 500.843 328.625 502.336C325.894 503.829 322.865 504.576 319.537 504.576ZM319.537 499.456C321.627 499.456 323.59 498.965 325.425 497.984C327.259 497.003 328.731 495.531 329.841 493.568C330.993 491.605 331.569 489.216 331.569 486.4C331.569 483.584 331.014 481.195 329.905 479.232C328.795 477.269 327.345 475.819 325.553 474.88C323.761 473.899 321.819 473.408 319.729 473.408C317.595 473.408 315.633 473.899 313.841 474.88C312.091 475.819 310.683 477.269 309.617 479.232C308.55 481.195 308.017 483.584 308.017 486.4C308.017 489.259 308.529 491.669 309.553 493.632C310.619 495.595 312.027 497.067 313.777 498.048C315.526 498.987 317.446 499.456 319.537 499.456ZM376.282 468.928V504H370.458V498.816C369.349 500.608 367.791 502.016 365.786 503.04C363.823 504.021 361.647 504.512 359.258 504.512C356.527 504.512 354.074 503.957 351.898 502.848C349.722 501.696 347.994 499.989 346.714 497.728C345.477 495.467 344.858 492.715 344.858 489.472V468.928H350.618V488.704C350.618 492.16 351.493 494.827 353.242 496.704C354.991 498.539 357.381 499.456 360.41 499.456C363.525 499.456 365.978 498.496 367.77 496.576C369.562 494.656 370.458 491.861 370.458 488.192V468.928H376.282ZM403.204 468.288C407.47 468.288 410.926 469.589 413.572 472.192C416.217 474.752 417.54 478.464 417.54 483.328V504H411.78V484.16C411.78 480.661 410.905 477.995 409.156 476.16C407.406 474.283 405.017 473.344 401.988 473.344C398.916 473.344 396.462 474.304 394.628 476.224C392.836 478.144 391.94 480.939 391.94 484.608V504H386.116V468.928H391.94V473.92C393.092 472.128 394.649 470.741 396.612 469.76C398.617 468.779 400.814 468.288 403.204 468.288ZM441.517 468.352C444.546 468.352 447.192 469.013 449.453 470.336C451.757 471.659 453.464 473.323 454.573 475.328V468.928H460.461V504.768C460.461 507.968 459.778 510.805 458.413 513.28C457.048 515.797 455.085 517.76 452.525 519.168C450.008 520.576 447.064 521.28 443.693 521.28C439.085 521.28 435.245 520.192 432.173 518.016C429.101 515.84 427.288 512.875 426.733 509.12H432.493C433.133 511.253 434.456 512.96 436.461 514.24C438.466 515.563 440.877 516.224 443.693 516.224C446.893 516.224 449.496 515.221 451.501 513.216C453.549 511.211 454.573 508.395 454.573 504.768V497.408C453.421 499.456 451.714 501.163 449.453 502.528C447.192 503.893 444.546 504.576 441.517 504.576C438.402 504.576 435.565 503.808 433.005 502.272C430.488 500.736 428.504 498.581 427.053 495.808C425.602 493.035 424.877 489.877 424.877 486.336C424.877 482.752 425.602 479.616 427.053 476.928C428.504 474.197 430.488 472.085 433.005 470.592C435.565 469.099 438.402 468.352 441.517 468.352ZM454.573 486.4C454.573 483.755 454.04 481.451 452.973 479.488C451.906 477.525 450.456 476.032 448.621 475.008C446.829 473.941 444.845 473.408 442.669 473.408C440.493 473.408 438.509 473.92 436.717 474.944C434.925 475.968 433.496 477.461 432.429 479.424C431.362 481.387 430.829 483.691 430.829 486.336C430.829 489.024 431.362 491.371 432.429 493.376C433.496 495.339 434.925 496.853 436.717 497.92C438.509 498.944 440.493 499.456 442.669 499.456C444.845 499.456 446.829 498.944 448.621 497.92C450.456 496.853 451.906 495.339 452.973 493.376C454.04 491.371 454.573 489.045 454.573 486.4ZM502.303 485.12C502.303 486.229 502.239 487.403 502.111 488.64H474.079C474.292 492.096 475.466 494.805 477.599 496.768C479.775 498.688 482.399 499.648 485.471 499.648C487.988 499.648 490.079 499.072 491.743 497.92C493.45 496.725 494.644 495.147 495.327 493.184H501.599C500.66 496.555 498.783 499.307 495.967 501.44C493.151 503.531 489.652 504.576 485.471 504.576C482.143 504.576 479.156 503.829 476.511 502.336C473.908 500.843 471.86 498.731 470.367 496C468.874 493.227 468.127 490.027 468.127 486.4C468.127 482.773 468.852 479.595 470.303 476.864C471.754 474.133 473.78 472.043 476.383 470.592C479.028 469.099 482.058 468.352 485.471 468.352C488.799 468.352 491.743 469.077 494.303 470.528C496.863 471.979 498.826 473.984 500.191 476.544C501.599 479.061 502.303 481.92 502.303 485.12ZM496.287 483.904C496.287 481.685 495.796 479.787 494.815 478.208C493.834 476.587 492.49 475.371 490.783 474.56C489.119 473.707 487.263 473.28 485.215 473.28C482.271 473.28 479.754 474.219 477.663 476.096C475.615 477.973 474.442 480.576 474.143 483.904H496.287Z" fill="#4BD8E1"/>
<path d="M289 518H408" stroke="black" stroke-width="8" stroke-linecap="round" stroke-linejoin="round"/>
<rect x="111.5" y="435.5" width="159" height="101" rx="21.5" stroke="#4BD8E1" stroke-width="3"/>
<rect x="100.7" y="97.8252" width="50" height="49" rx="24.5" transform="rotate(75.6379 100.7 97.8252)" stroke="#4BD8E1" stroke-width="3"/>
<rect x="71.7314" y="121.759" width="34" height="34" rx="17" transform="rotate(75.6379 71.7314 121.759)" stroke="#4BD8E1" stroke-width="3"/>
<rect x="1090.38" y="48.9844" width="50" height="49" rx="24.5" transform="rotate(65.7007 1090.38 48.9844)" stroke="#4BD8E1" stroke-width="3"/>
<rect x="1065.97" y="77.558" width="34" height="34" rx="17" transform="rotate(65.7007 1065.97 77.558)" stroke="#4BD8E1" stroke-width="3"/>
<rect x="1209.38" y="396.984" width="50" height="49" rx="24.5" transform="rotate(65.7007 1209.38 396.984)" stroke="#4BD8E1" stroke-width="3"/>
<rect x="1184.97" y="425.558" width="34" height="34" rx="17" transform="rotate(65.7007 1184.97 425.558)" stroke="#4BD8E1" stroke-width="3"/>
<rect x="60.481" y="963.986" width="50" height="49" rx="24.5" transform="rotate(-104.374 60.481 963.986)" stroke="#4BD8E1" stroke-width="3"/>
<rect x="89.4448" y="940.046" width="34" height="34" rx="17" transform="rotate(-104.374 89.4448 940.046)" stroke="#4BD8E1" stroke-width="3"/>
<rect x="1101.38" y="865.984" width="50" height="49" rx="24.5" transform="rotate(65.7007 1101.38 865.984)" stroke="#4BD8E1" stroke-width="3"/>
<rect x="1076.97" y="894.558" width="34" height="34" rx="17" transform="rotate(65.7007 1076.97 894.558)" stroke="#4BD8E1" stroke-width="3"/>
<rect x="498.972" y="90.558" width="34" height="34" rx="17" transform="rotate(65.7007 498.972 90.558)" stroke="#4BD8E1" stroke-width="3"/>
<rect x="523.376" y="61.9844" width="50" height="49" rx="24.5" transform="rotate(65.7007 523.376 61.9844)" stroke="#4BD8E1" stroke-width="3"/>
<path d="M143.032 597.048V602.64H149.128V604.44H143.032V610.2H149.848V612H140.848V595.248H149.848V597.048H143.032ZM158.049 609.984L162.129 598.848H164.457L159.297 612H156.753L151.593 598.848H153.945L158.049 609.984ZM178.606 604.92C178.606 605.336 178.582 605.776 178.534 606.24H168.022C168.102 607.536 168.542 608.552 169.342 609.288C170.158 610.008 171.142 610.368 172.294 610.368C173.238 610.368 174.022 610.152 174.646 609.72C175.286 609.272 175.734 608.68 175.99 607.944H178.342C177.99 609.208 177.286 610.24 176.23 611.04C175.174 611.824 173.862 612.216 172.294 612.216C171.046 612.216 169.926 611.936 168.934 611.376C167.958 610.816 167.19 610.024 166.63 609C166.07 607.96 165.79 606.76 165.79 605.4C165.79 604.04 166.062 602.848 166.606 601.824C167.15 600.8 167.91 600.016 168.886 599.472C169.878 598.912 171.014 598.632 172.294 598.632C173.542 598.632 174.646 598.904 175.606 599.448C176.566 599.992 177.302 600.744 177.814 601.704C178.342 602.648 178.606 603.72 178.606 604.92ZM176.35 604.464C176.35 603.632 176.166 602.92 175.798 602.328C175.43 601.72 174.926 601.264 174.286 600.96C173.662 600.64 172.966 600.48 172.198 600.48C171.094 600.48 170.15 600.832 169.366 601.536C168.598 602.24 168.158 603.216 168.046 604.464H176.35ZM183.673 600.984C184.057 600.232 184.601 599.648 185.305 599.232C186.025 598.816 186.897 598.608 187.921 598.608V600.864H187.345C184.897 600.864 183.673 602.192 183.673 604.848V612H181.489V598.848H183.673V600.984ZM201.77 598.848L193.85 618.192H191.594L194.186 611.856L188.882 598.848H191.306L195.434 609.504L199.514 598.848H201.77ZM206.629 600.648V608.4C206.629 609.04 206.765 609.496 207.037 609.768C207.309 610.024 207.781 610.152 208.453 610.152H210.061V612H208.093C206.877 612 205.965 611.72 205.357 611.16C204.749 610.6 204.445 609.68 204.445 608.4V600.648H202.741V598.848H204.445V595.536H206.629V598.848H210.061V600.648H206.629ZM219.235 598.608C220.227 598.608 221.123 598.824 221.923 599.256C222.723 599.672 223.347 600.304 223.795 601.152C224.259 602 224.491 603.032 224.491 604.248V612H222.331V604.56C222.331 603.248 222.003 602.248 221.347 601.56C220.691 600.856 219.795 600.504 218.659 600.504C217.507 600.504 216.587 600.864 215.899 601.584C215.227 602.304 214.891 603.352 214.891 604.728V612H212.707V594.24H214.891V600.72C215.323 600.048 215.915 599.528 216.667 599.16C217.435 598.792 218.291 598.608 219.235 598.608ZM229.187 596.712C228.771 596.712 228.419 596.568 228.131 596.28C227.843 595.992 227.699 595.64 227.699 595.224C227.699 594.808 227.843 594.456 228.131 594.168C228.419 593.88 228.771 593.736 229.187 593.736C229.587 593.736 229.923 593.88 230.195 594.168C230.483 594.456 230.627 594.808 230.627 595.224C230.627 595.64 230.483 595.992 230.195 596.28C229.923 596.568 229.587 596.712 229.187 596.712ZM230.243 598.848V612H228.059V598.848H230.243ZM240.373 598.608C241.973 598.608 243.269 599.096 244.261 600.072C245.253 601.032 245.749 602.424 245.749 604.248V612H243.589V604.56C243.589 603.248 243.261 602.248 242.605 601.56C241.949 600.856 241.053 600.504 239.917 600.504C238.765 600.504 237.845 600.864 237.157 601.584C236.485 602.304 236.149 603.352 236.149 604.728V612H233.965V598.848H236.149V600.72C236.581 600.048 237.165 599.528 237.901 599.16C238.653 598.792 239.477 598.608 240.373 598.608ZM254.741 598.632C255.877 598.632 256.869 598.88 257.717 599.376C258.581 599.872 259.221 600.496 259.637 601.248V598.848H261.845V612.288C261.845 613.488 261.589 614.552 261.077 615.48C260.565 616.424 259.829 617.16 258.869 617.688C257.925 618.216 256.821 618.48 255.557 618.48C253.829 618.48 252.389 618.072 251.237 617.256C250.085 616.44 249.405 615.328 249.197 613.92H251.357C251.597 614.72 252.093 615.36 252.845 615.84C253.597 616.336 254.501 616.584 255.557 616.584C256.757 616.584 257.733 616.208 258.485 615.456C259.253 614.704 259.637 613.648 259.637 612.288V609.528C259.205 610.296 258.565 610.936 257.717 611.448C256.869 611.96 255.877 612.216 254.741 612.216C253.573 612.216 252.509 611.928 251.549 611.352C250.605 610.776 249.861 609.968 249.317 608.928C248.773 607.888 248.501 606.704 248.501 605.376C248.501 604.032 248.773 602.856 249.317 601.848C249.861 600.824 250.605 600.032 251.549 599.472C252.509 598.912 253.573 598.632 254.741 598.632ZM259.637 605.4C259.637 604.408 259.437 603.544 259.037 602.808C258.637 602.072 258.093 601.512 257.405 601.128C256.733 600.728 255.989 600.528 255.173 600.528C254.357 600.528 253.613 600.72 252.941 601.104C252.269 601.488 251.733 602.048 251.333 602.784C250.933 603.52 250.733 604.384 250.733 605.376C250.733 606.384 250.933 607.264 251.333 608.016C251.733 608.752 252.269 609.32 252.941 609.72C253.613 610.104 254.357 610.296 255.173 610.296C255.989 610.296 256.733 610.104 257.405 609.72C258.093 609.32 258.637 608.752 259.037 608.016C259.437 607.264 259.637 606.392 259.637 605.4ZM283.262 598.848L275.342 618.192H273.086L275.678 611.856L270.374 598.848H272.798L276.926 609.504L281.006 598.848H283.262ZM291.193 612.216C289.961 612.216 288.841 611.936 287.833 611.376C286.841 610.816 286.057 610.024 285.481 609C284.921 607.96 284.641 606.76 284.641 605.4C284.641 604.056 284.929 602.872 285.505 601.848C286.097 600.808 286.897 600.016 287.905 599.472C288.913 598.912 290.041 598.632 291.289 598.632C292.537 598.632 293.665 598.912 294.673 599.472C295.681 600.016 296.473 600.8 297.049 601.824C297.641 602.848 297.937 604.04 297.937 605.4C297.937 606.76 297.633 607.96 297.025 609C296.433 610.024 295.625 610.816 294.601 611.376C293.577 611.936 292.441 612.216 291.193 612.216ZM291.193 610.296C291.977 610.296 292.713 610.112 293.401 609.744C294.089 609.376 294.641 608.824 295.057 608.088C295.489 607.352 295.705 606.456 295.705 605.4C295.705 604.344 295.497 603.448 295.081 602.712C294.665 601.976 294.121 601.432 293.449 601.08C292.777 600.712 292.049 600.528 291.265 600.528C290.465 600.528 289.729 600.712 289.057 601.08C288.401 601.432 287.873 601.976 287.473 602.712C287.073 603.448 286.873 604.344 286.873 605.4C286.873 606.472 287.065 607.376 287.449 608.112C287.849 608.848 288.377 609.4 289.033 609.768C289.689 610.12 290.409 610.296 291.193 610.296ZM312.473 598.848V612H310.289V610.056C309.873 610.728 309.289 611.256 308.537 611.64C307.801 612.008 306.985 612.192 306.089 612.192C305.065 612.192 304.145 611.984 303.329 611.568C302.513 611.136 301.865 610.496 301.385 609.648C300.921 608.8 300.689 607.768 300.689 606.552V598.848H302.849V606.264C302.849 607.56 303.177 608.56 303.833 609.264C304.489 609.952 305.385 610.296 306.521 610.296C307.689 610.296 308.609 609.936 309.281 609.216C309.953 608.496 310.289 607.448 310.289 606.072V598.848H312.473ZM328.967 598.608C330.567 598.608 331.863 599.096 332.855 600.072C333.847 601.032 334.343 602.424 334.343 604.248V612H332.183V604.56C332.183 603.248 331.855 602.248 331.199 601.56C330.543 600.856 329.647 600.504 328.511 600.504C327.359 600.504 326.439 600.864 325.751 601.584C325.079 602.304 324.743 603.352 324.743 604.728V612H322.559V598.848H324.743V600.72C325.175 600.048 325.759 599.528 326.495 599.16C327.247 598.792 328.071 598.608 328.967 598.608ZM349.911 604.92C349.911 605.336 349.887 605.776 349.839 606.24H339.327C339.407 607.536 339.847 608.552 340.647 609.288C341.463 610.008 342.447 610.368 343.599 610.368C344.543 610.368 345.327 610.152 345.951 609.72C346.591 609.272 347.039 608.68 347.295 607.944H349.647C349.295 609.208 348.591 610.24 347.535 611.04C346.479 611.824 345.167 612.216 343.599 612.216C342.351 612.216 341.231 611.936 340.239 611.376C339.263 610.816 338.495 610.024 337.935 609C337.375 607.96 337.095 606.76 337.095 605.4C337.095 604.04 337.367 602.848 337.911 601.824C338.455 600.8 339.215 600.016 340.191 599.472C341.183 598.912 342.319 598.632 343.599 598.632C344.847 598.632 345.951 598.904 346.911 599.448C347.871 599.992 348.607 600.744 349.119 601.704C349.647 602.648 349.911 603.72 349.911 604.92ZM347.655 604.464C347.655 603.632 347.471 602.92 347.103 602.328C346.735 601.72 346.231 601.264 345.591 600.96C344.967 600.64 344.271 600.48 343.503 600.48C342.399 600.48 341.455 600.832 340.671 601.536C339.903 602.24 339.463 603.216 339.351 604.464H347.655ZM364.793 604.92C364.793 605.336 364.769 605.776 364.721 606.24H354.209C354.289 607.536 354.729 608.552 355.529 609.288C356.345 610.008 357.329 610.368 358.481 610.368C359.425 610.368 360.209 610.152 360.833 609.72C361.473 609.272 361.921 608.68 362.177 607.944H364.529C364.177 609.208 363.473 610.24 362.417 611.04C361.361 611.824 360.049 612.216 358.481 612.216C357.233 612.216 356.113 611.936 355.121 611.376C354.145 610.816 353.377 610.024 352.817 609C352.257 607.96 351.977 606.76 351.977 605.4C351.977 604.04 352.249 602.848 352.793 601.824C353.337 600.8 354.097 600.016 355.073 599.472C356.065 598.912 357.201 598.632 358.481 598.632C359.729 598.632 360.833 598.904 361.793 599.448C362.753 599.992 363.489 600.744 364.001 601.704C364.529 602.648 364.793 603.72 364.793 604.92ZM362.537 604.464C362.537 603.632 362.353 602.92 361.985 602.328C361.617 601.72 361.113 601.264 360.473 600.96C359.849 600.64 359.153 600.48 358.385 600.48C357.281 600.48 356.337 600.832 355.553 601.536C354.785 602.24 354.345 603.216 354.233 604.464H362.537ZM366.86 605.376C366.86 604.032 367.132 602.856 367.676 601.848C368.22 600.824 368.964 600.032 369.908 599.472C370.868 598.912 371.94 598.632 373.124 598.632C374.148 598.632 375.1 598.872 375.98 599.352C376.86 599.816 377.532 600.432 377.996 601.2V594.24H380.204V612H377.996V609.528C377.564 610.312 376.924 610.96 376.076 611.472C375.228 611.968 374.236 612.216 373.1 612.216C371.932 612.216 370.868 611.928 369.908 611.352C368.964 610.776 368.22 609.968 367.676 608.928C367.132 607.888 366.86 606.704 366.86 605.376ZM377.996 605.4C377.996 604.408 377.796 603.544 377.396 602.808C376.996 602.072 376.452 601.512 375.764 601.128C375.092 600.728 374.348 600.528 373.532 600.528C372.716 600.528 371.972 600.72 371.3 601.104C370.628 601.488 370.092 602.048 369.692 602.784C369.292 603.52 369.092 604.384 369.092 605.376C369.092 606.384 369.292 607.264 369.692 608.016C370.092 608.752 370.628 609.32 371.3 609.72C371.972 610.104 372.716 610.296 373.532 610.296C374.348 610.296 375.092 610.104 375.764 609.72C376.452 609.32 376.996 608.752 377.396 608.016C377.796 607.264 377.996 606.392 377.996 605.4Z" fill="black"/>
<path d="M146.08 645.312H143.032V657H141.352V645.312H139.528V643.896H141.352V642.984C141.352 641.56 141.712 640.512 142.432 639.84C143.168 639.168 144.352 638.832 145.984 638.832V640.272C144.896 640.272 144.128 640.48 143.68 640.896C143.248 641.312 143.032 642.008 143.032 642.984V643.896H146.08V645.312ZM150.405 646.224C150.773 645.408 151.333 644.776 152.085 644.328C152.853 643.88 153.789 643.656 154.893 643.656V645.408H154.437C153.221 645.408 152.245 645.736 151.509 646.392C150.773 647.048 150.405 648.144 150.405 649.68V657H148.725V643.896H150.405V646.224ZM163.156 657.192C161.924 657.192 160.812 656.92 159.82 656.376C158.844 655.816 158.068 655.032 157.492 654.024C156.932 653 156.652 651.808 156.652 650.448C156.652 649.088 156.94 647.904 157.516 646.896C158.092 645.872 158.876 645.088 159.868 644.544C160.86 643.984 161.972 643.704 163.204 643.704C164.436 643.704 165.548 643.984 166.54 644.544C167.548 645.088 168.332 645.872 168.892 646.896C169.468 647.904 169.756 649.088 169.756 650.448C169.756 651.792 169.468 652.976 168.892 654C168.316 655.024 167.524 655.816 166.516 656.376C165.508 656.92 164.388 657.192 163.156 657.192ZM163.156 655.728C164.02 655.728 164.82 655.536 165.556 655.152C166.292 654.752 166.884 654.16 167.332 653.376C167.796 652.576 168.028 651.6 168.028 650.448C168.028 649.296 167.804 648.328 167.356 647.544C166.908 646.744 166.316 646.152 165.58 645.768C164.844 645.368 164.044 645.168 163.18 645.168C162.316 645.168 161.516 645.368 160.78 645.768C160.044 646.152 159.452 646.744 159.004 647.544C158.572 648.328 158.356 649.296 158.356 650.448C158.356 651.6 158.572 652.576 159.004 653.376C159.452 654.16 160.036 654.752 160.756 655.152C161.492 655.536 162.292 655.728 163.156 655.728ZM188.418 643.656C189.954 643.656 191.202 644.144 192.162 645.12C193.138 646.08 193.626 647.48 193.626 649.32V657H191.97V649.512C191.97 648.088 191.626 647 190.938 646.248C190.25 645.496 189.314 645.12 188.13 645.12C186.898 645.12 185.914 645.528 185.178 646.344C184.442 647.16 184.074 648.344 184.074 649.896V657H182.418V649.512C182.418 648.088 182.074 647 181.386 646.248C180.698 645.496 179.754 645.12 178.554 645.12C177.322 645.12 176.338 645.528 175.602 646.344C174.866 647.16 174.498 648.344 174.498 649.896V657H172.818V643.896H174.498V646.152C174.914 645.336 175.506 644.72 176.274 644.304C177.042 643.872 177.898 643.656 178.842 643.656C179.978 643.656 180.97 643.928 181.818 644.472C182.682 645.016 183.306 645.816 183.69 646.872C184.042 645.832 184.642 645.04 185.49 644.496C186.354 643.936 187.33 643.656 188.418 643.656ZM211.791 648.336C212.735 648.512 213.535 648.992 214.191 649.776C214.847 650.56 215.175 651.472 215.175 652.512C215.175 653.36 214.959 654.128 214.527 654.816C214.111 655.488 213.495 656.024 212.679 656.424C211.863 656.808 210.887 657 209.751 657H203.943V640.224H209.583C211.279 640.224 212.567 640.616 213.447 641.4C214.343 642.184 214.791 643.2 214.791 644.448C214.791 645.488 214.511 646.336 213.951 646.992C213.391 647.632 212.671 648.08 211.791 648.336ZM205.623 647.64H209.535C210.671 647.64 211.543 647.376 212.151 646.848C212.775 646.304 213.087 645.56 213.087 644.616C213.087 643.688 212.775 642.96 212.151 642.432C211.543 641.904 210.647 641.64 209.463 641.64H205.623V647.64ZM209.631 655.584C210.847 655.584 211.791 655.296 212.463 654.72C213.151 654.144 213.495 653.352 213.495 652.344C213.495 651.336 213.135 650.536 212.415 649.944C211.711 649.336 210.759 649.032 209.559 649.032H205.623V655.584H209.631ZM219.104 641.424C218.768 641.424 218.48 641.304 218.24 641.064C218 640.824 217.88 640.528 217.88 640.176C217.88 639.824 218 639.536 218.24 639.312C218.48 639.072 218.768 638.952 219.104 638.952C219.44 638.952 219.728 639.072 219.968 639.312C220.208 639.536 220.328 639.824 220.328 640.176C220.328 640.528 220.208 640.824 219.968 641.064C219.728 641.304 219.44 641.424 219.104 641.424ZM219.944 643.896V657H218.264V643.896H219.944ZM230.828 657L225.428 651.12V657H223.748V639.24H225.428V649.752L230.708 643.896H233.06L226.844 650.424L233.108 657H230.828ZM247.135 649.776C247.135 650.352 247.119 650.792 247.087 651.096H236.215C236.263 652.088 236.503 652.936 236.935 653.64C237.367 654.344 237.935 654.88 238.639 655.248C239.343 655.6 240.111 655.776 240.943 655.776C242.031 655.776 242.943 655.512 243.679 654.984C244.431 654.456 244.927 653.744 245.167 652.848H246.943C246.623 654.128 245.935 655.176 244.879 655.992C243.839 656.792 242.527 657.192 240.943 657.192C239.711 657.192 238.607 656.92 237.631 656.376C236.655 655.816 235.887 655.032 235.327 654.024C234.783 653 234.511 651.808 234.511 650.448C234.511 649.088 234.783 647.896 235.327 646.872C235.871 645.848 236.631 645.064 237.607 644.52C238.583 643.976 239.695 643.704 240.943 643.704C242.191 643.704 243.279 643.976 244.207 644.52C245.151 645.064 245.871 645.8 246.367 646.728C246.879 647.64 247.135 648.656 247.135 649.776ZM245.431 649.728C245.447 648.752 245.247 647.92 244.831 647.232C244.431 646.544 243.879 646.024 243.175 645.672C242.471 645.32 241.703 645.144 240.871 645.144C239.623 645.144 238.559 645.544 237.679 646.344C236.799 647.144 236.311 648.272 236.215 649.728H245.431ZM254.721 657.192C253.217 657.192 251.985 656.848 251.025 656.16C250.081 655.456 249.553 654.504 249.441 653.304H251.169C251.249 654.04 251.593 654.64 252.201 655.104C252.825 655.552 253.657 655.776 254.697 655.776C255.609 655.776 256.321 655.56 256.833 655.128C257.361 654.696 257.625 654.16 257.625 653.52C257.625 653.072 257.481 652.704 257.193 652.416C256.905 652.128 256.537 651.904 256.089 651.744C255.657 651.568 255.065 651.384 254.313 651.192C253.337 650.936 252.545 650.68 251.937 650.424C251.329 650.168 250.809 649.792 250.377 649.296C249.961 648.784 249.753 648.104 249.753 647.256C249.753 646.616 249.945 646.024 250.329 645.48C250.713 644.936 251.257 644.504 251.961 644.184C252.665 643.864 253.465 643.704 254.361 643.704C255.769 643.704 256.905 644.064 257.769 644.784C258.633 645.488 259.097 646.464 259.161 647.712H257.481C257.433 646.944 257.129 646.328 256.569 645.864C256.025 645.384 255.273 645.144 254.313 645.144C253.465 645.144 252.777 645.344 252.249 645.744C251.721 646.144 251.457 646.64 251.457 647.232C251.457 647.744 251.609 648.168 251.913 648.504C252.233 648.824 252.625 649.08 253.089 649.272C253.553 649.448 254.177 649.648 254.961 649.872C255.905 650.128 256.657 650.376 257.217 650.616C257.777 650.856 258.257 651.208 258.657 651.672C259.057 652.136 259.265 652.752 259.281 653.52C259.281 654.224 259.089 654.856 258.705 655.416C258.321 655.96 257.785 656.392 257.097 656.712C256.409 657.032 255.617 657.192 254.721 657.192ZM278.845 640.224V641.616H274.189V657H272.509V641.616H267.829V640.224H278.845ZM287.234 657.192C286.002 657.192 284.89 656.92 283.898 656.376C282.922 655.816 282.146 655.032 281.57 654.024C281.01 653 280.73 651.808 280.73 650.448C280.73 649.088 281.018 647.904 281.594 646.896C282.17 645.872 282.954 645.088 283.946 644.544C284.938 643.984 286.05 643.704 287.282 643.704C288.514 643.704 289.626 643.984 290.618 644.544C291.626 645.088 292.41 645.872 292.97 646.896C293.546 647.904 293.834 649.088 293.834 650.448C293.834 651.792 293.546 652.976 292.97 654C292.394 655.024 291.602 655.816 290.594 656.376C289.586 656.92 288.466 657.192 287.234 657.192ZM287.234 655.728C288.098 655.728 288.898 655.536 289.634 655.152C290.37 654.752 290.962 654.16 291.41 653.376C291.874 652.576 292.106 651.6 292.106 650.448C292.106 649.296 291.882 648.328 291.434 647.544C290.986 646.744 290.394 646.152 289.658 645.768C288.922 645.368 288.122 645.168 287.258 645.168C286.394 645.168 285.594 645.368 284.858 645.768C284.122 646.152 283.53 646.744 283.082 647.544C282.65 648.328 282.434 649.296 282.434 650.448C282.434 651.6 282.65 652.576 283.082 653.376C283.53 654.16 284.114 654.752 284.834 655.152C285.57 655.536 286.37 655.728 287.234 655.728ZM311.331 648.336C312.275 648.512 313.075 648.992 313.731 649.776C314.387 650.56 314.715 651.472 314.715 652.512C314.715 653.36 314.499 654.128 314.067 654.816C313.651 655.488 313.035 656.024 312.219 656.424C311.403 656.808 310.427 657 309.291 657H303.483V640.224H309.123C310.819 640.224 312.107 640.616 312.987 641.4C313.883 642.184 314.331 643.2 314.331 644.448C314.331 645.488 314.051 646.336 313.491 646.992C312.931 647.632 312.211 648.08 311.331 648.336ZM305.163 647.64H309.075C310.211 647.64 311.083 647.376 311.691 646.848C312.315 646.304 312.627 645.56 312.627 644.616C312.627 643.688 312.315 642.96 311.691 642.432C311.083 641.904 310.187 641.64 309.003 641.64H305.163V647.64ZM309.171 655.584C310.387 655.584 311.331 655.296 312.003 654.72C312.691 654.144 313.035 653.352 313.035 652.344C313.035 651.336 312.675 650.536 311.955 649.944C311.251 649.336 310.299 649.032 309.099 649.032H305.163V655.584H309.171ZM318.643 641.424C318.307 641.424 318.019 641.304 317.779 641.064C317.539 640.824 317.419 640.528 317.419 640.176C317.419 639.824 317.539 639.536 317.779 639.312C318.019 639.072 318.307 638.952 318.643 638.952C318.979 638.952 319.267 639.072 319.507 639.312C319.747 639.536 319.867 639.824 319.867 640.176C319.867 640.528 319.747 640.824 319.507 641.064C319.267 641.304 318.979 641.424 318.643 641.424ZM319.483 643.896V657H317.803V643.896H319.483ZM330.367 657L324.967 651.12V657H323.287V639.24H324.967V649.752L330.247 643.896H332.599L326.383 650.424L332.647 657H330.367ZM346.674 649.776C346.674 650.352 346.658 650.792 346.626 651.096H335.754C335.802 652.088 336.042 652.936 336.474 653.64C336.906 654.344 337.474 654.88 338.178 655.248C338.882 655.6 339.65 655.776 340.482 655.776C341.57 655.776 342.482 655.512 343.218 654.984C343.97 654.456 344.466 653.744 344.706 652.848H346.482C346.162 654.128 345.474 655.176 344.418 655.992C343.378 656.792 342.066 657.192 340.482 657.192C339.25 657.192 338.146 656.92 337.17 656.376C336.194 655.816 335.426 655.032 334.866 654.024C334.322 653 334.05 651.808 334.05 650.448C334.05 649.088 334.322 647.896 334.866 646.872C335.41 645.848 336.17 645.064 337.146 644.52C338.122 643.976 339.234 643.704 340.482 643.704C341.73 643.704 342.818 643.976 343.746 644.52C344.69 645.064 345.41 645.8 345.906 646.728C346.418 647.64 346.674 648.656 346.674 649.776ZM344.97 649.728C344.986 648.752 344.786 647.92 344.37 647.232C343.97 646.544 343.418 646.024 342.714 645.672C342.01 645.32 341.242 645.144 340.41 645.144C339.162 645.144 338.098 645.544 337.218 646.344C336.338 647.144 335.85 648.272 335.754 649.728H344.97ZM365.262 657L361.11 649.992H358.014V657H356.334V640.224H361.374C363.246 640.224 364.662 640.672 365.622 641.568C366.598 642.464 367.086 643.64 367.086 645.096C367.086 646.312 366.734 647.352 366.03 648.216C365.342 649.064 364.318 649.616 362.958 649.872L367.278 657H365.262ZM358.014 648.624H361.398C362.71 648.624 363.694 648.304 364.35 647.664C365.022 647.024 365.358 646.168 365.358 645.096C365.358 643.992 365.038 643.144 364.398 642.552C363.758 641.944 362.75 641.64 361.374 641.64H358.014V648.624ZM382.276 649.776C382.276 650.352 382.26 650.792 382.228 651.096H371.356C371.404 652.088 371.644 652.936 372.076 653.64C372.508 654.344 373.076 654.88 373.78 655.248C374.484 655.6 375.252 655.776 376.084 655.776C377.172 655.776 378.084 655.512 378.82 654.984C379.572 654.456 380.068 653.744 380.308 652.848H382.084C381.764 654.128 381.076 655.176 380.02 655.992C378.98 656.792 377.668 657.192 376.084 657.192C374.852 657.192 373.748 656.92 372.772 656.376C371.796 655.816 371.028 655.032 370.468 654.024C369.924 653 369.652 651.808 369.652 650.448C369.652 649.088 369.924 647.896 370.468 646.872C371.012 645.848 371.772 645.064 372.748 644.52C373.724 643.976 374.836 643.704 376.084 643.704C377.332 643.704 378.42 643.976 379.348 644.52C380.292 645.064 381.012 645.8 381.508 646.728C382.02 647.64 382.276 648.656 382.276 649.776ZM380.572 649.728C380.588 648.752 380.388 647.92 379.972 647.232C379.572 646.544 379.02 646.024 378.316 645.672C377.612 645.32 376.844 645.144 376.012 645.144C374.764 645.144 373.7 645.544 372.82 646.344C371.94 647.144 371.452 648.272 371.356 649.728H380.572ZM387.006 646.776C387.422 645.896 388.078 645.168 388.974 644.592C389.886 644 390.966 643.704 392.214 643.704C393.398 643.704 394.462 643.984 395.406 644.544C396.366 645.088 397.11 645.872 397.638 646.896C398.182 647.904 398.454 649.08 398.454 650.424C398.454 651.768 398.182 652.952 397.638 653.976C397.11 655 396.366 655.792 395.406 656.352C394.462 656.912 393.398 657.192 392.214 657.192C390.982 657.192 389.91 656.904 388.998 656.328C388.086 655.736 387.422 655 387.006 654.12V663.192H385.35V643.896H387.006V646.776ZM396.75 650.424C396.75 649.336 396.534 648.4 396.102 647.616C395.686 646.816 395.11 646.208 394.374 645.792C393.638 645.376 392.806 645.168 391.878 645.168C390.982 645.168 390.158 645.384 389.406 645.816C388.67 646.248 388.086 646.864 387.654 647.664C387.222 648.464 387.006 649.392 387.006 650.448C387.006 651.504 387.222 652.432 387.654 653.232C388.086 654.032 388.67 654.648 389.406 655.08C390.158 655.512 390.982 655.728 391.878 655.728C392.806 655.728 393.638 655.52 394.374 655.104C395.11 654.672 395.686 654.056 396.102 653.256C396.534 652.44 396.75 651.496 396.75 650.424ZM400.777 650.424C400.777 649.08 401.041 647.904 401.569 646.896C402.113 645.872 402.857 645.088 403.801 644.544C404.761 643.984 405.841 643.704 407.041 643.704C408.289 643.704 409.361 643.992 410.257 644.568C411.169 645.144 411.825 645.88 412.225 646.776V643.896H413.905V657H412.225V654.096C411.809 654.992 411.145 655.736 410.233 656.328C409.337 656.904 408.265 657.192 407.017 657.192C405.833 657.192 404.761 656.912 403.801 656.352C402.857 655.792 402.113 655 401.569 653.976C401.041 652.952 400.777 651.768 400.777 650.424ZM412.225 650.448C412.225 649.392 412.009 648.464 411.577 647.664C411.145 646.864 410.553 646.248 409.801 645.816C409.065 645.384 408.249 645.168 407.353 645.168C406.425 645.168 405.593 645.376 404.857 645.792C404.121 646.208 403.537 646.816 403.105 647.616C402.689 648.4 402.481 649.336 402.481 650.424C402.481 651.496 402.689 652.44 403.105 653.256C403.537 654.056 404.121 654.672 404.857 655.104C405.593 655.52 406.425 655.728 407.353 655.728C408.249 655.728 409.065 655.512 409.801 655.08C410.553 654.648 411.145 654.032 411.577 653.232C412.009 652.432 412.225 651.504 412.225 650.448ZM418.58 641.424C418.244 641.424 417.956 641.304 417.716 641.064C417.476 640.824 417.356 640.528 417.356 640.176C417.356 639.824 417.476 639.536 417.716 639.312C417.956 639.072 418.244 638.952 418.58 638.952C418.916 638.952 419.204 639.072 419.444 639.312C419.684 639.536 419.804 639.824 419.804 640.176C419.804 640.528 419.684 640.824 419.444 641.064C419.204 641.304 418.916 641.424 418.58 641.424ZM419.42 643.896V657H417.74V643.896H419.42ZM424.905 646.224C425.273 645.408 425.833 644.776 426.585 644.328C427.353 643.88 428.289 643.656 429.393 643.656V645.408H428.937C427.721 645.408 426.745 645.736 426.009 646.392C425.273 647.048 424.905 648.144 424.905 649.68V657H423.225V643.896H424.905V646.224ZM437.738 650.424C437.738 649.08 438.002 647.904 438.53 646.896C439.074 645.872 439.818 645.088 440.762 644.544C441.722 643.984 442.802 643.704 444.002 643.704C445.25 643.704 446.322 643.992 447.218 644.568C448.13 645.144 448.786 645.88 449.186 646.776V643.896H450.866V657H449.186V654.096C448.77 654.992 448.106 655.736 447.194 656.328C446.298 656.904 445.226 657.192 443.978 657.192C442.794 657.192 441.722 656.912 440.762 656.352C439.818 655.792 439.074 655 438.53 653.976C438.002 652.952 437.738 651.768 437.738 650.424ZM449.186 650.448C449.186 649.392 448.97 648.464 448.538 647.664C448.106 646.864 447.514 646.248 446.762 645.816C446.026 645.384 445.21 645.168 444.314 645.168C443.386 645.168 442.554 645.376 441.818 645.792C441.082 646.208 440.498 646.816 440.066 647.616C439.65 648.4 439.442 649.336 439.442 650.424C439.442 651.496 439.65 652.44 440.066 653.256C440.498 654.056 441.082 654.672 441.818 655.104C442.554 655.52 443.386 655.728 444.314 655.728C445.21 655.728 446.026 655.512 446.762 655.08C447.514 654.648 448.106 654.032 448.538 653.232C448.97 652.432 449.186 651.504 449.186 650.448ZM460.845 643.656C462.413 643.656 463.693 644.144 464.685 645.12C465.677 646.08 466.173 647.48 466.173 649.32V657H464.517V649.512C464.517 648.088 464.157 647 463.437 646.248C462.733 645.496 461.765 645.12 460.533 645.12C459.269 645.12 458.261 645.52 457.509 646.32C456.757 647.12 456.381 648.296 456.381 649.848V657H454.701V643.896H456.381V646.128C456.797 645.328 457.397 644.72 458.181 644.304C458.965 643.872 459.853 643.656 460.845 643.656ZM469.121 650.424C469.121 649.08 469.393 647.904 469.937 646.896C470.481 645.872 471.225 645.088 472.169 644.544C473.129 643.984 474.209 643.704 475.409 643.704C476.561 643.704 477.601 643.984 478.529 644.544C479.457 645.104 480.137 645.832 480.569 646.728V639.24H482.249V657H480.569V654.072C480.169 654.984 479.513 655.736 478.601 656.328C477.689 656.904 476.617 657.192 475.385 657.192C474.185 657.192 473.105 656.912 472.145 656.352C471.201 655.792 470.457 655 469.913 653.976C469.385 652.952 469.121 651.768 469.121 650.424ZM480.569 650.448C480.569 649.392 480.353 648.464 479.921 647.664C479.489 646.864 478.897 646.248 478.145 645.816C477.409 645.384 476.593 645.168 475.697 645.168C474.769 645.168 473.937 645.376 473.201 645.792C472.465 646.208 471.881 646.816 471.449 647.616C471.033 648.4 470.825 649.336 470.825 650.424C470.825 651.496 471.033 652.44 471.449 653.256C471.881 654.056 472.465 654.672 473.201 655.104C473.937 655.52 474.769 655.728 475.697 655.728C476.593 655.728 477.409 655.512 478.145 655.08C478.897 654.648 479.489 654.032 479.921 653.232C480.353 652.432 480.569 651.504 480.569 650.448ZM497.758 657.168C496.654 657.168 495.678 656.976 494.83 656.592C493.998 656.208 493.342 655.672 492.862 654.984C492.382 654.296 492.126 653.528 492.094 652.68H493.87C493.95 653.496 494.31 654.216 494.95 654.84C495.59 655.448 496.526 655.752 497.758 655.752C498.894 655.752 499.79 655.464 500.446 654.888C501.118 654.296 501.454 653.552 501.454 652.656C501.454 651.936 501.27 651.36 500.902 650.928C500.534 650.48 500.078 650.152 499.534 649.944C498.99 649.72 498.238 649.48 497.278 649.224C496.158 648.92 495.27 648.624 494.614 648.336C493.958 648.048 493.398 647.6 492.934 646.992C492.47 646.384 492.238 645.56 492.238 644.52C492.238 643.656 492.462 642.888 492.91 642.216C493.358 641.528 493.99 640.992 494.806 640.608C495.622 640.224 496.558 640.032 497.614 640.032C499.166 640.032 500.414 640.416 501.358 641.184C502.318 641.936 502.87 642.912 503.014 644.112H501.19C501.078 643.424 500.702 642.816 500.062 642.288C499.422 641.744 498.558 641.472 497.47 641.472C496.462 641.472 495.622 641.744 494.95 642.288C494.278 642.816 493.942 643.544 493.942 644.472C493.942 645.176 494.126 645.744 494.494 646.176C494.862 646.608 495.318 646.936 495.862 647.16C496.422 647.384 497.174 647.624 498.118 647.88C499.206 648.184 500.086 648.488 500.758 648.792C501.43 649.08 501.998 649.528 502.462 650.136C502.926 650.744 503.158 651.56 503.158 652.584C503.158 653.368 502.95 654.112 502.534 654.816C502.118 655.52 501.502 656.088 500.686 656.52C499.87 656.952 498.894 657.168 497.758 657.168ZM518.26 649.776C518.26 650.352 518.244 650.792 518.212 651.096H507.34C507.388 652.088 507.628 652.936 508.06 653.64C508.492 654.344 509.06 654.88 509.764 655.248C510.468 655.6 511.236 655.776 512.068 655.776C513.156 655.776 514.068 655.512 514.804 654.984C515.556 654.456 516.052 653.744 516.292 652.848H518.068C517.748 654.128 517.06 655.176 516.004 655.992C514.964 656.792 513.652 657.192 512.068 657.192C510.836 657.192 509.732 656.92 508.756 656.376C507.78 655.816 507.012 655.032 506.452 654.024C505.908 653 505.636 651.808 505.636 650.448C505.636 649.088 505.908 647.896 506.452 646.872C506.996 645.848 507.756 645.064 508.732 644.52C509.708 643.976 510.82 643.704 512.068 643.704C513.316 643.704 514.404 643.976 515.332 644.52C516.276 645.064 516.996 645.8 517.492 646.728C518.004 647.64 518.26 648.656 518.26 649.776ZM516.556 649.728C516.572 648.752 516.372 647.92 515.956 647.232C515.556 646.544 515.004 646.024 514.3 645.672C513.596 645.32 512.828 645.144 511.996 645.144C510.748 645.144 509.684 645.544 508.804 646.344C507.924 647.144 507.436 648.272 507.34 649.728H516.556ZM523.014 646.224C523.382 645.408 523.942 644.776 524.694 644.328C525.462 643.88 526.398 643.656 527.502 643.656V645.408H527.046C525.83 645.408 524.854 645.736 524.118 646.392C523.382 647.048 523.014 648.144 523.014 649.68V657H521.334V643.896H523.014V646.224ZM534.685 655.368L539.101 643.896H540.877L535.621 657H533.725L528.469 643.896H530.269L534.685 655.368ZM543.994 641.424C543.658 641.424 543.37 641.304 543.13 641.064C542.89 640.824 542.77 640.528 542.77 640.176C542.77 639.824 542.89 639.536 543.13 639.312C543.37 639.072 543.658 638.952 543.994 638.952C544.33 638.952 544.618 639.072 544.858 639.312C545.098 639.536 545.218 639.824 545.218 640.176C545.218 640.528 545.098 640.824 544.858 641.064C544.618 641.304 544.33 641.424 543.994 641.424ZM544.834 643.896V657H543.154V643.896H544.834ZM547.871 650.448C547.871 649.088 548.143 647.904 548.687 646.896C549.231 645.872 549.983 645.088 550.943 644.544C551.903 643.984 552.999 643.704 554.231 643.704C555.847 643.704 557.175 644.104 558.215 644.904C559.271 645.704 559.951 646.792 560.255 648.168H558.455C558.231 647.224 557.743 646.488 556.991 645.96C556.255 645.416 555.335 645.144 554.231 645.144C553.351 645.144 552.559 645.344 551.855 645.744C551.151 646.144 550.591 646.744 550.175 647.544C549.775 648.328 549.575 649.296 549.575 650.448C549.575 651.6 549.775 652.576 550.175 653.376C550.591 654.176 551.151 654.776 551.855 655.176C552.559 655.576 553.351 655.776 554.231 655.776C555.335 655.776 556.255 655.512 556.991 654.984C557.743 654.44 558.231 653.688 558.455 652.728H560.255C559.951 654.072 559.271 655.152 558.215 655.968C557.159 656.784 555.831 657.192 554.231 657.192C552.999 657.192 551.903 656.92 550.943 656.376C549.983 655.816 549.231 655.032 548.687 654.024C548.143 653 547.871 651.808 547.871 650.448ZM575.214 649.776C575.214 650.352 575.198 650.792 575.166 651.096H564.294C564.342 652.088 564.582 652.936 565.014 653.64C565.446 654.344 566.014 654.88 566.718 655.248C567.422 655.6 568.19 655.776 569.022 655.776C570.11 655.776 571.022 655.512 571.758 654.984C572.51 654.456 573.006 653.744 573.246 652.848H575.022C574.702 654.128 574.014 655.176 572.958 655.992C571.918 656.792 570.606 657.192 569.022 657.192C567.79 657.192 566.686 656.92 565.71 656.376C564.734 655.816 563.966 655.032 563.406 654.024C562.862 653 562.59 651.808 562.59 650.448C562.59 649.088 562.862 647.896 563.406 646.872C563.95 645.848 564.71 645.064 565.686 644.52C566.662 643.976 567.774 643.704 569.022 643.704C570.27 643.704 571.358 643.976 572.286 644.52C573.23 645.064 573.95 645.8 574.446 646.728C574.958 647.64 575.214 648.656 575.214 649.776ZM573.51 649.728C573.526 648.752 573.326 647.92 572.91 647.232C572.51 646.544 571.958 646.024 571.254 645.672C570.55 645.32 569.782 645.144 568.95 645.144C567.702 645.144 566.638 645.544 565.758 646.344C564.878 647.144 564.39 648.272 564.294 649.728H573.51Z" fill="black"/>
<defs>
<radialGradient id="paint0_radial" cx="0" cy="0" r="1" gradientUnits="userSpaceOnUse" gradientTransform="translate(960 522.07) rotate(90) scale(557.93 960)">
<stop stop-color="#B1B1B1"/>
<stop offset="1" stop-color="#767676"/>
</radialGradient>
</defs>
</svg>
