<svg width="137" height="137" viewBox="0 0 137 137" fill="none" xmlns="http://www.w3.org/2000/svg">
<g clip-path="url(#clip0)">
<path d="M100.864 7.62784H100.623C82.956 7.62784 73.0783 20.5572 68.5008 29.3105C63.8428 20.5569 54.0457 7.62784 36.3784 7.62784H36.0575C16.9442 7.78865 1.01471 24.0906 0.0511592 44.7294C-1.15375 70.0257 19.0324 87.0506 49.2272 112.749C54.4474 117.246 59.9887 121.984 65.8508 127.044L68.5011 129.372L71.1515 127.044C76.9333 121.984 82.5549 117.246 87.775 112.749C117.97 87.0506 138.154 70.0257 136.949 44.7294C135.985 24.0903 119.977 7.78838 100.864 7.62784Z" fill="#F64352"/>
<path d="M136.949 44.7294C138.153 70.0257 117.969 87.0506 87.7744 112.749C82.5542 117.246 76.9327 121.984 71.1508 127.044L68.5005 129.372V29.3105C73.0779 20.5569 82.9556 7.62784 100.623 7.62784H100.864C119.977 7.78838 135.985 24.0903 136.949 44.7294Z" fill="#F64352"/>
</g>
<defs>
<clipPath id="clip0">
<rect width="137" height="137" fill="white"/>
</clipPath>
</defs>
</svg>
