<svg width="137" height="123" viewBox="0 0 137 123" fill="none" xmlns="http://www.w3.org/2000/svg">
<path d="M65.4111 23.9547L68.5278 29.8118L71.6024 23.9324C75.9845 15.5526 84.9516 4.12784 100.623 4.12784H100.849C117.898 4.27916 132.566 18.9091 133.453 37.8928L133.453 37.8959C134.002 49.4143 129.746 59.1735 121.425 69.3764C113.058 79.6352 100.859 90.0176 85.8113 102.824L85.5066 103.083L85.4986 103.09L85.4906 103.097C83.6528 104.68 81.752 106.305 79.8056 107.968C76.2689 110.99 72.5814 114.142 68.8466 117.41L68.8413 117.414L68.5011 117.713L68.161 117.414L68.1493 117.404L68.1376 117.394C64.807 114.52 61.5664 111.737 58.4344 109.048C56.0619 107.011 53.7516 105.027 51.5116 103.097L51.5037 103.09L51.4956 103.083L51.1867 102.821C36.141 90.0156 23.9429 79.6342 15.5766 69.3763C7.25506 59.1734 2.99856 49.4143 3.5472 37.8959L3.54735 37.8926C4.43407 18.8995 19.0321 4.27934 36.0727 4.12784H36.3784C52.043 4.12784 60.9331 15.5393 65.4111 23.9547Z" stroke="black" stroke-width="7"/>
</svg>
