<svg width="144" height="144" viewBox="0 0 144 144" fill="none" xmlns="http://www.w3.org/2000/svg">
<path d="M58.1289 72.0304L111.999 18.158C113.482 16.6782 114.298 14.6997 114.298 12.59C114.298 10.4792 113.482 8.50185 111.999 7.01971L107.279 2.30166C105.798 0.817171 103.818 0 101.708 0C99.5986 0 97.6212 0.817171 96.1391 2.30166L31.9982 66.4414C30.5102 67.9282 29.6953 69.9149 29.7012 72.0269C29.6953 74.1483 30.509 76.1327 31.9982 77.6207L96.0793 141.698C97.5615 143.183 99.5388 144 101.65 144C103.759 144 105.737 143.183 107.22 141.698L111.939 136.98C115.01 133.909 115.01 128.91 111.939 125.841L58.1289 72.0304Z" fill="#F64352"/>
</svg>
