<svg width="521" height="278" viewBox="0 0 521 278" fill="none" xmlns="http://www.w3.org/2000/svg">
<mask id="path-1-inside-1" fill="white">
<path d="M260.466 227.268C211.431 227.268 171.682 187.517 171.682 138.487C171.682 89.452 211.431 49.7013 260.466 49.7013C309.499 49.7013 349.25 89.452 349.25 138.487C349.25 187.517 309.499 227.268 260.466 227.268ZM375.006 143.205V133.755H366.54C366.362 129.661 365.952 125.624 365.32 121.664L373.595 119.948L371.687 110.695L363.424 112.405C362.451 108.541 361.254 104.767 359.867 101.079L367.626 97.7547L363.91 89.076L356.163 92.3894C354.752 89.472 353.206 86.6347 351.55 83.8773L358.591 79.2107L353.376 71.3333L346.319 76.008C343.982 72.7974 341.486 69.728 338.815 66.8027L344.796 60.8253L338.116 54.148L332.139 60.1253C329.15 57.392 325.994 54.84 322.703 52.4627L327.362 45.3814L319.47 40.1907L314.822 47.2494C311.435 45.2293 307.918 43.4013 304.303 41.7653L307.446 33.912L298.679 30.3987L295.538 38.2427C292.503 37.1787 289.411 36.24 286.258 35.4534L287.94 27.188L278.684 25.2947L277.002 33.5787C273.127 32.9734 269.186 32.576 265.191 32.4013V23.944H255.74V32.4013C251.646 32.5827 247.608 32.9893 243.646 33.6253L241.936 25.3507L232.686 27.2587L234.394 35.5174C230.523 36.4947 226.751 37.6947 223.067 39.0787L219.744 31.32L211.06 35.04L214.374 42.7827C211.458 44.1974 208.62 45.7387 205.859 47.392L201.195 40.3494L193.318 45.564L197.988 52.6227C194.786 54.9587 191.708 57.456 188.792 60.1253L182.815 54.148L176.135 60.8253L182.115 66.8027C179.38 69.792 176.83 72.956 174.444 76.2387L167.37 71.588L162.176 79.4734L169.239 84.1227C167.215 87.5093 165.391 91.0307 163.746 94.64L155.896 91.5L152.383 100.268L160.228 103.407C159.163 106.443 158.226 109.536 157.442 112.683L149.168 111.005L147.284 120.265L155.559 121.943C154.955 125.815 154.564 129.756 154.39 133.755H145.924V143.205H154.39C154.57 147.3 154.978 151.337 155.611 155.304L147.336 157.005L149.244 166.257L157.506 164.555C158.479 168.419 159.676 172.195 161.063 175.875L153.306 179.197L157.022 187.885L164.767 184.571C166.179 187.488 167.724 190.325 169.38 193.092L162.339 197.749L167.554 205.627L174.611 200.961C176.95 204.156 179.444 207.232 182.115 210.149L176.135 216.127L182.815 222.812L188.792 216.827C191.78 219.561 194.936 222.12 198.227 224.505L193.57 231.579L201.462 236.771L206.104 229.703C209.495 231.731 213.012 233.55 216.628 235.204L213.484 243.049L222.251 246.562L225.391 238.717C228.427 239.783 231.52 240.72 234.672 241.499L232.991 249.781L242.247 251.657L243.927 243.391C247.803 243.995 251.746 244.377 255.74 244.552V253.024H265.191V244.552C269.284 244.377 273.323 243.964 277.284 243.336L278.994 251.609L288.247 249.703L286.536 241.436C290.404 240.467 294.18 239.273 297.863 237.883L301.187 245.648L309.87 241.928L306.556 234.179C309.472 232.772 312.31 231.221 315.072 229.56L319.735 236.603L327.616 231.388L322.942 224.331C326.144 221.993 329.222 219.497 332.139 216.827L338.116 222.812L344.796 216.127L338.815 210.149C341.55 207.161 344.102 204.005 346.486 200.723L353.56 205.381L358.754 197.48L351.694 192.837C353.715 189.451 355.539 185.937 357.186 182.313L365.034 185.461L368.547 176.693L360.702 173.553C361.767 170.517 362.704 167.425 363.488 164.271L371.762 165.955L373.646 156.703L365.372 155.017C365.975 151.139 366.366 147.196 366.54 143.205H375.006Z"/>
</mask>
<path d="M260.466 227.268C211.431 227.268 171.682 187.517 171.682 138.487C171.682 89.452 211.431 49.7013 260.466 49.7013C309.499 49.7013 349.25 89.452 349.25 138.487C349.25 187.517 309.499 227.268 260.466 227.268ZM375.006 143.205V133.755H366.54C366.362 129.661 365.952 125.624 365.32 121.664L373.595 119.948L371.687 110.695L363.424 112.405C362.451 108.541 361.254 104.767 359.867 101.079L367.626 97.7547L363.91 89.076L356.163 92.3894C354.752 89.472 353.206 86.6347 351.55 83.8773L358.591 79.2107L353.376 71.3333L346.319 76.008C343.982 72.7974 341.486 69.728 338.815 66.8027L344.796 60.8253L338.116 54.148L332.139 60.1253C329.15 57.392 325.994 54.84 322.703 52.4627L327.362 45.3814L319.47 40.1907L314.822 47.2494C311.435 45.2293 307.918 43.4013 304.303 41.7653L307.446 33.912L298.679 30.3987L295.538 38.2427C292.503 37.1787 289.411 36.24 286.258 35.4534L287.94 27.188L278.684 25.2947L277.002 33.5787C273.127 32.9734 269.186 32.576 265.191 32.4013V23.944H255.74V32.4013C251.646 32.5827 247.608 32.9893 243.646 33.6253L241.936 25.3507L232.686 27.2587L234.394 35.5174C230.523 36.4947 226.751 37.6947 223.067 39.0787L219.744 31.32L211.06 35.04L214.374 42.7827C211.458 44.1974 208.62 45.7387 205.859 47.392L201.195 40.3494L193.318 45.564L197.988 52.6227C194.786 54.9587 191.708 57.456 188.792 60.1253L182.815 54.148L176.135 60.8253L182.115 66.8027C179.38 69.792 176.83 72.956 174.444 76.2387L167.37 71.588L162.176 79.4734L169.239 84.1227C167.215 87.5093 165.391 91.0307 163.746 94.64L155.896 91.5L152.383 100.268L160.228 103.407C159.163 106.443 158.226 109.536 157.442 112.683L149.168 111.005L147.284 120.265L155.559 121.943C154.955 125.815 154.564 129.756 154.39 133.755H145.924V143.205H154.39C154.57 147.3 154.978 151.337 155.611 155.304L147.336 157.005L149.244 166.257L157.506 164.555C158.479 168.419 159.676 172.195 161.063 175.875L153.306 179.197L157.022 187.885L164.767 184.571C166.179 187.488 167.724 190.325 169.38 193.092L162.339 197.749L167.554 205.627L174.611 200.961C176.95 204.156 179.444 207.232 182.115 210.149L176.135 216.127L182.815 222.812L188.792 216.827C191.78 219.561 194.936 222.12 198.227 224.505L193.57 231.579L201.462 236.771L206.104 229.703C209.495 231.731 213.012 233.55 216.628 235.204L213.484 243.049L222.251 246.562L225.391 238.717C228.427 239.783 231.52 240.72 234.672 241.499L232.991 249.781L242.247 251.657L243.927 243.391C247.803 243.995 251.746 244.377 255.74 244.552V253.024H265.191V244.552C269.284 244.377 273.323 243.964 277.284 243.336L278.994 251.609L288.247 249.703L286.536 241.436C290.404 240.467 294.18 239.273 297.863 237.883L301.187 245.648L309.87 241.928L306.556 234.179C309.472 232.772 312.31 231.221 315.072 229.56L319.735 236.603L327.616 231.388L322.942 224.331C326.144 221.993 329.222 219.497 332.139 216.827L338.116 222.812L344.796 216.127L338.815 210.149C341.55 207.161 344.102 204.005 346.486 200.723L353.56 205.381L358.754 197.48L351.694 192.837C353.715 189.451 355.539 185.937 357.186 182.313L365.034 185.461L368.547 176.693L360.702 173.553C361.767 170.517 362.704 167.425 363.488 164.271L371.762 165.955L373.646 156.703L365.372 155.017C365.975 151.139 366.366 147.196 366.54 143.205H375.006Z" fill="#2D2D2D" stroke="#F64352" stroke-width="10" mask="url(#path-1-inside-1)"/>
<path d="M298.036 46.688L316.96 24.7107L365.884 66.84L346.96 88.8173L298.036 46.688Z" fill="#2D2D2D"/>
<path d="M316.917 24.156L316.404 24.752L297.995 46.132L297.48 46.7293L298.079 47.2427L346.404 88.8574L347.001 89.372L347.516 88.7747L365.925 67.396L366.44 66.8L365.843 66.2854L317.516 24.6693L316.917 24.156ZM317.001 25.2667L365.328 66.8827L346.917 88.2614L298.592 46.6467L317.001 25.2667Z" fill="#F64352"/>
<path d="M180.185 208.277C174.44 208.277 168.997 210.772 165.252 215.123C161.819 219.109 160.143 224.195 160.535 229.442C160.927 234.688 163.337 239.467 167.325 242.9C170.897 245.977 175.459 247.672 180.167 247.672C185.913 247.672 191.357 245.177 195.103 240.826C198.536 236.84 200.212 231.755 199.82 226.508C199.428 221.263 197.016 216.483 193.029 213.049C189.456 209.972 184.895 208.277 180.185 208.277ZM134.387 229.931L168.861 189.895C170.245 188.288 172.111 187.365 173.98 187.365C175.4 187.365 176.757 187.888 177.904 188.876C177.907 188.877 181.643 192.139 181.779 192.252C184.617 194.056 187.251 195.571 190.384 195.571C195.583 195.571 201.811 191.149 209.985 181.656L313.995 64.3134L327.172 75.66L223.159 193.007C207.28 211.444 211.955 216.815 216.903 222.5L220.784 225.799C222.135 226.961 222.893 228.532 222.923 230.221C222.952 231.849 222.311 233.509 221.117 234.893L186.645 274.928L134.387 229.931Z" fill="#2D2D2D"/>
<path d="M180.168 247.277C175.554 247.277 171.084 245.617 167.583 242.603C163.675 239.237 161.311 234.554 160.928 229.412C160.544 224.271 162.187 219.287 165.551 215.38C169.222 211.116 174.555 208.671 180.186 208.671C184.8 208.671 189.271 210.332 192.772 213.348C196.68 216.712 199.043 221.396 199.427 226.537C199.811 231.68 198.17 236.662 194.804 240.569C191.134 244.833 185.799 247.277 180.168 247.277ZM313.958 63.7613L313.442 64.3427L209.695 181.391C201.592 190.799 195.459 195.176 190.383 195.176C187.374 195.176 184.804 193.705 182 191.923C181.695 191.66 179.583 189.816 178.166 188.58C176.943 187.527 175.496 186.972 173.98 186.972C171.996 186.971 170.022 187.943 168.563 189.637L134.346 229.375L133.831 229.971L134.428 230.485L186.09 274.969L186.688 275.484L187.202 274.887L221.418 235.15C222.672 233.692 223.348 231.938 223.318 230.215C223.286 228.411 222.478 226.737 221.043 225.501C219.604 224.279 217.462 222.456 217.164 222.2C212.13 216.413 207.855 211.384 223.462 193.26L327.202 76.22L327.732 75.6213L327.127 75.1L314.546 64.268L313.958 63.7613ZM180.168 248.067C185.814 248.067 191.428 245.699 195.402 241.084C202.643 232.676 201.695 219.991 193.287 212.751C189.492 209.483 184.828 207.883 180.186 207.883C174.54 207.884 168.926 210.251 164.954 214.865C157.712 223.273 158.659 235.959 167.068 243.199C170.862 246.467 175.526 248.067 180.168 248.067ZM314.031 64.8653L326.612 75.6973L222.863 192.745C207.243 210.885 211.154 216.495 216.606 222.759L220.528 226.099C223.187 228.387 223.11 231.977 220.819 234.636L186.604 274.372L134.943 229.888L169.16 190.152C170.486 188.612 172.231 187.76 173.98 187.76C175.252 187.76 176.528 188.211 177.647 189.175L181.531 192.559C184.394 194.38 187.108 195.964 190.383 195.964C195.127 195.964 201.044 192.643 210.284 181.913L314.031 64.8653Z" fill="#F64352"/>
<path d="M217.505 222.249L220.121 219.212L223.425 222.056L220.811 225.095L217.505 222.249Z" fill="#2D2D2D"/>
<path d="M220.08 218.656L219.566 219.253L217.464 221.693L216.95 222.292L217.547 222.805L220.255 225.136L220.854 225.649L221.367 225.052L223.468 222.612L223.982 222.015L223.384 221.501L220.678 219.171L220.08 218.656ZM220.163 219.768L222.87 222.099L220.77 224.538L218.062 222.208L220.163 219.768Z" fill="#F64352"/>
<path d="M215.651 223.238L218.27 220.2L222.723 224.037L220.108 227.076L215.651 223.238Z" fill="#2D2D2D"/>
<path d="M218.227 219.644L217.713 220.241L215.611 222.683L215.095 223.279L215.693 223.795L219.552 227.117L220.149 227.632L220.664 227.033L222.764 224.593L223.277 223.996L222.681 223.483L218.824 220.159L218.227 219.644ZM218.309 220.756L222.167 224.079L220.067 226.52L216.207 223.196L218.309 220.756Z" fill="#F64352"/>
<path d="M178.109 188.327L180.725 185.287L184.031 188.133L181.417 191.171L178.109 188.327Z" fill="#2D2D2D"/>
<path d="M180.684 184.731L180.17 185.328L178.068 187.771L177.554 188.368L178.151 188.883L180.862 191.213L181.459 191.727L181.972 191.129L184.074 188.689L184.587 188.093L183.99 187.579L181.282 185.245L180.684 184.731ZM180.767 185.843L183.475 188.176L181.375 190.615L178.666 188.284L180.767 185.843Z" fill="#F64352"/>
<path d="M176.256 189.316L178.872 186.276L183.328 190.115L180.712 193.152L176.256 189.316Z" fill="#2D2D2D"/>
<path d="M178.831 185.72L178.316 186.317L176.215 188.76L175.7 189.357L176.299 189.872L180.156 193.193L180.754 193.708L181.268 193.111L183.37 190.671L183.884 190.073L183.287 189.559L179.428 186.235L178.831 185.72ZM178.915 186.832L182.772 190.156L180.671 192.596L176.812 189.275L178.915 186.832Z" fill="#F64352"/>
<path d="M133.268 235.804L135.884 232.767L140.167 236.456L137.555 239.495L133.268 235.804Z" fill="#2D2D2D"/>
<path d="M135.843 232.211L135.328 232.808L133.227 235.248L132.712 235.845L133.31 236.359L136.999 239.535L137.596 240.05L138.111 239.452L140.21 237.011L140.723 236.413L140.127 235.9L136.44 232.725L135.843 232.211ZM135.926 233.323L139.612 236.497L137.514 238.938L133.824 235.762L135.926 233.323Z" fill="#F64352"/>
<path d="M133.764 233.643L136.379 230.605L142.232 235.644L139.616 238.683L133.764 233.643Z" fill="#2D2D2D"/>
<path d="M136.337 230.049L135.823 230.647L133.723 233.087L133.209 233.685L133.805 234.199L139.06 238.723L139.657 239.237L140.172 238.64L142.273 236.2L142.788 235.604L142.191 235.089L136.935 230.564L136.337 230.049ZM136.42 231.161L141.676 235.687L139.575 238.126L134.32 233.601L136.42 231.161Z" fill="#F64352"/>
<path d="M176.231 272.799L178.846 269.76L183.131 273.449L180.515 276.489L176.231 272.799Z" fill="#2D2D2D"/>
<path d="M178.804 269.204L178.289 269.801L176.189 272.243L175.675 272.838L176.272 273.354L179.959 276.529L180.556 277.045L181.071 276.447L183.172 274.005L183.685 273.409L183.088 272.895L179.401 269.719L178.804 269.204ZM178.887 270.316L182.575 273.492L180.472 275.933L176.787 272.756L178.887 270.316Z" fill="#F64352"/>
<path d="M176.726 270.637L179.342 267.599L185.195 272.638L182.579 275.677L176.726 270.637Z" fill="#2D2D2D"/>
<path d="M179.3 267.043L178.785 267.64L176.684 270.081L176.169 270.68L176.767 271.193L182.023 275.719L182.62 276.232L183.135 275.635L185.236 273.195L185.751 272.599L185.152 272.084L179.897 267.557L179.3 267.043ZM179.383 268.155L184.639 272.681L182.536 275.121L177.281 270.596L179.383 268.155Z" fill="#F64352"/>
<path d="M180.185 208.277C174.44 208.277 168.997 210.772 165.252 215.123C161.819 219.109 160.143 224.195 160.535 229.442C160.927 234.688 163.337 239.467 167.325 242.9C170.897 245.977 175.459 247.672 180.167 247.672C185.913 247.672 191.357 245.177 195.103 240.826C198.536 236.84 200.212 231.755 199.82 226.508C199.428 221.263 197.016 216.483 193.029 213.049C189.456 209.972 184.895 208.277 180.185 208.277ZM168.512 262.792C167.927 262.792 167.36 262.58 166.917 262.197L148.301 246.171C147.805 245.744 147.507 245.149 147.459 244.496C147.409 243.844 147.619 243.212 148.045 242.716L155.609 233.932C153.969 227.154 155.197 219.987 158.988 214.177L156.936 212.412L161.376 207.256L163.436 209.029C168.055 204.939 173.992 202.691 180.197 202.691C186.24 202.691 192.092 204.865 196.677 208.813C206.261 217.067 208.26 231.154 201.397 241.717L203.625 243.637L199.187 248.793L196.967 246.883C192.347 250.995 186.396 253.255 180.169 253.255C179.425 253.255 178.675 253.221 177.935 253.156L170.371 261.94C169.904 262.481 169.227 262.792 168.512 262.792Z" fill="#2D2D2D"/>
<path d="M180.168 247.277C175.554 247.277 171.084 245.617 167.583 242.603C163.675 239.237 161.311 234.554 160.928 229.412C160.544 224.271 162.187 219.287 165.551 215.38C169.222 211.116 174.555 208.671 180.186 208.671C184.8 208.671 189.271 210.332 192.772 213.348C196.68 216.712 199.043 221.396 199.427 226.537C199.811 231.68 198.17 236.662 194.804 240.569C191.134 244.833 185.799 247.277 180.168 247.277ZM180.198 202.297C174.011 202.297 168.086 204.497 163.434 208.508L161.932 207.215L161.335 206.701L160.82 207.299L156.895 211.856L156.38 212.453L156.978 212.967L158.471 214.253C154.804 220.043 153.612 227.115 155.179 233.828L147.747 242.459C147.251 243.033 147.01 243.768 147.066 244.525C147.122 245.283 147.47 245.973 148.044 246.468L166.66 262.497C167.175 262.94 167.832 263.185 168.514 263.185C169.342 263.185 170.128 262.825 170.67 262.197L178.102 253.567C178.788 253.621 179.482 253.649 180.17 253.649C186.378 253.649 192.315 251.437 196.97 247.404L198.631 248.835L199.228 249.348L199.743 248.75L203.667 244.193L204.18 243.596L203.584 243.081L201.914 241.643C208.66 230.945 206.582 216.821 196.935 208.516C192.279 204.505 186.335 202.297 180.198 202.297ZM180.168 248.067C185.814 248.067 191.428 245.699 195.402 241.084C202.643 232.676 201.695 219.991 193.287 212.751C189.492 209.483 184.828 207.883 180.186 207.883C174.54 207.884 168.926 210.251 164.954 214.865C157.712 223.273 158.659 235.959 167.068 243.199C170.862 246.467 175.526 248.067 180.168 248.067ZM180.198 203.084C185.946 203.084 191.723 205.067 196.42 209.112C206.059 217.412 207.776 231.483 200.878 241.791L203.07 243.679L199.144 248.237L196.96 246.356C192.256 250.661 186.23 252.86 180.17 252.86C179.368 252.86 178.567 252.823 177.768 252.745L170.072 261.683C169.666 262.155 169.09 262.397 168.514 262.397C168.038 262.397 167.562 262.233 167.175 261.9L148.559 245.872C147.699 245.132 147.603 243.832 148.344 242.973L156.04 234.035C154.37 227.364 155.478 220.096 159.508 214.105L157.492 212.371L161.418 207.812L163.442 209.555C168.142 205.273 174.154 203.084 180.198 203.084Z" fill="#F64352"/>
<path d="M164.491 215.439L158.668 210.424L159.668 209.265L165.793 214.537L165.264 215.131L164.843 215.652L164.491 215.439Z" fill="#2D2D2D"/>
<path d="M159.627 208.709L159.112 209.305L158.627 209.868L158.112 210.467L158.71 210.98L164.234 215.737L164.852 216.269L165.362 215.633L165.407 215.579L165.559 215.393L165.703 215.231L165.824 215.097L166.352 214.499L165.748 213.977L160.224 209.223L159.627 208.709ZM159.71 209.82L165.234 214.576L164.966 214.875L164.748 215.14L159.224 210.384L159.71 209.82Z" fill="#F64352"/>
<path d="M203.241 207.464C202.164 207.464 201.12 207.077 200.301 206.373C198.419 204.751 198.205 201.9 199.827 200.017L315.031 69.6733L315.324 70.0467C316.139 71.088 317.06 72.052 318.057 72.9107C319.108 73.816 320.253 74.6133 321.463 75.2827L321.892 75.5213L206.655 205.903C205.801 206.893 204.556 207.464 203.241 207.464Z" fill="#2D2D2D"/>
<path d="M315.049 69.0573L314.423 69.7667L199.533 199.752C197.765 201.808 197.997 204.908 200.044 206.671C200.935 207.437 202.069 207.859 203.241 207.859C204.671 207.859 206.025 207.239 206.957 206.156L321.863 76.1507L322.513 75.4133L321.653 74.9387C320.468 74.2813 319.344 73.4987 318.315 72.612C317.336 71.7707 316.435 70.8253 315.633 69.8027L315.049 69.0573ZM315.013 70.2894C315.829 71.3307 316.757 72.312 317.801 73.2094C318.893 74.1507 320.057 74.956 321.272 75.628L206.36 205.641C205.547 206.585 204.397 207.071 203.241 207.071C202.291 207.071 201.336 206.743 200.559 206.075C198.839 204.592 198.644 201.995 200.125 200.273L315.013 70.2894Z" fill="#F64352"/>
<path d="M331.236 45.8587C327.807 45.8587 324.56 47.3467 322.327 49.9427C318.098 54.8533 318.651 62.2894 323.562 66.5187C325.694 68.3534 328.415 69.364 331.224 69.364C334.652 69.364 337.902 67.876 340.138 65.28C344.364 60.3693 343.81 52.9347 338.9 48.7067C336.768 46.8693 334.046 45.8587 331.236 45.8587ZM331.222 79.0333C326.1 79.0333 321.14 77.1893 317.255 73.844C312.918 70.1107 310.296 64.912 309.87 59.2067C309.443 53.5 311.264 47.9693 314.999 43.6333C319.071 38.9027 324.991 36.1894 331.239 36.1894C336.362 36.1894 341.322 38.0333 345.208 41.38C349.544 45.1133 352.167 50.3107 352.592 56.0173C353.019 61.7227 351.198 67.252 347.464 71.588C343.39 76.32 337.47 79.0333 331.222 79.0333Z" fill="#2D2D2D"/>
<path d="M331.224 68.9707C328.51 68.9707 325.879 67.9934 323.819 66.22C319.074 62.1334 318.538 54.9453 322.626 50.1987C324.784 47.6907 327.922 46.2534 331.236 46.252C333.951 46.252 336.583 47.2307 338.643 49.0054C343.388 53.0907 343.924 60.2774 339.839 65.0227C337.678 67.532 334.538 68.9707 331.224 68.9707ZM331.239 35.7947C324.876 35.7947 318.848 38.5587 314.699 43.376C310.898 47.792 309.042 53.424 309.476 59.236C309.911 65.0467 312.582 70.34 316.998 74.1427C320.955 77.5507 326.006 79.4267 331.222 79.4267C337.584 79.4267 343.614 76.664 347.763 71.8454C351.566 67.4307 353.42 61.7987 352.986 55.988C352.552 50.1774 349.88 44.8827 345.466 41.0814C341.507 37.672 336.455 35.7947 331.239 35.7947ZM331.224 69.7587C334.639 69.7587 338.032 68.328 340.436 65.5374C344.812 60.4534 344.24 52.784 339.158 48.4067C336.863 46.432 334.043 45.464 331.236 45.464C327.823 45.464 324.428 46.896 322.028 49.6854C317.648 54.7707 318.22 62.4387 323.306 66.8174C325.599 68.792 328.418 69.7587 331.224 69.7587ZM331.239 36.584C336.098 36.584 340.98 38.2587 344.951 41.6787C353.751 49.2547 354.744 62.532 347.166 71.3307C343.006 76.1613 337.131 78.6387 331.222 78.6387C326.363 78.6387 321.482 76.964 317.512 73.5454C308.711 65.968 307.719 52.6907 315.298 43.8894C319.455 39.0614 325.33 36.584 331.239 36.584Z" fill="#F64352"/>
<path d="M331.224 70.1534C328.226 70.1534 325.323 69.0747 323.048 67.116C317.808 62.6027 317.216 54.668 321.728 49.428C324.112 46.6587 327.578 45.0707 331.236 45.0707C334.235 45.0707 337.139 46.1493 339.415 48.1094C344.654 52.6213 345.246 60.5547 340.735 65.7947C338.35 68.564 334.883 70.1534 331.224 70.1534Z" fill="#2D2D2D"/>
<path d="M331.236 44.676C327.463 44.676 323.89 46.3147 321.43 49.1707C316.776 54.576 317.386 62.76 322.791 67.4134C325.138 69.4347 328.132 70.5467 331.224 70.5467C334.998 70.5467 338.574 68.9094 341.034 66.052C345.687 60.6467 345.076 52.464 339.672 47.8107C337.324 45.7894 334.328 44.676 331.236 44.676ZM331.236 45.464C334.043 45.464 336.863 46.432 339.158 48.4067C344.24 52.784 344.812 60.4534 340.436 65.5374C338.032 68.328 334.639 69.7587 331.224 69.7587C328.418 69.7587 325.598 68.792 323.306 66.8174C318.22 62.4387 317.648 54.7707 322.028 49.6854C324.428 46.896 327.823 45.464 331.236 45.464Z" fill="#F64352"/>
<path d="M331.228 65.4253C329.36 65.4253 327.549 64.7533 326.132 63.532C322.867 60.7213 322.499 55.7787 325.309 52.512C326.796 50.788 328.955 49.7973 331.233 49.7973C333.103 49.7973 334.912 50.4707 336.331 51.6907C339.593 54.5013 339.963 59.444 337.152 62.7093C335.667 64.436 333.507 65.4253 331.228 65.4253Z" fill="#2D2D2D"/>
<path d="M331.235 49.404C328.84 49.404 326.572 50.4427 325.011 52.2547C323.582 53.916 322.883 56.036 323.046 58.2227C323.208 60.4093 324.214 62.4013 325.875 63.8307C327.364 65.1133 329.266 65.8187 331.228 65.8187C333.622 65.8187 335.89 64.7787 337.451 62.9667C340.403 59.5373 340.016 54.3453 336.587 51.392C335.098 50.1093 333.196 49.404 331.235 49.404ZM331.235 50.192C332.948 50.192 334.671 50.7827 336.074 51.9893C339.178 54.6627 339.527 59.348 336.854 62.452C335.387 64.1573 333.312 65.0307 331.228 65.0307C329.514 65.0307 327.791 64.44 326.39 63.2333C323.284 60.56 322.935 55.8747 325.608 52.7693C327.076 51.0667 329.148 50.192 331.235 50.192Z" fill="#F64352"/>
<path d="M331.241 43.2827C327.055 43.2827 323.092 45.096 320.369 48.2573C317.875 51.1533 316.657 54.8547 316.943 58.6774C317.228 62.5 318.98 65.98 321.877 68.4747C324.472 70.7093 327.791 71.9387 331.221 71.94C335.409 71.94 339.371 70.1267 342.093 66.964C344.588 64.068 345.804 60.3667 345.519 56.5454C345.233 52.7214 343.481 49.2427 340.584 46.7494C337.989 44.5134 334.671 43.2827 331.241 43.2827ZM331.219 74.792C327.107 74.792 323.128 73.316 320.016 70.636C312.835 64.452 312.023 53.5773 318.207 46.3947C321.471 42.604 326.221 40.432 331.241 40.432C335.355 40.432 339.333 41.9067 342.444 44.5867C345.919 47.5787 348.02 51.7493 348.361 56.332C348.704 60.9147 347.245 65.352 344.255 68.8253C340.991 72.6173 336.24 74.792 331.219 74.792Z" fill="#2D2D2D"/>
<path d="M331.221 71.5454C327.885 71.5454 324.659 70.3494 322.135 68.176C319.317 65.7494 317.613 62.3667 317.336 58.648C317.059 54.9307 318.241 51.3307 320.668 48.5134C323.315 45.44 327.169 43.6774 331.241 43.6774C334.576 43.6774 337.804 44.8747 340.327 47.0467C343.144 49.4734 344.848 52.856 345.127 56.5747C345.404 60.292 344.22 63.8907 341.795 66.7067C339.147 69.7814 335.293 71.5454 331.221 71.5454ZM331.244 40.0374H331.241C326.107 40.0374 321.247 42.2614 317.908 46.1374C311.583 53.4854 312.413 64.608 319.759 70.9347C322.943 73.676 327.012 75.1854 331.219 75.1854C336.355 75.1854 341.215 72.9614 344.553 69.0827C347.612 65.5294 349.105 60.9907 348.755 56.3027C348.405 51.6147 346.255 47.348 342.701 44.2894C339.519 41.5467 335.449 40.0374 331.244 40.0374ZM331.221 72.3334C335.363 72.3334 339.483 70.6014 342.392 67.2214C347.692 61.068 346.996 51.7494 340.841 46.4507C338.065 44.06 334.645 42.8894 331.241 42.8894C327.099 42.8894 322.979 44.6227 320.071 48C314.769 54.1547 315.467 63.4734 321.62 68.7734C324.396 71.1627 327.816 72.3334 331.221 72.3334ZM331.241 40.8253C335.124 40.8253 339.023 42.16 342.188 44.8854C349.205 50.928 349.997 61.552 343.956 68.568C340.639 72.4214 335.941 74.3974 331.219 74.3974C327.337 74.3974 323.439 73.0627 320.273 70.3374C313.256 64.2947 312.463 53.6707 318.505 46.652C321.821 42.8014 326.519 40.8253 331.241 40.8253Z" fill="#F64352"/>
<path d="M319.226 31.668C318.686 31.668 318.174 31.9027 317.822 32.3107L305.138 47.044C304.472 47.816 304.559 48.9853 305.332 49.6493L342.49 81.6467C342.824 81.936 343.252 82.0947 343.695 82.0947C344.234 82.0947 344.744 81.86 345.096 81.452L357.78 66.72C358.104 66.3453 358.26 65.868 358.224 65.376C358.187 64.884 357.962 64.4347 357.587 64.1133L320.43 32.116C320.095 31.828 319.667 31.668 319.226 31.668ZM333.504 91.8867L333.47 91.8147C325.52 75.4907 315.212 66.6133 297.89 61.1773L297.812 61.152L287.186 52.0013L331.43 0.61734L331.64 0.645332C358.198 4.10933 380.118 22.984 387.484 48.732L387.543 48.9373L343.299 100.32L333.504 91.8867Z" fill="#2D2D2D"/>
<path d="M343.695 81.7C343.347 81.7 343.009 81.576 342.747 81.348L305.588 49.352C304.981 48.828 304.913 47.908 305.436 47.3L318.121 32.568C318.397 32.2467 318.8 32.0627 319.225 32.0627C319.573 32.0627 319.909 32.188 320.172 32.4147L357.329 64.412C357.624 64.6653 357.803 65.0187 357.831 65.4053C357.86 65.7933 357.736 66.168 357.483 66.4627L344.797 81.1947C344.521 81.516 344.119 81.7 343.695 81.7ZM331.271 0.198669L330.992 0.521355L287.143 51.4453L286.629 52.0427L287.227 52.5573L297.493 61.3973L297.616 61.504L297.772 61.552C314.979 66.9534 325.219 75.7707 333.115 91.9867L333.185 92.1333L333.308 92.24L342.743 100.361L343.34 100.876L343.855 100.279L387.703 49.3547L387.98 49.032L387.863 48.6227C380.453 22.724 358.404 3.73869 331.692 0.253357L331.271 0.198669ZM343.695 82.488C344.324 82.488 344.951 82.224 345.395 81.7093L358.08 66.9773C358.888 66.0387 358.783 64.6227 357.844 63.8147L320.687 31.8174C320.263 31.4534 319.744 31.2747 319.225 31.2747C318.595 31.2747 317.968 31.5387 317.524 32.0534L304.839 46.7867C304.029 47.7254 304.136 49.14 305.075 49.948L342.232 81.9453C342.655 82.3093 343.176 82.488 343.695 82.488ZM331.589 1.036C357.972 4.47733 379.787 23.2613 387.105 48.84L343.256 99.764L333.823 91.6413C325.801 75.1667 315.489 66.288 298.008 60.8L287.741 51.96L331.589 1.036Z" fill="#F64352"/>
<path d="M380.308 56.448C372.801 31.2374 351.115 12.6094 325.063 8.98936L324.347 8.88937L327.083 5.71336L327.301 5.74802C353.551 10.0614 374.963 28.4547 383.183 53.7507L383.251 53.9613L380.515 57.1387L380.308 56.448Z" fill="#2D2D2D"/>
<path d="M326.928 5.28804L326.639 5.62271L324.52 8.08404L323.576 9.18003L325.01 9.38004C350.91 12.9787 372.467 31.4974 379.931 56.5613L380.343 57.9427L381.284 56.8507L383.406 54.388L383.695 54.052L383.557 53.6293C375.292 28.192 353.76 9.69601 327.364 5.35868L326.928 5.28804ZM327.238 6.13736C353.242 10.4094 374.667 28.8187 382.807 53.8734L380.687 56.336C373.111 30.8987 351.416 12.2534 325.117 8.59869L327.238 6.13736Z" fill="#F64352"/>
<path d="M376.542 60.8227C369.034 35.612 347.35 16.984 321.298 13.3627L320.582 13.264L323.316 10.0854L323.534 10.1214C349.784 14.436 371.196 32.8307 379.418 58.124L379.486 58.3347L376.748 61.5133L376.542 60.8227Z" fill="#2D2D2D"/>
<path d="M323.162 9.66133L322.872 9.996L320.754 12.4587L319.811 13.5547L321.244 13.7534C347.143 17.3534 368.7 35.8733 376.164 60.9347L376.576 62.316L377.516 61.224L379.639 58.76L379.928 58.424L379.792 58.0027C371.526 32.568 349.994 14.0707 323.598 9.732L323.162 9.66133ZM323.471 10.5107C349.475 14.7853 370.9 33.192 379.042 58.2453L376.919 60.7093C369.344 35.272 347.648 16.628 321.352 12.972L323.471 10.5107Z" fill="#F64352"/>
<path d="M372.776 65.196C365.267 39.9867 343.581 21.3573 317.529 17.7373L316.812 17.6373L319.551 14.4613L319.768 14.4973C346.017 18.8107 367.429 37.204 375.648 62.4987L375.717 62.7107L372.981 65.888L372.776 65.196Z" fill="#2D2D2D"/>
<path d="M319.396 14.036L319.108 14.3707L316.987 16.8334L316.042 17.928L317.475 18.128C343.374 21.7267 364.933 40.2467 372.399 65.3094L372.81 66.6907L373.751 65.5987L375.871 63.1347L376.16 62.8L376.024 62.3774C367.759 36.9414 346.228 18.4454 319.832 14.1067L319.396 14.036ZM319.704 14.8854C345.707 19.1587 367.134 37.5667 375.274 62.6214L373.153 65.084C365.577 39.648 343.883 21.0014 317.584 17.3467L319.704 14.8854Z" fill="#F64352"/>
<path d="M369.009 69.572C361.5 44.36 339.813 25.732 313.761 22.1134L313.045 22.0134L315.783 18.8347L316.001 18.8707C342.251 23.1853 363.663 41.5787 371.881 66.8747L371.949 67.0854L369.215 70.2627L369.009 69.572Z" fill="#2D2D2D"/>
<path d="M315.63 18.4093L315.34 18.7453L313.219 21.208L312.275 22.304L313.708 22.5027C339.607 26.1013 361.166 44.62 368.632 69.684L369.043 71.0667L369.984 69.9733L372.104 67.5107L372.394 67.1747L372.256 66.752C363.992 41.3173 342.462 22.82 316.066 18.4813L315.63 18.4093ZM315.938 19.26C341.94 23.5333 363.366 41.9413 371.507 66.996L369.387 69.4587C361.81 44.0213 340.116 25.376 313.816 21.7227L315.938 19.26Z" fill="#F64352"/>
<path d="M155.045 66.84L203.971 24.7107L222.893 46.688L173.971 88.8173L155.045 66.84Z" fill="#2D2D2D"/>
<path d="M204.012 24.156L203.415 24.6693L155.087 66.2854L154.49 66.8L155.004 67.396L173.415 88.7747L173.928 89.372L174.527 88.8574L222.852 47.2427L223.45 46.7293L222.935 46.132L204.527 24.752L204.012 24.156ZM203.928 25.2667L222.338 46.6467L174.012 88.2614L155.602 66.8827L203.928 25.2667Z" fill="#F64352"/>
<path d="M340.744 208.277C336.035 208.277 331.473 209.972 327.9 213.049C323.913 216.483 321.501 221.263 321.111 226.508C320.719 231.755 322.393 236.84 325.828 240.826C329.573 245.177 335.017 247.672 340.763 247.672C345.472 247.672 350.032 245.977 353.605 242.9C357.592 239.467 360.003 234.688 360.395 229.442C360.785 224.195 359.111 219.109 355.676 215.123C351.932 210.772 346.489 208.277 340.744 208.277ZM299.812 234.893C298.619 233.509 297.977 231.849 298.007 230.221C298.036 228.532 298.795 226.961 300.144 225.8C300.145 225.799 303.929 222.584 304.06 222.468C308.975 216.815 313.648 211.444 297.768 193.003L193.757 75.66L206.936 64.3134L310.943 181.652C319.12 191.149 325.348 195.571 330.547 195.571C333.68 195.569 336.313 194.055 339.187 192.225L343.024 188.877C344.172 187.888 345.529 187.365 346.949 187.365C348.819 187.365 350.684 188.288 352.068 189.895L386.543 229.931L334.284 274.928L299.812 234.893Z" fill="#2D2D2D"/>
<path d="M340.763 247.277C335.132 247.277 329.798 244.832 326.127 240.569C322.76 236.662 321.119 231.68 321.503 226.537C321.887 221.396 324.251 216.712 328.158 213.348C331.66 210.332 336.13 208.671 340.744 208.671C346.374 208.671 351.708 211.116 355.378 215.38C358.744 219.287 360.386 224.271 360.002 229.412C359.619 234.554 357.255 239.237 353.348 242.603C349.847 245.617 345.376 247.277 340.763 247.277ZM206.972 63.7613L206.384 64.268L193.804 75.1L193.198 75.6213L193.728 76.22L297.476 193.268C313.09 211.399 308.794 216.424 303.767 222.2C303.462 222.464 301.324 224.28 299.891 225.497C298.452 226.737 297.644 228.411 297.612 230.215C297.583 231.938 298.258 233.692 299.514 235.15L333.728 274.887L334.243 275.484L334.84 274.969L386.502 230.485L387.099 229.971L386.584 229.375L352.367 189.637C350.908 187.943 348.934 186.972 346.95 186.972C345.434 186.972 343.988 187.527 342.768 188.577C341.348 189.816 339.235 191.66 338.93 191.923C336.126 193.707 333.556 195.176 330.547 195.176C325.472 195.176 319.338 190.799 311.246 181.399L207.488 64.3427L206.972 63.7613ZM340.763 248.067C345.404 248.067 350.07 246.467 353.862 243.199C362.271 235.959 363.218 223.273 355.975 214.865C352.003 210.249 346.391 207.883 340.744 207.883C336.103 207.884 331.438 209.484 327.643 212.751C319.235 219.991 318.287 232.676 325.528 241.084C329.503 245.699 335.116 248.067 340.763 248.067ZM206.899 64.8653L310.647 181.913C319.887 192.644 325.804 195.964 330.547 195.964C333.822 195.964 336.538 194.38 339.399 192.559L343.283 189.175C344.403 188.211 345.678 187.76 346.95 187.76C348.699 187.76 350.444 188.612 351.77 190.152L385.987 229.888L334.326 274.372L300.111 234.636C297.82 231.977 297.744 228.387 300.402 226.099L304.326 222.759C309.776 216.495 313.688 210.885 298.067 192.745L194.318 75.6973L206.899 64.8653Z" fill="#F64352"/>
<path d="M297.504 222.056L300.808 219.212L303.424 222.249L300.12 225.095L297.504 222.056Z" fill="#2D2D2D"/>
<path d="M300.851 218.656L300.252 219.171L297.546 221.501L296.948 222.016L297.463 222.612L299.564 225.052L300.079 225.649L300.676 225.136L303.383 222.805L303.98 222.292L303.467 221.693L301.364 219.253L300.851 218.656ZM300.767 219.768L302.868 222.208L300.162 224.538L298.06 222.099L300.767 219.768Z" fill="#F64352"/>
<path d="M298.207 224.037L302.663 220.2L305.279 223.238L300.822 227.076L298.207 224.037Z" fill="#2D2D2D"/>
<path d="M302.704 219.644L302.107 220.159L298.25 223.483L297.652 223.996L298.166 224.593L300.266 227.033L300.78 227.632L301.378 227.117L305.238 223.795L305.835 223.28L305.32 222.683L303.219 220.241L302.704 219.644ZM302.622 220.756L304.723 223.196L300.863 226.52L298.763 224.079L302.622 220.756Z" fill="#F64352"/>
<path d="M336.899 188.133L340.204 185.287L342.82 188.327L339.514 191.171L336.899 188.133Z" fill="#2D2D2D"/>
<path d="M340.247 184.731L339.648 185.245L336.94 187.579L336.343 188.093L336.857 188.689L338.957 191.129L339.472 191.727L340.069 191.213L342.779 188.883L343.376 188.368L342.861 187.771L340.76 185.328L340.247 184.731ZM340.163 185.843L342.264 188.284L339.555 190.615L337.455 188.176L340.163 185.843Z" fill="#F64352"/>
<path d="M337.602 190.115L342.058 186.276L344.672 189.316L340.22 193.152L337.602 190.115Z" fill="#2D2D2D"/>
<path d="M342.099 185.72L341.501 186.235L337.643 189.559L337.045 190.073L337.56 190.671L339.664 193.111L340.177 193.708L340.775 193.193L344.632 189.872L345.228 189.357L344.715 188.76L342.613 186.317L342.099 185.72ZM342.016 186.832L344.117 189.275L340.26 192.596L338.157 190.156L342.016 186.832Z" fill="#F64352"/>
<path d="M380.76 236.456L385.046 232.767L387.662 235.804L383.375 239.495L380.76 236.456Z" fill="#2D2D2D"/>
<path d="M385.087 232.211L384.49 232.725L380.803 235.9L380.206 236.413L380.719 237.012L382.819 239.452L383.334 240.05L383.931 239.535L387.62 236.359L388.218 235.845L387.703 235.248L385.602 232.808L385.087 232.211ZM385.004 233.323L387.106 235.762L383.418 238.938L381.316 236.497L385.004 233.323Z" fill="#F64352"/>
<path d="M378.697 235.644L384.551 230.605L387.167 233.643L381.313 238.683L378.697 235.644Z" fill="#2D2D2D"/>
<path d="M384.592 230.049L383.995 230.564L378.74 235.089L378.142 235.604L378.656 236.2L380.758 238.64L381.272 239.237L381.87 238.724L387.126 234.199L387.723 233.685L387.208 233.087L385.107 230.647L384.592 230.049ZM384.51 231.161L386.611 233.601L381.356 238.126L379.254 235.687L384.51 231.161Z" fill="#F64352"/>
<path d="M337.799 273.449L342.084 269.76L344.699 272.799L340.416 276.489L337.799 273.449Z" fill="#2D2D2D"/>
<path d="M342.127 269.204L341.528 269.719L337.84 272.895L337.243 273.409L337.756 274.005L339.86 276.447L340.375 277.045L340.972 276.529L344.657 273.354L345.255 272.838L344.741 272.243L342.64 269.801L342.127 269.204ZM342.043 270.316L344.143 272.756L340.457 275.933L338.355 273.492L342.043 270.316Z" fill="#F64352"/>
<path d="M335.736 272.638L341.588 267.599L344.204 270.637L338.352 275.677L335.736 272.638Z" fill="#2D2D2D"/>
<path d="M341.631 267.043L341.032 267.557L335.778 272.084L335.18 272.599L335.695 273.195L337.796 275.635L338.31 276.232L338.908 275.719L344.163 271.193L344.76 270.68L344.247 270.081L342.144 267.64L341.631 267.043ZM341.547 268.155L343.648 270.596L338.393 275.121L336.292 272.681L341.547 268.155Z" fill="#F64352"/>
<path d="M340.744 208.277C336.035 208.277 331.474 209.972 327.9 213.049C323.914 216.483 321.502 221.263 321.111 226.508C320.719 231.755 322.394 236.84 325.828 240.826C329.574 245.177 335.018 247.672 340.763 247.672C345.472 247.672 350.032 245.977 353.606 242.9C357.592 239.467 360.003 234.688 360.395 229.442C360.786 224.195 359.111 219.109 355.676 215.123C351.932 210.772 346.49 208.277 340.744 208.277ZM352.418 262.792C351.703 262.792 351.026 262.481 350.559 261.94L342.996 253.156C342.255 253.221 341.504 253.255 340.762 253.255C334.535 253.255 328.584 250.995 323.964 246.883L321.744 248.793L317.307 243.637L319.532 241.717C312.67 231.154 314.668 217.067 324.252 208.813C328.838 204.865 334.691 202.691 340.734 202.691C346.939 202.691 352.876 204.939 357.494 209.029L359.554 207.256L363.994 212.412L361.943 214.177C365.732 219.987 366.96 227.154 365.32 233.932L372.886 242.716C373.311 243.212 373.52 243.844 373.472 244.496C373.423 245.149 373.124 245.744 372.628 246.171L354.014 262.199C353.571 262.58 353.003 262.792 352.418 262.792Z" fill="#2D2D2D"/>
<path d="M340.763 247.277C335.132 247.277 329.798 244.833 326.127 240.569C322.76 236.662 321.119 231.68 321.503 226.537C321.887 221.396 324.251 216.712 328.158 213.348C331.659 210.332 336.13 208.671 340.744 208.671C346.374 208.671 351.708 211.116 355.378 215.38C358.744 219.287 360.386 224.271 360.002 229.412C359.619 234.554 357.255 239.237 353.348 242.603C349.847 245.617 345.378 247.277 340.763 247.277ZM340.734 202.297C334.596 202.297 328.652 204.505 323.995 208.516C314.35 216.821 312.27 230.947 319.016 241.643L317.348 243.081L316.751 243.596L317.264 244.193L321.188 248.75L321.702 249.348L322.3 248.835L323.962 247.404C328.616 251.436 334.554 253.649 340.762 253.649C341.448 253.649 342.142 253.621 342.828 253.567L350.26 262.197C350.803 262.825 351.588 263.185 352.418 263.185C353.098 263.185 353.756 262.94 354.271 262.496L372.886 246.468C373.462 245.973 373.808 245.283 373.864 244.525C373.92 243.768 373.679 243.033 373.183 242.459L365.751 233.828C367.318 227.115 366.127 220.043 362.459 214.253L363.952 212.967L364.55 212.453L364.035 211.856L360.11 207.299L359.595 206.701L358.998 207.215L357.496 208.508C352.844 204.497 346.92 202.297 340.734 202.297ZM340.763 248.067C345.404 248.067 350.07 246.467 353.862 243.199C362.271 235.959 363.218 223.273 355.975 214.865C352.003 210.249 346.391 207.883 340.744 207.883C336.103 207.884 331.438 209.484 327.643 212.751C319.235 219.991 318.287 232.676 325.528 241.084C329.503 245.699 335.116 248.067 340.763 248.067ZM340.734 203.084C346.776 203.084 352.79 205.273 357.488 209.555L359.512 207.812L363.438 212.371L361.422 214.105C365.452 220.096 366.56 227.364 364.89 234.035L372.586 242.973C373.327 243.832 373.231 245.132 372.371 245.872L353.756 261.9C353.368 262.233 352.892 262.397 352.418 262.397C351.84 262.397 351.264 262.155 350.859 261.683L343.162 252.745C342.362 252.823 341.563 252.86 340.762 252.86C334.702 252.86 328.674 250.661 323.971 246.356L321.786 248.237L317.862 243.679L320.052 241.791C313.154 231.483 314.871 217.412 324.51 209.112C329.208 205.065 334.984 203.084 340.734 203.084Z" fill="#F64352"/>
<path d="M355.667 215.132L355.138 214.537L361.262 209.265L362.262 210.424L356.131 215.705L355.667 215.132Z" fill="#2D2D2D"/>
<path d="M361.303 208.709L360.706 209.223L355.183 213.977L354.578 214.499L355.106 215.097L355.227 215.231L355.366 215.385L355.542 215.601L356.052 216.237L356.696 215.737L362.22 210.98L362.818 210.467L362.303 209.868L361.818 209.305L361.303 208.709ZM361.22 209.82L361.706 210.384L356.183 215.14L355.966 214.875L355.696 214.576L361.22 209.82Z" fill="#F64352"/>
<path d="M317.69 207.464C316.375 207.464 315.13 206.893 314.272 205.899L199.039 75.5213L199.468 75.284C200.678 74.6133 201.823 73.8147 202.872 72.9107C203.87 72.052 204.79 71.088 205.607 70.0467L205.899 69.6733L321.1 200.013C322.724 201.9 322.511 204.751 320.628 206.373C319.811 207.077 318.767 207.464 317.69 207.464Z" fill="#2D2D2D"/>
<path d="M205.88 69.0573L205.296 69.8027C204.495 70.8253 203.593 71.7707 202.615 72.612C201.585 73.4987 200.464 74.2813 199.277 74.9387L198.417 75.4147L199.068 76.1507L313.98 206.164C314.905 207.239 316.259 207.859 317.689 207.859C318.861 207.859 319.996 207.437 320.885 206.672C322.932 204.908 323.164 201.808 321.403 199.76L206.507 69.7667L205.88 69.0573ZM205.917 70.2894L320.805 200.273C322.285 201.995 322.091 204.592 320.371 206.075C319.595 206.743 318.639 207.071 317.689 207.071C316.532 207.071 315.384 206.585 314.571 205.641L199.659 75.628C200.872 74.956 202.036 74.1507 203.129 73.2094C204.172 72.312 205.1 71.3307 205.917 70.2894Z" fill="#F64352"/>
<path d="M189.695 45.8587C186.885 45.8587 184.163 46.8693 182.031 48.7067C177.12 52.9347 176.564 60.3693 180.792 65.28C183.028 67.876 186.277 69.364 189.705 69.364C192.515 69.364 195.236 68.3534 197.368 66.5187C202.277 62.2894 202.833 54.8533 198.605 49.9427C196.371 47.3467 193.123 45.8587 189.695 45.8587ZM189.709 79.0333C183.46 79.0333 177.54 76.3187 173.465 71.588C169.732 67.252 167.911 61.7227 168.337 56.0173C168.763 50.3107 171.387 45.112 175.723 41.38C179.608 38.0333 184.569 36.1894 189.692 36.1894C195.94 36.1894 201.859 38.9027 205.932 43.6333C209.665 47.9693 211.487 53.5 211.061 59.2067C210.636 64.912 208.012 70.1107 203.676 73.844C199.791 77.1893 194.831 79.0333 189.711 79.0333H189.709Z" fill="#2D2D2D"/>
<path d="M189.706 68.9707C186.392 68.9707 183.252 67.532 181.091 65.0227C177.006 60.2774 177.542 53.0907 182.288 49.004C184.35 47.2307 186.979 46.252 189.695 46.252C193.008 46.252 196.147 47.6907 198.306 50.1987C202.392 54.9453 201.856 62.1334 197.111 66.22C195.051 67.9934 192.42 68.9707 189.706 68.9707ZM189.692 35.7947C184.475 35.7947 179.423 37.672 175.466 41.0814C171.05 44.8827 168.378 50.1774 167.944 55.988C167.511 61.7987 169.366 67.4294 173.167 71.8454C177.316 76.664 183.345 79.4267 189.709 79.4267C194.924 79.4267 199.976 77.5507 203.934 74.1427C208.35 70.34 211.022 65.0467 211.455 59.236C211.888 53.424 210.032 47.792 206.231 43.376C202.083 38.5587 196.055 35.7947 189.692 35.7947ZM189.706 69.7587C192.511 69.7587 195.332 68.792 197.625 66.8174C202.709 62.4387 203.282 54.7707 198.904 49.6854C196.502 46.8947 193.108 45.464 189.695 45.464C186.888 45.464 184.067 46.432 181.774 48.4067C176.691 52.784 176.118 60.4534 180.494 65.5374C182.898 68.328 186.291 69.7587 189.706 69.7587ZM189.692 36.584C195.6 36.584 201.475 39.0614 205.634 43.8894C213.211 52.6907 212.22 65.968 203.419 73.5454C199.448 76.9654 194.568 78.6387 189.709 78.6387C183.8 78.6387 177.923 76.1613 173.764 71.3307C166.188 62.532 167.179 49.2547 175.979 41.6787C179.951 38.2587 184.832 36.584 189.692 36.584Z" fill="#F64352"/>
<path d="M189.706 70.1534C186.047 70.1534 182.582 68.564 180.195 65.7947C175.684 60.5547 176.278 52.62 181.516 48.1094C183.792 46.1493 186.696 45.0707 189.695 45.0707C193.352 45.0707 196.818 46.6587 199.203 49.428C203.715 54.668 203.122 62.604 197.883 67.116C195.607 69.0747 192.703 70.1534 189.706 70.1534Z" fill="#2D2D2D"/>
<path d="M189.695 44.676C186.602 44.676 183.606 45.7894 181.259 47.8107C175.855 52.464 175.244 60.6467 179.896 66.052C182.358 68.9094 185.932 70.5467 189.706 70.5467C192.798 70.5467 195.794 69.4347 198.139 67.4147C203.544 62.76 204.155 54.576 199.502 49.1707C197.042 46.3147 193.468 44.676 189.695 44.676ZM189.695 45.464C193.108 45.464 196.502 46.896 198.904 49.6854C203.282 54.7707 202.71 62.4387 197.626 66.8174C195.331 68.792 192.512 69.7587 189.706 69.7587C186.292 69.7587 182.898 68.328 180.494 65.5374C176.118 60.4534 176.691 52.784 181.774 48.4067C184.068 46.432 186.888 45.464 189.695 45.464Z" fill="#F64352"/>
<path d="M189.702 65.4253C187.423 65.4253 185.264 64.4347 183.778 62.7093C180.968 59.444 181.336 54.5013 184.6 51.6907C186.018 50.4707 187.828 49.7973 189.696 49.7973C191.975 49.7973 194.135 50.788 195.62 52.512C198.432 55.7787 198.063 60.7213 194.798 63.532C193.38 64.752 191.571 65.4253 189.703 65.4253H189.702Z" fill="#2D2D2D"/>
<path d="M189.696 49.404C187.733 49.404 185.832 50.1093 184.343 51.392C180.915 54.3453 180.527 59.5373 183.479 62.9667C185.04 64.7787 187.308 65.8187 189.701 65.8187C191.665 65.8187 193.565 65.1133 195.055 63.8307C196.716 62.4013 197.721 60.4093 197.884 58.2227C198.047 56.036 197.349 53.916 195.919 52.2547C194.359 50.4427 192.089 49.404 189.696 49.404ZM189.696 50.192C191.781 50.192 193.855 51.0667 195.321 52.7693C197.995 55.8747 197.645 60.56 194.54 63.2333C193.139 64.44 191.417 65.0307 189.701 65.0307C187.617 65.0307 185.544 64.1573 184.077 62.452C181.404 59.348 181.752 54.6627 184.857 51.9893C186.259 50.7827 187.981 50.192 189.696 50.192Z" fill="#F64352"/>
<path d="M189.688 43.2827C186.259 43.2827 182.941 44.5134 180.345 46.7494C177.448 49.2427 175.696 52.7214 175.412 56.5454C175.127 60.3667 176.343 64.068 178.836 66.964C181.559 70.1267 185.521 71.94 189.709 71.94C193.139 71.94 196.456 70.7093 199.052 68.4747C201.948 65.98 203.701 62.5 203.987 58.6774C204.272 54.8547 203.056 51.1533 200.56 48.2573C197.837 45.096 193.875 43.2827 189.688 43.2827ZM189.712 74.792C184.691 74.792 179.939 72.6173 176.675 68.8253C173.684 65.352 172.225 60.9147 172.568 56.332C172.909 51.7493 175.011 47.5787 178.485 44.5867C181.597 41.9067 185.576 40.432 189.688 40.432C194.708 40.432 199.459 42.604 202.723 46.3947C208.907 53.576 208.095 64.452 200.915 70.636C197.803 73.316 193.824 74.792 189.712 74.792Z" fill="#2D2D2D"/>
<path d="M189.71 71.5454C185.638 71.5454 181.783 69.7814 179.136 66.7067C176.71 63.8894 175.528 60.292 175.806 56.5747C176.083 52.856 177.786 49.4734 180.603 47.048C183.127 44.8747 186.354 43.6774 189.69 43.6774C193.76 43.6774 197.615 45.44 200.262 48.5134C202.688 51.3307 203.871 54.9307 203.594 58.648C203.316 62.3667 201.612 65.7494 198.795 68.176C196.271 70.3494 193.044 71.5454 189.71 71.5454ZM189.688 40.0374C185.482 40.0374 181.412 41.5467 178.228 44.2894C174.675 47.348 172.526 51.6147 172.175 56.3027C171.826 60.9907 173.318 65.5294 176.376 69.0827C179.715 72.9614 184.576 75.1854 189.711 75.1854C193.918 75.1854 197.988 73.676 201.172 70.9347C208.518 64.608 209.347 53.484 203.023 46.1374C199.683 42.2614 194.823 40.0374 189.688 40.0374ZM189.71 72.3334C193.114 72.3334 196.534 71.1627 199.308 68.7734C205.464 63.4734 206.16 54.1547 200.86 48C197.951 44.6227 193.831 42.8894 189.69 42.8894C186.284 42.8894 182.866 44.06 180.088 46.4507C173.934 51.7494 173.24 61.068 178.538 67.2214C181.447 70.6 185.567 72.3334 189.71 72.3334ZM189.688 40.8253C194.412 40.8253 199.108 42.8014 202.424 46.652C208.468 53.6707 207.674 64.2947 200.658 70.3374C197.492 73.0627 193.592 74.3974 189.711 74.3974C184.987 74.3974 180.291 72.4214 176.974 68.568C170.932 61.552 171.724 50.928 178.743 44.8854C181.907 42.16 185.806 40.8253 189.688 40.8253Z" fill="#F64352"/>
<path d="M199.848 31.3582L199.848 31.358C200.362 30.9151 201.021 30.668 201.704 30.668C202.536 30.668 203.322 31.0298 203.864 31.6574L203.865 31.6581L216.551 46.3915L216.552 46.3919C217.575 47.5815 217.443 49.3821 216.251 50.4071C216.251 50.4072 216.251 50.4074 216.251 50.4075L179.094 82.4044L178.441 81.6467L179.094 82.4044C178.577 82.8499 177.917 83.0947 177.236 83.0947C176.405 83.0947 175.618 82.7329 175.076 82.1052L175.076 82.1045L162.392 67.3726C161.896 66.7972 161.653 66.0589 161.708 65.303L161.708 65.3003C161.766 64.5451 162.116 63.8502 162.69 63.3556C162.69 63.3555 162.69 63.3555 162.69 63.3554L199.848 31.3582ZM134.497 48.6943L177.737 98.9097L186.618 91.2619C190.625 83.0633 195.249 76.6793 201.084 71.6547C206.919 66.6301 213.918 63.0053 222.619 60.2614L232.336 51.896L189.095 1.67992C163.186 5.18824 141.811 23.5941 134.497 48.6943Z" fill="#2D2D2D" stroke="#F64352" stroke-width="2"/>
<path d="M137.679 53.9613L137.748 53.7507C145.967 28.4547 167.38 10.0614 193.629 5.74803L193.847 5.71336L196.584 8.88937L195.867 8.98937C169.815 12.6094 148.129 31.2374 140.62 56.448L140.415 57.14L137.679 53.9613Z" fill="#2D2D2D"/>
<path d="M194.002 5.28804L193.566 5.35868C167.17 9.69601 145.639 28.192 137.372 53.6293L137.236 54.052L137.526 54.388L139.644 56.8507L140.586 57.9427L140.998 56.5613C148.463 31.4974 170.023 12.9787 195.92 9.38004L197.354 9.18003L196.411 8.08404L194.291 5.62271L194.002 5.28804ZM193.694 6.13736L195.812 8.59869C169.515 12.2534 147.819 30.8987 140.243 56.336L138.123 53.8734C146.263 28.8187 167.69 10.4094 193.694 6.13736Z" fill="#F64352"/>
<path d="M141.444 58.3347L141.514 58.124C149.734 32.8307 171.146 14.4374 197.396 10.1214L197.614 10.0854L200.35 13.264L199.634 13.3627C173.582 16.984 151.896 35.612 144.387 60.8227L144.182 61.5133L141.444 58.3347Z" fill="#2D2D2D"/>
<path d="M197.768 9.66134L197.332 9.73201C170.936 14.0707 149.404 32.568 141.139 58.0027L141.001 58.424L141.291 58.76L143.412 61.224L144.353 62.3174L144.764 60.9347C152.229 35.872 173.788 17.3534 199.688 13.7534L201.12 13.5547L200.177 12.4587L198.057 9.99601L197.768 9.66134ZM197.46 10.5107L199.58 12.972C173.281 16.628 151.585 35.272 144.009 60.7094L141.888 58.2454C150.029 33.192 171.456 14.7854 197.46 10.5107Z" fill="#F64352"/>
<path d="M145.213 62.7107L145.281 62.4987C153.5 37.204 174.912 18.8107 201.161 14.4973L201.38 14.4613L204.117 17.6373L203.4 17.7373C177.349 21.3573 155.664 39.9867 148.153 65.196L147.948 65.888L145.213 62.7107Z" fill="#2D2D2D"/>
<path d="M201.534 14.036L201.098 14.1067C174.702 18.4454 153.171 36.9414 144.907 62.3774L144.77 62.8L145.059 63.1347L147.179 65.5987L148.12 66.6907L148.531 65.3094C155.998 40.2467 177.556 21.7267 203.455 18.128L204.888 17.928L203.944 16.8334L201.823 14.3707L201.534 14.036ZM201.226 14.8854L203.347 17.3467C177.047 21.0014 155.354 39.648 147.776 65.084L145.656 62.6214C153.798 37.5667 175.223 19.1587 201.226 14.8854Z" fill="#F64352"/>
<path d="M148.98 67.0854L149.048 66.8747C157.265 41.5787 178.677 23.1853 204.928 18.8707L205.147 18.8347L207.884 22.0134L207.167 22.1134C181.116 25.732 159.431 44.36 151.92 69.572L151.715 70.2627L148.98 67.0854Z" fill="#2D2D2D"/>
<path d="M205.301 18.4093L204.864 18.4813C178.468 22.8213 156.936 41.3173 148.673 66.752L148.536 67.1747L148.825 67.5107L150.945 69.9733L151.887 71.0667L152.299 69.684C159.764 44.62 181.323 26.1013 207.221 22.5027L208.655 22.304L207.711 21.208L205.589 18.7453L205.301 18.4093ZM204.992 19.26L207.113 21.7227C180.813 25.376 159.12 44.0213 151.543 69.4587L149.423 66.996C157.563 41.9413 178.989 23.5333 204.992 19.26Z" fill="#F64352"/>
<path d="M144.361 100.449V176.519H376.568V100.449H144.361Z" fill="#F64352" stroke="#2D2D2D" stroke-width="2"/>
<path d="M208.391 143.273L214.898 159.516L221.406 143.273H224.811V163.18H222.186V155.428L222.432 147.061L215.896 163.18H213.887L207.365 147.102L207.625 155.428V163.18H205V143.273H208.391Z" fill="#2D2D2D"/>
<path d="M244.758 153.869C244.758 155.82 244.43 157.524 243.773 158.982C243.117 160.432 242.188 161.539 240.984 162.305C239.781 163.07 238.378 163.453 236.773 163.453C235.206 163.453 233.816 163.07 232.604 162.305C231.391 161.53 230.448 160.432 229.773 159.01C229.108 157.579 228.766 155.924 228.748 154.047V152.611C228.748 150.697 229.081 149.007 229.746 147.539C230.411 146.072 231.35 144.951 232.562 144.176C233.784 143.392 235.178 143 236.746 143C238.341 143 239.745 143.387 240.957 144.162C242.178 144.928 243.117 146.044 243.773 147.512C244.43 148.97 244.758 150.67 244.758 152.611V153.869ZM242.146 152.584C242.146 150.223 241.673 148.414 240.725 147.156C239.777 145.889 238.451 145.256 236.746 145.256C235.087 145.256 233.779 145.889 232.822 147.156C231.874 148.414 231.387 150.164 231.359 152.406V153.869C231.359 156.157 231.838 157.957 232.795 159.27C233.761 160.573 235.087 161.225 236.773 161.225C238.469 161.225 239.781 160.609 240.711 159.379C241.641 158.139 242.119 156.367 242.146 154.061V152.584Z" fill="#2D2D2D"/>
<path d="M262.066 145.434H255.668V163.18H253.057V145.434H246.672V143.273H262.066V145.434Z" fill="#2D2D2D"/>
<path d="M279.949 153.869C279.949 155.82 279.621 157.524 278.965 158.982C278.309 160.432 277.379 161.539 276.176 162.305C274.973 163.07 273.569 163.453 271.965 163.453C270.397 163.453 269.007 163.07 267.795 162.305C266.583 161.53 265.639 160.432 264.965 159.01C264.299 157.579 263.958 155.924 263.939 154.047V152.611C263.939 150.697 264.272 149.007 264.938 147.539C265.603 146.072 266.542 144.951 267.754 144.176C268.975 143.392 270.37 143 271.938 143C273.533 143 274.936 143.387 276.148 144.162C277.37 144.928 278.309 146.044 278.965 147.512C279.621 148.97 279.949 150.67 279.949 152.611V153.869ZM277.338 152.584C277.338 150.223 276.864 148.414 275.916 147.156C274.968 145.889 273.642 145.256 271.938 145.256C270.279 145.256 268.971 145.889 268.014 147.156C267.066 148.414 266.578 150.164 266.551 152.406V153.869C266.551 156.157 267.029 157.957 267.986 159.27C268.952 160.573 270.279 161.225 271.965 161.225C273.66 161.225 274.973 160.609 275.902 159.379C276.832 158.139 277.311 156.367 277.338 154.061V152.584Z" fill="#2D2D2D"/>
<path d="M291.188 155.127H286.512V163.18H283.873V143.273H290.463C292.705 143.273 294.428 143.784 295.631 144.805C296.843 145.826 297.449 147.311 297.449 149.262C297.449 150.501 297.112 151.581 296.438 152.502C295.772 153.423 294.842 154.111 293.648 154.566L298.324 163.016V163.18H295.508L291.188 155.127ZM286.512 152.98H290.545C291.848 152.98 292.883 152.643 293.648 151.969C294.423 151.294 294.811 150.392 294.811 149.262C294.811 148.031 294.441 147.088 293.703 146.432C292.974 145.775 291.917 145.443 290.531 145.434H286.512V152.98Z" fill="#2D2D2D"/>
<path d="M307.006 154.307C304.755 153.66 303.114 152.867 302.084 151.928C301.063 150.98 300.553 149.813 300.553 148.428C300.553 146.86 301.177 145.566 302.426 144.545C303.684 143.515 305.315 143 307.32 143C308.688 143 309.904 143.264 310.971 143.793C312.046 144.322 312.876 145.051 313.459 145.98C314.051 146.91 314.348 147.926 314.348 149.029H311.709C311.709 147.826 311.326 146.883 310.561 146.199C309.795 145.507 308.715 145.16 307.32 145.16C306.026 145.16 305.014 145.447 304.285 146.021C303.565 146.587 303.205 147.375 303.205 148.387C303.205 149.198 303.547 149.886 304.23 150.451C304.923 151.007 306.094 151.518 307.744 151.982C309.403 152.447 310.697 152.962 311.627 153.527C312.566 154.083 313.258 154.735 313.705 155.482C314.161 156.23 314.389 157.109 314.389 158.121C314.389 159.734 313.76 161.029 312.502 162.004C311.244 162.97 309.562 163.453 307.457 163.453C306.09 163.453 304.814 163.193 303.629 162.674C302.444 162.145 301.528 161.425 300.881 160.514C300.243 159.602 299.924 158.568 299.924 157.41H302.562C302.562 158.613 303.005 159.566 303.889 160.268C304.782 160.96 305.971 161.307 307.457 161.307C308.842 161.307 309.904 161.024 310.643 160.459C311.381 159.894 311.75 159.124 311.75 158.148C311.75 157.173 311.408 156.421 310.725 155.893C310.041 155.355 308.801 154.826 307.006 154.307Z" fill="#2D2D2D"/>
<path d="M233.654 114.184H225.428V137H222.07V114.184H213.861V111.406H233.654V114.184Z" fill="#2D2D2D"/>
<path d="M256.646 125.029C256.646 127.537 256.225 129.729 255.381 131.604C254.537 133.467 253.342 134.891 251.795 135.875C250.248 136.859 248.443 137.352 246.381 137.352C244.365 137.352 242.578 136.859 241.02 135.875C239.461 134.879 238.248 133.467 237.381 131.639C236.525 129.799 236.086 127.672 236.062 125.258V123.412C236.062 120.951 236.49 118.777 237.346 116.891C238.201 115.004 239.408 113.562 240.967 112.566C242.537 111.559 244.33 111.055 246.346 111.055C248.396 111.055 250.201 111.553 251.76 112.549C253.33 113.533 254.537 114.969 255.381 116.855C256.225 118.73 256.646 120.916 256.646 123.412V125.029ZM253.289 123.377C253.289 120.342 252.68 118.016 251.461 116.398C250.242 114.77 248.537 113.955 246.346 113.955C244.213 113.955 242.531 114.77 241.301 116.398C240.082 118.016 239.455 120.266 239.42 123.148V125.029C239.42 127.971 240.035 130.285 241.266 131.973C242.508 133.648 244.213 134.486 246.381 134.486C248.561 134.486 250.248 133.695 251.443 132.113C252.639 130.52 253.254 128.24 253.289 125.275V123.377Z" fill="#2D2D2D"/>
<path d="M271.096 126.646H265.084V137H261.691V111.406H270.164C273.047 111.406 275.262 112.062 276.809 113.375C278.367 114.688 279.146 116.598 279.146 119.105C279.146 120.699 278.713 122.088 277.846 123.271C276.99 124.455 275.795 125.34 274.26 125.926L280.271 136.789V137H276.65L271.096 126.646ZM265.084 123.887H270.27C271.945 123.887 273.275 123.453 274.26 122.586C275.256 121.719 275.754 120.559 275.754 119.105C275.754 117.523 275.279 116.311 274.33 115.467C273.393 114.623 272.033 114.195 270.252 114.184H265.084V123.887Z" fill="#2D2D2D"/>
<path d="M303.439 125.029C303.439 127.502 303.047 129.635 302.262 131.428C301.477 133.209 300.375 134.604 298.957 135.611L303.527 139.197L301.225 141.324L295.828 137.035C294.984 137.246 294.094 137.352 293.156 137.352C291.141 137.352 289.354 136.859 287.795 135.875C286.236 134.879 285.023 133.467 284.156 131.639C283.301 129.799 282.861 127.672 282.838 125.258V123.412C282.838 120.951 283.266 118.777 284.121 116.891C284.977 115.004 286.184 113.562 287.742 112.566C289.312 111.559 291.105 111.055 293.121 111.055C295.184 111.055 296.994 111.553 298.553 112.549C300.123 113.545 301.33 114.98 302.174 116.855C303.018 118.719 303.439 120.898 303.439 123.395V125.029ZM300.064 123.377C300.064 120.365 299.461 118.045 298.254 116.416C297.059 114.775 295.348 113.955 293.121 113.955C291 113.955 289.324 114.77 288.094 116.398C286.875 118.016 286.248 120.266 286.213 123.148V125.029C286.213 127.959 286.822 130.268 288.041 131.955C289.271 133.643 290.977 134.486 293.156 134.486C295.336 134.486 297.023 133.695 298.219 132.113C299.414 130.52 300.029 128.24 300.064 125.275V123.377Z" fill="#2D2D2D"/>
<mask id="path-92-inside-2" fill="white">
<path d="M520.871 117.757H371.392V113.879H520.871V117.757Z"/>
</mask>
<path d="M520.871 117.757H371.392V113.879H520.871V117.757Z" fill="#2D2D2D"/>
<path d="M371.392 117.757V118.757H370.392V117.757H371.392ZM371.392 113.879H370.392V112.879H371.392V113.879ZM520.871 113.879V112.879H521.871V113.879H520.871ZM520.871 118.757H371.392V116.757H520.871V118.757ZM370.392 117.757V113.879H372.392V117.757H370.392ZM371.392 112.879H520.871V114.879H371.392V112.879ZM521.871 113.879V117.757H519.871V113.879H521.871Z" fill="#F64352" mask="url(#path-92-inside-2)"/>
<path d="M371.892 125.712V128.591H490.508V125.712H371.892Z" fill="#2D2D2D" stroke="#F64352"/>
<path d="M371.892 137.045V139.924H475.576V137.045H371.892Z" fill="#2D2D2D" stroke="#F64352"/>
<path d="M371.892 148.379V151.257H460.644V148.379H371.892Z" fill="#2D2D2D" stroke="#F64352"/>
<path d="M371.892 159.712V162.591H445.713V159.712H371.892Z" fill="#2D2D2D" stroke="#F64352"/>
<path d="M0.558594 114.379V117.257H149.038V114.379H0.558594Z" fill="#2D2D2D" stroke="#F64352"/>
<path d="M30.4219 125.712V128.591H149.037V125.712H30.4219Z" fill="#2D2D2D" stroke="#F64352"/>
<path d="M45.354 137.045V139.924H149.038V137.045H45.354Z" fill="#2D2D2D" stroke="#F64352"/>
<path d="M60.2856 148.379V151.257H149.038V148.379H60.2856Z" fill="#2D2D2D" stroke="#F64352"/>
<mask id="path-102-inside-3" fill="white">
<path d="M149.537 163.091H74.7178V159.212H149.537V163.091Z"/>
</mask>
<path d="M149.537 163.091H74.7178V159.212H149.537V163.091Z" fill="#2D2D2D"/>
<path d="M74.7178 163.091V164.091H73.7178V163.091H74.7178ZM74.7178 159.212H73.7178V158.212H74.7178V159.212ZM149.537 159.212V158.212H150.537V159.212H149.537ZM149.537 164.091H74.7178V162.091H149.537V164.091ZM73.7178 163.091V159.212H75.7178V163.091H73.7178ZM74.7178 158.212H149.537V160.212H74.7178V158.212ZM150.537 159.212V163.091H148.537V159.212H150.537Z" fill="#F64352" mask="url(#path-102-inside-3)"/>
<path d="M312.687 114.134C320.205 110.516 337.126 106.813 344.659 120.94C342.678 119.287 337.03 116.534 330.294 118.753C339.8 120.831 359.591 127.389 362.713 136.998C360.84 135.931 355.107 133.921 347.16 134.425C354.146 136.97 368.314 143.115 369.097 147.336C363.083 145.015 353.369 143.825 362.63 157.632C359.567 155.167 351.283 150.639 342.646 152.241C343.909 155.039 347.515 160.434 351.834 159.633C347.336 161.478 337.196 163.803 332.61 158.347C333.218 160.633 334.871 165.216 336.663 165.461C336.683 165.463 336.703 165.465 336.722 165.467C336.702 165.466 336.683 165.464 336.663 165.461C331.125 164.85 318.838 161.841 313.492 154.614C322.95 147.403 336.03 129.211 312.687 114.134Z" fill="#2D2D2D" stroke="#F64352"/>
<path d="M204.095 114.523C196.329 111.472 179.18 109.032 172.715 123.679C174.568 121.883 179.996 118.719 186.878 120.433C177.553 123.21 158.301 131.216 155.9 141.03C157.689 139.827 163.257 137.398 171.22 137.311C164.441 140.367 150.767 147.545 150.3 151.813C156.125 149.052 165.723 147.145 157.511 161.6C160.383 158.916 168.309 153.787 177.041 154.744C175.989 157.628 172.792 163.276 168.426 162.797C173.048 164.303 183.333 165.871 187.501 160.09C187.064 162.415 185.756 167.108 183.987 167.485C183.967 167.488 183.948 167.492 183.928 167.496C183.948 167.492 183.968 167.489 183.987 167.485C189.464 166.465 201.495 162.554 206.291 154.952C196.325 148.461 181.932 131.287 204.095 114.523Z" fill="#2D2D2D" stroke="#F64352"/>
</svg>
