<svg width="164" height="164" viewBox="0 0 164 164" fill="none" xmlns="http://www.w3.org/2000/svg">
<g clip-path="url(#clip0)">
<path d="M158.064 0.154084C158.019 0.164974 157.974 0.173943 157.929 0.186115L8.44371 40.9549C4.68676 41.9796 3.65311 46.8272 6.65284 49.2988L53.1777 87.6281L44.6115 113.326C43.363 117.073 46.937 120.654 50.6892 119.404L76.3872 110.838L114.717 157.362C117.198 160.374 122.037 159.321 123.06 155.572L163.829 6.08564C163.842 6.03856 163.851 5.99083 163.863 5.94342C164.706 2.42158 161.526 -0.681613 158.064 0.154084ZM19.9263 47.7837L138.369 15.4811L58.8069 79.8153L19.9263 47.7837ZM75.1447 101.122L56.7665 107.249L62.8928 88.8702L126.91 37.1051L75.1447 101.122ZM116.231 144.088L84.199 105.208L148.534 25.6452L116.231 144.088Z" fill="#F64352"/>
<path d="M14.9924 149.046C13.1151 147.17 10.0727 147.172 8.19729 149.049L1.40569 155.847C-0.469739 157.724 -0.468458 160.766 1.4089 162.642C3.20073 164.432 6.41379 164.431 8.2037 162.639L14.9956 155.841C16.8711 153.964 16.8698 150.921 14.9924 149.046Z" fill="#F64352"/>
<path d="M35.3669 128.652C33.4895 126.777 30.4478 126.778 28.5721 128.655L21.7805 135.453C20.0758 137.16 20.0774 140.543 21.7837 142.248C23.4041 143.867 26.9586 143.866 28.5785 142.245L35.3701 135.447C37.2455 133.57 37.2442 130.528 35.3669 128.652Z" fill="#F64352"/>
</g>
<defs>
<clipPath id="clip0">
<rect width="164" height="164" fill="white"/>
</clipPath>
</defs>
</svg>
