<svg width="168" height="168" viewBox="0 0 168 168" fill="none" xmlns="http://www.w3.org/2000/svg">
<path d="M159.892 126.831L159.892 126.831C163.652 130.59 163.991 137.55 159.765 142.494L143.983 158.276L147.518 161.812L143.983 158.276C140.989 161.27 136.501 162.989 130.279 163C124.015 163.012 116.337 161.272 107.655 157.71C90.3102 150.591 69.914 136.586 50.5757 117.248C31.2538 97.9257 17.456 77.5372 10.4372 60.1908C6.92452 51.5094 5.1996 43.8116 5.1765 37.517C5.15359 31.2736 6.7889 26.7729 9.59609 23.7915L25.4562 7.93145C29.2156 4.17204 36.1761 3.83247 41.1198 8.05855L64.4376 31.3764C70.3135 37.2522 67.7021 46.8463 60.6415 49.0188L60.586 49.0359L60.5309 49.0542C50.888 52.2681 43.8902 63.0695 47.2496 73.5823C49.7006 83.5996 57.0778 94.1451 65.6115 102.571C74.2069 111.057 84.8071 118.214 94.3919 120.61L94.4556 120.626L94.5198 120.64C104.318 122.818 115.372 117.485 118.769 107.292L118.787 107.237L118.804 107.182C120.977 100.121 130.571 97.5099 136.447 103.386L159.892 126.831Z" stroke="#F64352" stroke-width="10"/>
</svg>
