<svg width="200" height="200" viewBox="0 0 200 200" fill="none" xmlns="http://www.w3.org/2000/svg">
<g clip-path="url(#clip0)">
<path d="M117.969 0C72.7368 0 35.9375 36.7992 35.9375 82.0312C35.9375 101.931 43.0602 120.199 54.8903 134.419L2.30708 186.645C-0.754251 189.685 -0.771048 194.632 2.26919 197.693C3.79653 199.23 5.80434 200 7.81255 200C9.80278 200 11.7938 199.244 13.3176 197.73L65.9727 145.434C80.136 157.07 98.2512 164.062 117.969 164.062C132.041 164.062 145.928 160.436 158.127 153.576C161.888 151.461 163.222 146.698 161.106 142.937C158.991 139.176 154.228 137.841 150.467 139.957C140.602 145.505 129.365 148.438 117.969 148.438C81.3524 148.438 51.5625 118.648 51.5625 82.0312C51.5625 45.4148 81.3524 15.625 117.969 15.625C154.585 15.625 184.375 45.4148 184.375 82.0312C184.375 93.5668 181.374 104.925 175.697 114.879C173.559 118.627 174.864 123.398 178.612 125.536C182.36 127.674 187.131 126.369 189.269 122.621C196.289 110.313 200 96.277 200 82.0312C200 36.7992 163.201 0 117.969 0Z" fill="#F64352"/>
</g>
<defs>
<clipPath id="clip0">
<rect width="200" height="200" fill="white"/>
</clipPath>
</defs>
</svg>
