<svg width="107" height="107" viewBox="0 0 107 107" fill="none" xmlns="http://www.w3.org/2000/svg">
<path d="M53.5073 0C38.2215 0 25.7261 12.4954 25.7261 27.7812C25.7261 43.067 38.2215 55.5624 53.5073 55.5624C68.7931 55.5624 81.2885 43.067 81.2885 27.7812C81.2885 12.4954 68.7931 0 53.5073 0Z" fill="#F64352"/>
<path d="M101.185 77.7631C100.457 75.9433 99.4862 74.2449 98.3944 72.6678C92.8138 64.4183 84.2007 58.9591 74.4954 57.6246C73.2824 57.5034 71.9479 57.7459 70.9773 58.4738C65.882 62.2346 59.8164 64.1756 53.5078 64.1756C47.1993 64.1756 41.1336 62.2346 36.0384 58.4738C35.0677 57.7459 33.7333 57.382 32.5202 57.6246C22.815 58.9591 14.0804 64.4183 8.62123 72.6678C7.5294 74.2449 6.55879 76.0647 5.83106 77.7631C5.46719 78.491 5.5884 79.3402 5.95227 80.0682C6.92288 81.7665 8.13592 83.4651 9.22775 84.9208C10.9261 87.2259 12.7459 89.2881 14.8083 91.2291C16.5067 92.9275 18.4477 94.5046 20.3889 96.0817C29.9727 103.239 41.4977 107 53.3866 107C65.2755 107 76.8005 103.239 86.3843 96.0817C88.3253 94.626 90.2663 92.9275 91.9649 91.2291C93.9059 89.2881 95.8469 87.2257 97.5455 84.9208C98.7585 83.3437 99.8506 81.7665 100.821 80.0682C101.427 79.3402 101.548 78.4908 101.185 77.7631Z" fill="#F64352"/>
</svg>
