<svg width="42" height="42" viewBox="0 0 42 42" fill="none" xmlns="http://www.w3.org/2000/svg">
<g clip-path="url(#clip0)">
<path d="M27.948 20.878L40.291 8.53601C42.244 6.58301 42.244 3.41701 40.291 1.46501C38.34 -0.486993 35.172 -0.486993 33.221 1.46501L20.878 13.809L8.53499 1.46501C6.58399 -0.486993 3.41599 -0.486993 1.46499 1.46501C-0.488006 3.41801 -0.488006 6.58401 1.46499 8.53601L13.807 20.878L1.46499 33.22C-0.488006 35.173 -0.488006 38.339 1.46499 40.291C2.43999 41.268 3.72099 41.755 4.99999 41.755C6.27799 41.755 7.55999 41.268 8.53499 40.291L20.878 27.949L33.221 40.292C34.197 41.269 35.477 41.756 36.756 41.756C38.035 41.756 39.316 41.269 40.291 40.292C42.244 38.339 42.244 35.173 40.291 33.221L27.948 20.878Z" fill="white"/>
</g>
<defs>
<clipPath id="clip0">
<rect width="41.756" height="41.756" fill="white"/>
</clipPath>
</defs>
</svg>
